<?xml version="1.0" encoding="utf-8" standalone="no"?>
<!DOCTYPE svg PUBLIC "-//W3C//DTD SVG 1.1//EN"
  "http://www.w3.org/Graphics/SVG/1.1/DTD/svg11.dtd">
<svg xmlns:xlink="http://www.w3.org/1999/xlink" width="684pt" height="600.928906pt" viewBox="0 0 684 600.928906" xmlns="http://www.w3.org/2000/svg" version="1.1">
 <metadata>
  <rdf:RDF xmlns:dc="http://purl.org/dc/elements/1.1/" xmlns:cc="http://creativecommons.org/ns#" xmlns:rdf="http://www.w3.org/1999/02/22-rdf-syntax-ns#">
   <cc:Work>
    <dc:type rdf:resource="http://purl.org/dc/dcmitype/StillImage"/>
    <dc:date>2026-04-21T11:26:07.750606</dc:date>
    <dc:format>image/svg+xml</dc:format>
    <dc:creator>
     <cc:Agent>
      <dc:title>Matplotlib v3.10.8, https://matplotlib.org/</dc:title>
     </cc:Agent>
    </dc:creator>
   </cc:Work>
  </rdf:RDF>
 </metadata>
 <defs>
  <style type="text/css">*{stroke-linejoin: round; stroke-linecap: butt}</style>
 </defs>
 <g id="figure_1">
  <g id="patch_1">
   <path d="M 0 600.928906 
L 684 600.928906 
L 684 0 
L 0 0 
z
" style="fill: #ffffff"/>
  </g>
  <g id="axes_1">
   <g id="LineCollection_1">
    <path d="M 488.76611 532.52582 
L 292.147383 103.275625 
" clip-path="url(#p2674d7b925)" style="fill: none; stroke: #bfbfbf; stroke-opacity: 0.8; stroke-width: 1.2"/>
    <path d="M 488.76611 532.52582 
L 136.808258 417.908755 
" clip-path="url(#p2674d7b925)" style="fill: none; stroke: #bfbfbf; stroke-opacity: 0.8; stroke-width: 1.2"/>
    <path d="M 488.76611 532.52582 
L 441.936504 87.437997 
" clip-path="url(#p2674d7b925)" style="fill: none; stroke: #bfbfbf; stroke-opacity: 0.8; stroke-width: 1.2"/>
    <path d="M 488.76611 532.52582 
L 181.49053 514.215974 
" clip-path="url(#p2674d7b925)" style="fill: none; stroke: #bfbfbf; stroke-opacity: 0.8; stroke-width: 1.2"/>
    <path d="M 292.147383 103.275625 
L 144.589359 154.62118 
" clip-path="url(#p2674d7b925)" style="fill: none; stroke: #bfbfbf; stroke-opacity: 0.8; stroke-width: 1.2"/>
    <path d="M 292.147383 103.275625 
L 65.305785 271.017319 
" clip-path="url(#p2674d7b925)" style="fill: none; stroke: #bfbfbf; stroke-opacity: 0.8; stroke-width: 1.2"/>
    <path d="M 292.147383 103.275625 
L 618.694215 300.221361 
" clip-path="url(#p2674d7b925)" style="fill: none; stroke: #bfbfbf; stroke-opacity: 0.8; stroke-width: 1.2"/>
    <path d="M 136.808258 417.908755 
L 580.282294 429.467105 
" clip-path="url(#p2674d7b925)" style="fill: none; stroke: #bfbfbf; stroke-opacity: 0.8; stroke-width: 1.2"/>
    <path d="M 136.808258 417.908755 
L 576.189465 171.504451 
" clip-path="url(#p2674d7b925)" style="fill: none; stroke: #bfbfbf; stroke-opacity: 0.8; stroke-width: 1.2"/>
    <path d="M 136.808258 417.908755 
L 328.08342 545.619815 
" clip-path="url(#p2674d7b925)" style="fill: none; stroke: #bfbfbf; stroke-opacity: 0.8; stroke-width: 1.2"/>
    <path d="M 181.49053 514.215974 
L 618.694215 300.221361 
" clip-path="url(#p2674d7b925)" style="fill: none; stroke: #bfbfbf; stroke-opacity: 0.8; stroke-width: 1.2"/>
    <path d="M 441.936504 87.437997 
L 65.305785 271.017319 
" clip-path="url(#p2674d7b925)" style="fill: none; stroke: #bfbfbf; stroke-opacity: 0.8; stroke-width: 1.2"/>
   </g>
   <g id="PathCollection_1">
    <defs>
     <path id="m9aca1684fe" d="M 0 17.5 
C 4.641054 17.5 9.092648 15.65609 12.374369 12.374369 
C 15.65609 9.092648 17.5 4.641054 17.5 0 
C 17.5 -4.641054 15.65609 -9.092648 12.374369 -12.374369 
C 9.092648 -15.65609 4.641054 -17.5 0 -17.5 
C -4.641054 -17.5 -9.092648 -15.65609 -12.374369 -12.374369 
C -15.65609 -9.092648 -17.5 -4.641054 -17.5 0 
C -17.5 4.641054 -15.65609 9.092648 -12.374369 12.374369 
C -9.092648 15.65609 -4.641054 17.5 0 17.5 
z
" style="stroke: #000000"/>
    </defs>
    <g clip-path="url(#p2674d7b925)">
     <use xlink:href="#m9aca1684fe" x="488.76611" y="532.52582" style="stroke: #000000"/>
    </g>
   </g>
   <g id="PathCollection_2">
    <defs>
     <path id="ma31dd3a610" d="M 0 15.652476 
C 4.151085 15.652476 8.132711 14.003232 11.067972 11.067972 
C 14.003232 8.132711 15.652476 4.151085 15.652476 0 
C 15.652476 -4.151085 14.003232 -8.132711 11.067972 -11.067972 
C 8.132711 -14.003232 4.151085 -15.652476 0 -15.652476 
C -4.151085 -15.652476 -8.132711 -14.003232 -11.067972 -11.067972 
C -14.003232 -8.132711 -15.652476 -4.151085 -15.652476 0 
C -15.652476 4.151085 -14.003232 8.132711 -11.067972 11.067972 
C -8.132711 14.003232 -4.151085 15.652476 0 15.652476 
z
" style="stroke: #000000"/>
    </defs>
    <g clip-path="url(#p2674d7b925)">
     <use xlink:href="#ma31dd3a610" x="292.147383" y="103.275625" style="stroke: #000000"/>
    </g>
   </g>
   <g id="PathCollection_3">
    <defs>
     <path id="m2eb945ff0c" d="M 0 15.083103 
C 4.000086 15.083103 7.836877 13.493852 10.665365 10.665365 
C 13.493852 7.836877 15.083103 4.000086 15.083103 0 
C 15.083103 -4.000086 13.493852 -7.836877 10.665365 -10.665365 
C 7.836877 -13.493852 4.000086 -15.083103 0 -15.083103 
C -4.000086 -15.083103 -7.836877 -13.493852 -10.665365 -10.665365 
C -13.493852 -7.836877 -15.083103 -4.000086 -15.083103 0 
C -15.083103 4.000086 -13.493852 7.836877 -10.665365 10.665365 
C -7.836877 13.493852 -4.000086 15.083103 0 15.083103 
z
" style="stroke: #000000"/>
    </defs>
    <g clip-path="url(#p2674d7b925)">
     <use xlink:href="#m2eb945ff0c" x="136.808258" y="417.908755" style="stroke: #000000"/>
    </g>
   </g>
   <g id="PathCollection_4">
    <defs>
     <path id="m2fc8b45966" d="M 0 13.874437 
C 3.679544 13.874437 7.208878 12.412539 9.810708 9.810708 
C 12.412539 7.208878 13.874437 3.679544 13.874437 0 
C 13.874437 -3.679544 12.412539 -7.208878 9.810708 -9.810708 
C 7.208878 -12.412539 3.679544 -13.874437 0 -13.874437 
C -3.679544 -13.874437 -7.208878 -12.412539 -9.810708 -9.810708 
C -12.412539 -7.208878 -13.874437 -3.679544 -13.874437 0 
C -13.874437 3.679544 -12.412539 7.208878 -9.810708 9.810708 
C -7.208878 12.412539 -3.679544 13.874437 0 13.874437 
z
" style="stroke: #000000"/>
    </defs>
    <g clip-path="url(#p2674d7b925)">
     <use xlink:href="#m2fc8b45966" x="144.589359" y="154.62118" style="stroke: #000000"/>
    </g>
   </g>
   <g id="PathCollection_5">
    <defs>
     <path id="mbc3d5ed3d5" d="M 0 12.5499 
C 3.328272 12.5499 6.520676 11.227564 8.87412 8.87412 
C 11.227564 6.520676 12.5499 3.328272 12.5499 0 
C 12.5499 -3.328272 11.227564 -6.520676 8.87412 -8.87412 
C 6.520676 -11.227564 3.328272 -12.5499 0 -12.5499 
C -3.328272 -12.5499 -6.520676 -11.227564 -8.87412 -8.87412 
C -11.227564 -6.520676 -12.5499 -3.328272 -12.5499 0 
C -12.5499 3.328272 -11.227564 6.520676 -8.87412 8.87412 
C -6.520676 11.227564 -3.328272 12.5499 0 12.5499 
z
" style="stroke: #000000"/>
    </defs>
    <g clip-path="url(#p2674d7b925)">
     <use xlink:href="#mbc3d5ed3d5" x="181.49053" y="514.215974" style="stroke: #000000"/>
    </g>
   </g>
   <g id="PathCollection_6">
    <defs>
     <path id="m5f6b197bc7" d="M 0 11.456439 
C 3.038283 11.456439 5.952535 10.249317 8.100926 8.100926 
C 10.249317 5.952535 11.456439 3.038283 11.456439 0 
C 11.456439 -3.038283 10.249317 -5.952535 8.100926 -8.100926 
C 5.952535 -10.249317 3.038283 -11.456439 0 -11.456439 
C -3.038283 -11.456439 -5.952535 -10.249317 -8.100926 -8.100926 
C -10.249317 -5.952535 -11.456439 -3.038283 -11.456439 0 
C -11.456439 3.038283 -10.249317 5.952535 -8.100926 8.100926 
C -5.952535 10.249317 -3.038283 11.456439 0 11.456439 
z
" style="stroke: #000000"/>
    </defs>
    <g clip-path="url(#p2674d7b925)">
     <use xlink:href="#m5f6b197bc7" x="441.936504" y="87.437997" style="stroke: #000000"/>
    </g>
   </g>
   <g id="PathCollection_7">
    <defs>
     <path id="m80d4a47bcf" d="M 0 10.246951 
C 2.717523 10.246951 5.324109 9.167267 7.245688 7.245688 
C 9.167267 5.324109 10.246951 2.717523 10.246951 0 
C 10.246951 -2.717523 9.167267 -5.324109 7.245688 -7.245688 
C 5.324109 -9.167267 2.717523 -10.246951 0 -10.246951 
C -2.717523 -10.246951 -5.324109 -9.167267 -7.245688 -7.245688 
C -9.167267 -5.324109 -10.246951 -2.717523 -10.246951 0 
C -10.246951 2.717523 -9.167267 5.324109 -7.245688 7.245688 
C -5.324109 9.167267 -2.717523 10.246951 0 10.246951 
z
" style="stroke: #000000; stroke-opacity: 0.9"/>
    </defs>
    <g clip-path="url(#p2674d7b925)">
     <use xlink:href="#m80d4a47bcf" x="65.305785" y="271.017319" style="fill: #e6e6e6; fill-opacity: 0.9; stroke: #000000; stroke-opacity: 0.9"/>
    </g>
   </g>
   <g id="PathCollection_8">
    <defs>
     <path id="medde7dc61a" d="M 0 9.354143 
C 2.480748 9.354143 4.860225 8.368532 6.614378 6.614378 
C 8.368532 4.860225 9.354143 2.480748 9.354143 0 
C 9.354143 -2.480748 8.368532 -4.860225 6.614378 -6.614378 
C 4.860225 -8.368532 2.480748 -9.354143 0 -9.354143 
C -2.480748 -9.354143 -4.860225 -8.368532 -6.614378 -6.614378 
C -8.368532 -4.860225 -9.354143 -2.480748 -9.354143 0 
C -9.354143 2.480748 -8.368532 4.860225 -6.614378 6.614378 
C -4.860225 8.368532 -2.480748 9.354143 0 9.354143 
z
" style="stroke: #000000; stroke-opacity: 0.9"/>
    </defs>
    <g clip-path="url(#p2674d7b925)">
     <use xlink:href="#medde7dc61a" x="618.694215" y="300.221361" style="fill: #e6e6e6; fill-opacity: 0.9; stroke: #000000; stroke-opacity: 0.9"/>
    </g>
   </g>
   <g id="PathCollection_9">
    <defs>
     <path id="mdeb31fa73c" d="M 0 8.87412 
C 2.353444 8.87412 4.610814 7.939086 6.27495 6.27495 
C 7.939086 4.610814 8.87412 2.353444 8.87412 0 
C 8.87412 -2.353444 7.939086 -4.610814 6.27495 -6.27495 
C 4.610814 -7.939086 2.353444 -8.87412 0 -8.87412 
C -2.353444 -8.87412 -4.610814 -7.939086 -6.27495 -6.27495 
C -7.939086 -4.610814 -8.87412 -2.353444 -8.87412 0 
C -8.87412 2.353444 -7.939086 4.610814 -6.27495 6.27495 
C -4.610814 7.939086 -2.353444 8.87412 0 8.87412 
z
" style="stroke: #000000; stroke-opacity: 0.9"/>
    </defs>
    <g clip-path="url(#p2674d7b925)">
     <use xlink:href="#mdeb31fa73c" x="580.282294" y="429.467105" style="fill: #e6e6e6; fill-opacity: 0.9; stroke: #000000; stroke-opacity: 0.9"/>
    </g>
   </g>
   <g id="PathCollection_10">
    <defs>
     <path id="md7b09f1a32" d="M 0 7.826238 
C 2.075543 7.826238 4.066356 7.001616 5.533986 5.533986 
C 7.001616 4.066356 7.826238 2.075543 7.826238 0 
C 7.826238 -2.075543 7.001616 -4.066356 5.533986 -5.533986 
C 4.066356 -7.001616 2.075543 -7.826238 0 -7.826238 
C -2.075543 -7.826238 -4.066356 -7.001616 -5.533986 -5.533986 
C -7.001616 -4.066356 -7.826238 -2.075543 -7.826238 0 
C -7.826238 2.075543 -7.001616 4.066356 -5.533986 5.533986 
C -4.066356 7.001616 -2.075543 7.826238 0 7.826238 
z
" style="stroke: #000000; stroke-opacity: 0.9"/>
    </defs>
    <g clip-path="url(#p2674d7b925)">
     <use xlink:href="#md7b09f1a32" x="576.189465" y="171.504451" style="fill: #e6e6e6; fill-opacity: 0.9; stroke: #000000; stroke-opacity: 0.9"/>
    </g>
   </g>
   <g id="PathCollection_11">
    <defs>
     <path id="m5bdd25135a" d="M 0 7.245688 
C 1.921579 7.245688 3.764714 6.482237 5.123475 5.123475 
C 6.482237 3.764714 7.245688 1.921579 7.245688 0 
C 7.245688 -1.921579 6.482237 -3.764714 5.123475 -5.123475 
C 3.764714 -6.482237 1.921579 -7.245688 0 -7.245688 
C -1.921579 -7.245688 -3.764714 -6.482237 -5.123475 -5.123475 
C -6.482237 -3.764714 -7.245688 -1.921579 -7.245688 0 
C -7.245688 1.921579 -6.482237 3.764714 -5.123475 5.123475 
C -3.764714 6.482237 -1.921579 7.245688 0 7.245688 
z
" style="stroke: #000000; stroke-opacity: 0.9"/>
    </defs>
    <g clip-path="url(#p2674d7b925)">
     <use xlink:href="#m5bdd25135a" x="328.08342" y="545.619815" style="fill: #e6e6e6; fill-opacity: 0.9; stroke: #000000; stroke-opacity: 0.9"/>
    </g>
   </g>
   <g id="text_1">
    <g clip-path="url(#p2674d7b925)">
     <!-- 传统文化 -->
     <g transform="translate(466.76611 536.285586) scale(0.11 -0.11)">
      <defs>
       <path id="SimHei-4f20" d="M 5500 1975 
Q 5025 925 4700 250 
Q 4975 100 5450 -200 
Q 5300 -375 5125 -675 
Q 4700 -375 4012 12 
Q 3325 400 3050 525 
Q 3175 750 3275 950 
Q 3600 800 4275 475 
Q 4525 975 4750 1550 
L 2800 1550 
Q 2950 2000 3125 2650 
L 2575 2650 
Q 2200 2650 1925 2625 
L 1925 3075 
Q 2250 3050 2600 3050 
L 3200 3050 
Q 3300 3525 3350 3825 
L 2975 3825 
Q 2525 3825 2250 3800 
L 2250 4250 
Q 2550 4225 2950 4225 
L 3425 4225 
Q 3525 4950 3525 5225 
Q 3850 5150 4100 5125 
Q 4025 5000 3875 4225 
L 4950 4225 
Q 5350 4225 5700 4250 
L 5700 3800 
Q 5375 3825 4925 3825 
L 3825 3825 
Q 3775 3550 3675 3050 
L 5250 3050 
Q 5750 3050 6025 3075 
L 6025 2625 
Q 5725 2650 5250 2650 
L 3600 2650 
Q 3500 2250 3425 1975 
L 5500 1975 
z
M 2225 4875 
Q 2025 4675 1650 3750 
L 1650 550 
Q 1650 -25 1675 -525 
L 1125 -525 
Q 1175 -125 1175 525 
L 1175 3000 
Q 800 2400 550 2050 
Q 450 2250 200 2450 
Q 500 2800 925 3525 
Q 1350 4250 1625 5175 
Q 1850 5050 2225 4875 
z
" transform="scale(0.015625)"/>
       <path id="SimHei-7edf" d="M 5150 4300 
Q 5525 4300 5950 4325 
L 5950 3875 
Q 5550 3900 5175 3900 
L 3775 3900 
Q 3975 3750 4250 3600 
Q 4050 3450 3837 3162 
Q 3625 2875 3225 2375 
Q 3800 2375 5025 2500 
Q 4925 2625 4625 2975 
Q 4850 3100 5025 3250 
Q 5450 2800 5950 2100 
Q 5700 1950 5525 1775 
Q 5375 1975 5275 2125 
Q 4925 2100 4825 2075 
L 4825 200 
Q 4825 -100 5075 -100 
L 5325 -100 
Q 5550 -100 5625 575 
Q 5850 400 6150 325 
Q 5925 -525 5525 -525 
L 4850 -525 
Q 4350 -525 4350 0 
L 4350 2025 
Q 4000 2000 3875 1975 
Q 3900 1050 3637 462 
Q 3375 -125 2625 -700 
Q 2500 -500 2175 -375 
Q 2575 -125 2850 175 
Q 3125 475 3275 850 
Q 3425 1225 3400 1925 
Q 3025 1900 2725 1825 
Q 2650 2200 2525 2475 
Q 2825 2500 3187 2975 
Q 3550 3450 3675 3900 
L 3275 3900 
Q 2950 3900 2475 3875 
L 2475 4325 
Q 2875 4300 3250 4300 
L 5150 4300 
z
M 1875 4825 
Q 1700 4600 1500 4250 
Q 1300 3900 900 3250 
Q 1375 3275 1650 3275 
Q 1850 3625 1975 3975 
Q 2250 3800 2550 3675 
Q 2375 3500 2075 3037 
Q 1775 2575 1225 1725 
Q 1950 1800 2500 1900 
Q 2375 1600 2375 1425 
Q 2150 1400 1587 1325 
Q 1025 1250 600 1125 
Q 525 1375 425 1625 
Q 700 1700 950 2075 
Q 1200 2450 1450 2900 
Q 1225 2875 925 2837 
Q 625 2800 425 2750 
Q 325 3000 200 3225 
Q 500 3300 862 4025 
Q 1225 4750 1275 5075 
Q 1575 4925 1875 4825 
z
M 2550 825 
Q 2525 575 2550 350 
Q 1975 200 1412 37 
Q 850 -125 550 -250 
Q 450 0 275 275 
Q 900 375 1450 500 
Q 2000 625 2550 825 
z
M 4100 5275 
Q 4375 4825 4500 4575 
Q 4325 4500 4025 4350 
Q 3825 4825 3650 5075 
Q 3950 5175 4100 5275 
z
" transform="scale(0.015625)"/>
       <path id="SimHei-6587" d="M 1250 3450 
Q 725 3450 350 3400 
L 350 3925 
Q 925 3900 1400 3900 
L 4950 3900 
Q 5400 3900 6025 3925 
L 6025 3400 
Q 5400 3425 4625 3425 
Q 4500 2650 4175 1987 
Q 3850 1325 3475 900 
Q 3950 475 4725 212 
Q 5500 -50 6075 -100 
Q 5850 -275 5675 -625 
Q 5250 -525 4575 -275 
Q 3900 -25 3125 575 
Q 2100 -275 675 -675 
Q 625 -450 325 -175 
Q 750 -125 1487 137 
Q 2225 400 2750 875 
Q 1875 1775 1500 3450 
L 1250 3450 
z
M 2025 3425 
Q 2225 2075 3100 1200 
Q 3900 2175 4100 3425 
L 2025 3425 
z
M 2850 5250 
Q 3125 4825 3500 4175 
Q 3300 4125 3050 3925 
Q 2700 4575 2425 5000 
Q 2600 5050 2850 5250 
z
" transform="scale(0.015625)"/>
       <path id="SimHei-5316" d="M 3925 5025 
Q 3900 4900 3900 4400 
L 3900 2625 
Q 4375 3025 4775 3450 
Q 5175 3875 5400 4300 
Q 5600 4100 5900 3925 
Q 5700 3700 5225 3212 
Q 4750 2725 4487 2512 
Q 4225 2300 3900 2025 
L 3900 450 
Q 3900 50 4225 50 
L 5200 50 
Q 5400 75 5462 262 
Q 5525 450 5575 850 
Q 5800 650 6150 600 
Q 6000 -100 5825 -250 
Q 5650 -400 5350 -400 
L 3950 -400 
Q 3425 -400 3400 200 
L 3400 1675 
Q 3225 1525 2962 1350 
Q 2700 1175 2375 975 
Q 2225 1225 2025 1400 
Q 2350 1550 2737 1787 
Q 3125 2025 3400 2250 
L 3400 4500 
Q 3400 4800 3375 5025 
L 3925 5025 
z
M 2400 4850 
Q 2175 4550 2075 4337 
Q 1975 4125 1825 3775 
L 1825 675 
Q 1825 -75 1850 -550 
L 1325 -550 
Q 1350 -125 1350 650 
L 1350 3050 
Q 1125 2725 962 2525 
Q 800 2325 675 2175 
Q 500 2375 275 2525 
Q 625 2850 875 3212 
Q 1125 3575 1312 3912 
Q 1500 4250 1625 4575 
Q 1750 4900 1825 5100 
Q 1975 4975 2400 4850 
z
" transform="scale(0.015625)"/>
      </defs>
      <use xlink:href="#SimHei-4f20"/>
      <use xlink:href="#SimHei-7edf" transform="translate(100 0)"/>
      <use xlink:href="#SimHei-6587" transform="translate(200 0)"/>
      <use xlink:href="#SimHei-5316" transform="translate(300 0)"/>
     </g>
    </g>
   </g>
   <g id="text_2">
    <g clip-path="url(#p2674d7b925)">
     <!-- 文化传播 -->
     <g transform="translate(270.147383 106.992422) scale(0.11 -0.11)">
      <defs>
       <path id="SimHei-64ad" d="M 5775 4600 
Q 5325 4550 4300 4475 
L 4300 3475 
L 4725 3475 
Q 4850 3800 5050 4475 
Q 5250 4350 5575 4225 
Q 5400 4000 5312 3812 
Q 5225 3625 5150 3475 
L 5400 3475 
Q 5725 3475 6100 3500 
L 6100 3075 
Q 5725 3100 5425 3100 
L 4850 3100 
Q 5325 2425 6200 2100 
Q 5975 1875 5925 1625 
Q 5600 1750 5525 1825 
L 5525 300 
Q 5525 -50 5550 -600 
L 5075 -600 
L 5075 -225 
L 3050 -225 
L 3050 -600 
L 2575 -600 
Q 2600 -100 2600 250 
L 2600 1725 
Q 2400 1600 2225 1475 
Q 2050 1725 1850 1875 
Q 2825 2375 3300 3100 
Q 2725 3100 2225 3075 
L 2225 3500 
Q 2650 3475 2850 3475 
L 3000 3475 
Q 2800 3925 2625 4100 
Q 2700 4150 3025 4325 
Q 3075 4225 3425 3725 
Q 3300 3650 3050 3475 
L 3825 3475 
L 3825 4425 
Q 3000 4400 2525 4325 
Q 2425 4600 2300 4800 
Q 3050 4775 4025 4875 
Q 5000 4975 5425 5125 
Q 5550 4825 5775 4600 
z
M 1175 4550 
Q 1175 4900 1150 5200 
L 1650 5200 
Q 1625 5000 1600 4650 
L 1600 3825 
Q 1900 3825 2125 3850 
L 2125 3400 
Q 1850 3425 1600 3425 
L 1600 2425 
L 2100 2675 
Q 2100 2475 2150 2200 
Q 1900 2100 1600 1950 
L 1600 50 
Q 1600 -350 1362 -450 
Q 1125 -550 700 -600 
Q 650 -350 475 -75 
Q 925 -75 1050 -37 
Q 1175 0 1175 275 
L 1175 1800 
Q 1000 1750 425 1400 
L 225 1900 
Q 525 2000 1175 2275 
L 1175 3425 
Q 600 3425 300 3375 
L 300 3850 
Q 750 3825 1175 3825 
L 1175 4550 
z
M 5300 1950 
Q 4750 2350 4375 3100 
L 4325 3100 
Q 4325 2550 4350 2050 
L 3825 2050 
Q 3850 2550 3850 3075 
Q 3475 2525 2825 1950 
L 5300 1950 
z
M 3850 150 
L 3850 675 
L 3050 675 
L 3050 150 
L 3850 150 
z
M 5075 150 
L 5075 675 
L 4275 675 
L 4275 150 
L 5075 150 
z
M 3850 1075 
L 3850 1575 
L 3050 1575 
L 3050 1075 
L 3850 1075 
z
M 5075 1075 
L 5075 1575 
L 4275 1575 
L 4275 1075 
L 5075 1075 
z
" transform="scale(0.015625)"/>
      </defs>
      <use xlink:href="#SimHei-6587"/>
      <use xlink:href="#SimHei-5316" transform="translate(100 0)"/>
      <use xlink:href="#SimHei-4f20" transform="translate(200 0)"/>
      <use xlink:href="#SimHei-64ad" transform="translate(300 0)"/>
     </g>
    </g>
   </g>
   <g id="text_3">
    <g clip-path="url(#p2674d7b925)">
     <!-- 文化传承 -->
     <g transform="translate(114.808258 421.625552) scale(0.11 -0.11)">
      <defs>
       <path id="SimHei-627f" d="M 4975 4850 
L 4975 4400 
Q 4800 4375 4350 4112 
Q 3900 3850 3425 3475 
L 3425 3100 
Q 3725 3100 4050 3125 
L 4050 2675 
Q 3825 2700 3425 2700 
L 3425 2175 
Q 3625 2175 4050 2200 
L 4050 1775 
Q 3600 1800 3425 1800 
L 3425 1225 
Q 3975 1225 4350 1250 
L 4350 825 
Q 3900 850 3425 850 
L 3425 125 
Q 3450 -275 3212 -425 
Q 2975 -575 2400 -650 
Q 2325 -325 2200 -125 
Q 2625 -125 2800 -62 
Q 2975 0 2975 225 
L 2975 850 
Q 2425 850 2025 825 
L 2025 1250 
Q 2425 1225 2975 1225 
L 2975 1800 
Q 2575 1800 2250 1775 
L 2250 2200 
Q 2600 2175 2975 2175 
L 2975 2700 
Q 2675 2700 2275 2675 
L 2275 3125 
Q 2650 3100 2975 3100 
Q 2975 3475 2950 3700 
Q 3300 3925 4025 4425 
L 1875 4425 
Q 1775 4425 1300 4400 
L 1300 4875 
Q 1750 4850 1850 4850 
L 4975 4850 
z
M 4600 3475 
Q 4625 2975 4675 2650 
Q 5250 3050 5600 3425 
Q 5800 3125 5975 2925 
Q 5350 2625 4775 2200 
Q 4925 1575 5312 1075 
Q 5700 575 6150 350 
Q 5825 225 5625 -75 
Q 5225 225 4925 662 
Q 4625 1100 4462 1550 
Q 4300 2000 4212 2587 
Q 4125 3175 4100 3450 
Q 4350 3450 4600 3475 
z
M 2075 3275 
Q 2025 2575 1887 1937 
Q 1750 1300 1462 775 
Q 1175 250 675 -200 
Q 500 0 225 150 
Q 825 650 1150 1325 
Q 1475 2000 1525 2850 
Q 850 2850 450 2825 
L 450 3300 
Q 850 3275 1350 3275 
L 2075 3275 
z
" transform="scale(0.015625)"/>
      </defs>
      <use xlink:href="#SimHei-6587"/>
      <use xlink:href="#SimHei-5316" transform="translate(100 0)"/>
      <use xlink:href="#SimHei-4f20" transform="translate(200 0)"/>
      <use xlink:href="#SimHei-627f" transform="translate(300 0)"/>
     </g>
    </g>
   </g>
   <g id="text_4">
    <g clip-path="url(#p2674d7b925)">
     <!-- 国际传播 -->
     <g transform="translate(122.589359 158.316492) scale(0.11 -0.11)">
      <defs>
       <path id="SimHei-56fd" d="M 5775 4975 
Q 5750 4350 5750 3575 
L 5750 900 
Q 5750 125 5775 -625 
L 5275 -625 
L 5275 -275 
L 1125 -275 
L 1125 -650 
L 625 -650 
Q 650 125 650 950 
L 650 3575 
Q 650 4325 625 4975 
L 5775 4975 
z
M 5275 100 
L 5275 4600 
L 1125 4600 
L 1125 100 
L 5275 100 
z
M 3975 3925 
Q 4350 3925 4775 3950 
L 4775 3500 
Q 4400 3525 3975 3525 
L 3350 3525 
L 3350 2700 
L 3800 2700 
Q 4250 2700 4650 2725 
L 4650 2275 
Q 4250 2300 3800 2300 
L 3350 2300 
L 3350 1175 
L 4050 1175 
Q 4500 1175 4900 1200 
L 4900 750 
Q 4525 775 4050 775 
L 2350 775 
Q 1925 775 1500 750 
L 1500 1200 
Q 1925 1175 2350 1175 
L 2900 1175 
L 2900 2300 
L 2550 2300 
Q 2125 2300 1750 2275 
L 1750 2725 
Q 2125 2700 2550 2700 
L 2900 2700 
L 2900 3525 
L 2525 3525 
Q 2075 3525 1650 3500 
L 1650 3950 
Q 2075 3925 2525 3925 
L 3975 3925 
z
M 4050 2125 
Q 4175 2000 4550 1600 
Q 4300 1450 4125 1325 
Q 4050 1425 3700 1850 
Q 3900 2000 4050 2125 
z
" transform="scale(0.015625)"/>
       <path id="SimHei-9645" d="M 2500 4900 
Q 2425 4700 2250 4100 
Q 2075 3500 1875 2900 
Q 2200 2400 2312 2050 
Q 2425 1700 2362 1412 
Q 2300 1125 2012 912 
Q 1725 700 1350 650 
Q 1225 1050 1125 1225 
Q 1675 1225 1787 1412 
Q 1900 1600 1837 1862 
Q 1775 2125 1662 2375 
Q 1550 2625 1350 2875 
Q 1475 3225 1600 3650 
Q 1725 4075 1850 4475 
L 1025 4475 
L 1025 -525 
L 500 -525 
Q 525 175 525 850 
L 525 3825 
Q 525 4375 500 4900 
L 2500 4900 
z
M 5250 3300 
Q 5650 3300 6050 3325 
L 6050 2850 
Q 5725 2875 5325 2875 
L 4500 2875 
L 4500 75 
Q 4500 -325 4225 -387 
Q 3950 -450 3475 -525 
Q 3450 -225 3275 75 
Q 3775 75 3887 100 
Q 4000 125 4000 275 
L 4000 2875 
L 3375 2875 
Q 2825 2875 2475 2850 
L 2475 3325 
Q 3025 3300 3375 3300 
L 5250 3300 
z
M 4975 4775 
Q 5375 4775 5675 4825 
L 5675 4350 
Q 5375 4375 4975 4375 
L 3650 4375 
Q 3225 4375 2900 4350 
L 2900 4825 
Q 3200 4775 3700 4775 
L 4975 4775 
z
M 2150 200 
Q 2450 700 2662 1187 
Q 2875 1675 3050 2175 
Q 3250 2100 3575 1950 
Q 3325 1500 3112 1000 
Q 2900 500 2650 -25 
Q 2450 75 2150 200 
z
M 5275 2200 
Q 5900 975 6200 350 
Q 5950 250 5675 100 
Q 5300 1025 4800 1925 
Q 4950 2000 5275 2200 
z
" transform="scale(0.015625)"/>
      </defs>
      <use xlink:href="#SimHei-56fd"/>
      <use xlink:href="#SimHei-9645" transform="translate(100 0)"/>
      <use xlink:href="#SimHei-4f20" transform="translate(200 0)"/>
      <use xlink:href="#SimHei-64ad" transform="translate(300 0)"/>
     </g>
    </g>
   </g>
   <g id="text_5">
    <g clip-path="url(#p2674d7b925)">
     <!-- 传播 -->
     <g transform="translate(170.49053 517.911286) scale(0.11 -0.11)">
      <use xlink:href="#SimHei-4f20"/>
      <use xlink:href="#SimHei-64ad" transform="translate(100 0)"/>
     </g>
    </g>
   </g>
   <g id="text_6">
    <g clip-path="url(#p2674d7b925)">
     <!-- 文化自信 -->
     <g transform="translate(419.936504 91.154794) scale(0.11 -0.11)">
      <defs>
       <path id="SimHei-81ea" d="M 3200 5075 
Q 3050 4850 2900 4225 
L 5400 4225 
Q 5375 3650 5375 3175 
L 5375 375 
Q 5375 -75 5400 -525 
L 4900 -525 
L 4900 75 
L 1550 75 
L 1550 -525 
L 1050 -525 
Q 1075 -50 1075 350 
L 1075 3200 
Q 1075 3650 1050 4225 
L 2425 4225 
Q 2525 4900 2550 5225 
Q 2850 5125 3200 5075 
z
M 4900 475 
L 4900 1375 
L 1550 1375 
L 1550 475 
L 4900 475 
z
M 4900 2975 
L 4900 3800 
L 1550 3800 
L 1550 2975 
L 4900 2975 
z
M 4900 1775 
L 4900 2575 
L 1550 2575 
L 1550 1775 
L 4900 1775 
z
" transform="scale(0.015625)"/>
       <path id="SimHei-4fe1" d="M 5650 1575 
Q 5625 1275 5625 575 
Q 5625 -100 5650 -450 
L 5175 -450 
L 5175 -25 
L 3025 -25 
L 3025 -550 
L 2525 -550 
Q 2550 -175 2550 500 
Q 2550 1200 2525 1575 
L 5650 1575 
z
M 2125 4975 
Q 1975 4825 1650 3975 
L 1650 550 
Q 1650 -200 1675 -625 
L 1125 -625 
Q 1200 -175 1200 575 
L 1200 3100 
Q 900 2500 625 2100 
Q 475 2350 250 2500 
Q 525 2800 925 3562 
Q 1325 4325 1525 5175 
Q 1800 5075 2125 4975 
z
M 5175 375 
L 5175 1225 
L 3025 1225 
L 3025 375 
L 5175 375 
z
M 6075 3900 
Q 5575 3925 4100 3925 
Q 2625 3925 2100 3900 
L 2100 4325 
L 6075 4325 
L 6075 3900 
z
M 5700 3000 
Q 5275 3025 4150 3025 
Q 3025 3025 2475 3000 
L 2475 3425 
Q 2950 3400 4100 3400 
Q 5275 3400 5700 3425 
L 5700 3000 
z
M 5700 2125 
Q 5350 2150 4175 2150 
Q 3025 2150 2475 2125 
L 2475 2550 
Q 3000 2525 4175 2525 
Q 5375 2525 5700 2550 
L 5700 2125 
z
M 4025 5200 
Q 4100 5050 4175 4875 
Q 4250 4700 4325 4500 
Q 4100 4425 3875 4375 
Q 3700 4900 3575 5025 
Q 3825 5125 4025 5200 
z
" transform="scale(0.015625)"/>
      </defs>
      <use xlink:href="#SimHei-6587"/>
      <use xlink:href="#SimHei-5316" transform="translate(100 0)"/>
      <use xlink:href="#SimHei-81ea" transform="translate(200 0)"/>
      <use xlink:href="#SimHei-4fe1" transform="translate(300 0)"/>
     </g>
    </g>
   </g>
   <g id="text_7">
    <g clip-path="url(#p2674d7b925)">
     <!-- 新媒体 -->
     <g transform="translate(48.805785 274.777084) scale(0.11 -0.11)">
      <defs>
       <path id="SimHei-65b0" d="M 6125 4650 
Q 5750 4650 4275 4500 
L 4275 3225 
L 5575 3225 
Q 5850 3225 6150 3250 
L 6150 2775 
Q 5800 2800 5550 2800 
L 5550 225 
Q 5550 -200 5575 -675 
L 5050 -675 
Q 5075 -200 5075 200 
L 5075 2800 
L 4275 2800 
Q 4275 2175 4225 1600 
Q 4175 1025 4012 462 
Q 3850 -100 3525 -700 
Q 3275 -550 3025 -450 
Q 3425 125 3587 762 
Q 3750 1400 3775 1875 
Q 3800 2350 3800 3300 
Q 3800 4275 3775 4850 
Q 4900 4900 5800 5200 
Q 6000 4800 6125 4650 
z
M 2975 3825 
Q 2800 3725 2575 3050 
Q 3000 3050 3450 3075 
L 3450 2575 
Q 3025 2600 2175 2600 
L 2175 1975 
Q 2950 1975 3400 2000 
L 3400 1500 
Q 2950 1525 2175 1525 
L 2175 0 
Q 2175 -375 1937 -500 
Q 1700 -625 1325 -625 
Q 1225 -325 1075 -75 
Q 1425 -100 1562 -75 
Q 1700 -50 1700 150 
L 1700 1525 
Q 900 1525 450 1500 
L 450 2000 
Q 925 1975 1700 1975 
L 1700 2600 
Q 775 2600 325 2575 
L 325 3075 
Q 775 3050 1175 3050 
L 2125 3050 
Q 2325 3650 2425 3975 
Q 2625 3925 2975 3825 
z
M 2125 5275 
Q 2250 4750 2275 4550 
Q 2850 4550 3350 4575 
L 3350 4075 
Q 2825 4100 2500 4100 
L 1300 4100 
Q 875 4100 475 4075 
L 475 4575 
Q 900 4550 1300 4550 
L 1750 4550 
Q 1700 4825 1600 5125 
Q 1850 5200 2125 5275 
z
M 1525 1050 
Q 1375 875 1175 612 
Q 975 350 600 -125 
Q 425 50 225 175 
Q 750 750 1050 1375 
Q 1300 1175 1525 1050 
z
M 2725 1300 
Q 3025 900 3275 475 
Q 3025 350 2875 150 
Q 2675 600 2350 1025 
Q 2525 1175 2725 1300 
z
M 1275 3950 
Q 1450 3600 1575 3250 
Q 1350 3200 1150 3100 
Q 1025 3475 875 3775 
Q 1050 3875 1275 3950 
z
" transform="scale(0.015625)"/>
       <path id="SimHei-5a92" d="M 4900 4600 
Q 4900 4925 4875 5225 
L 5350 5225 
Q 5325 4925 5325 4600 
Q 5700 4600 6025 4625 
L 6025 4200 
Q 5725 4225 5325 4225 
L 5325 3225 
Q 5325 2725 5350 2325 
L 4350 2325 
L 4350 1850 
L 5150 1850 
Q 5700 1850 6075 1875 
L 6075 1425 
Q 5700 1450 5150 1450 
L 4675 1450 
Q 4950 850 5287 625 
Q 5625 400 6150 250 
Q 5975 25 5800 -300 
Q 5175 25 4862 387 
Q 4550 750 4350 1200 
L 4350 475 
Q 4350 -150 4375 -625 
L 3875 -625 
Q 3900 -150 3900 475 
L 3900 1325 
Q 3650 750 3250 312 
Q 2850 -125 2425 -500 
Q 2250 -225 2000 0 
Q 2425 175 2837 550 
Q 3250 925 3500 1450 
L 3125 1450 
Q 2675 1450 2275 1425 
L 2275 1875 
Q 2675 1850 3125 1850 
L 3900 1850 
L 3900 2325 
L 2850 2325 
Q 2875 2800 2875 3275 
L 2875 4225 
Q 2600 4225 2250 4200 
L 2250 4625 
Q 2575 4600 2875 4600 
Q 2875 4950 2850 5225 
L 3325 5225 
Q 3300 4925 3300 4600 
L 4900 4600 
z
M 2450 3775 
Q 2325 2825 2187 2162 
Q 2050 1500 1875 1050 
Q 2200 750 2425 600 
Q 2200 425 2025 200 
Q 1825 475 1650 650 
Q 1475 325 1187 25 
Q 900 -275 600 -575 
Q 475 -325 225 -100 
Q 475 0 800 275 
Q 1125 550 1375 975 
Q 900 1425 425 1650 
Q 575 2025 700 2450 
Q 825 2875 950 3400 
Q 700 3400 350 3375 
L 350 3800 
Q 700 3775 1025 3775 
Q 1125 4275 1275 5175 
Q 1525 5100 1775 5050 
Q 1600 4450 1450 3775 
L 2450 3775 
z
M 1375 3400 
Q 1100 2325 950 1800 
Q 1400 1500 1575 1350 
Q 1725 1950 1812 2412 
Q 1900 2875 1950 3400 
L 1375 3400 
z
M 4900 3650 
L 4900 4225 
L 3300 4225 
L 3300 3650 
L 4900 3650 
z
M 4900 2725 
L 4900 3275 
L 3300 3275 
L 3300 2725 
L 4900 2725 
z
" transform="scale(0.015625)"/>
       <path id="SimHei-4f53" d="M 3650 3850 
Q 3650 4750 3625 5125 
L 4125 5125 
Q 4100 4775 4100 3850 
L 5200 3850 
Q 5700 3850 5925 3875 
L 5925 3425 
Q 5700 3450 5200 3450 
L 4525 3450 
Q 4925 1850 6200 1200 
Q 5925 1050 5775 775 
Q 4425 1800 4100 3425 
L 4100 1025 
Q 4825 1025 5050 1050 
L 5050 600 
Q 4825 625 4100 625 
Q 4100 75 4125 -575 
L 3625 -575 
Q 3650 100 3650 625 
Q 3200 625 2700 600 
L 2700 1050 
Q 3200 1025 3650 1025 
L 3650 3450 
Q 3375 1800 2000 650 
Q 1850 875 1550 1025 
Q 2850 1875 3200 3450 
L 2675 3450 
Q 2275 3450 1975 3425 
L 1975 3875 
Q 2275 3850 2675 3850 
L 3650 3850 
z
M 2000 4900 
Q 1825 4675 1525 3775 
L 1525 575 
Q 1525 -200 1550 -550 
L 1050 -550 
Q 1075 -225 1075 550 
L 1075 2900 
Q 950 2625 575 2050 
Q 450 2275 225 2425 
Q 525 2725 925 3612 
Q 1325 4500 1425 5125 
Q 1700 5000 2000 4900 
z
" transform="scale(0.015625)"/>
      </defs>
      <use xlink:href="#SimHei-65b0"/>
      <use xlink:href="#SimHei-5a92" transform="translate(100 0)"/>
      <use xlink:href="#SimHei-4f53" transform="translate(200 0)"/>
     </g>
    </g>
   </g>
   <g id="text_8">
    <g clip-path="url(#p2674d7b925)">
     <!-- 传播策略 -->
     <g transform="translate(596.694215 303.981127) scale(0.11 -0.11)">
      <defs>
       <path id="SimHei-7b56" d="M 4600 750 
Q 4525 1000 4325 1275 
Q 4625 1275 4787 1300 
Q 4950 1325 4950 1500 
L 4950 1950 
L 3425 1950 
L 3425 1575 
Q 3625 1250 3950 987 
Q 4275 725 4625 537 
Q 4975 350 5325 237 
Q 5675 125 6150 50 
Q 5850 -200 5725 -525 
Q 5375 -400 5050 -237 
Q 4725 -75 4437 100 
Q 4150 275 3887 487 
Q 3625 700 3425 950 
L 3425 275 
Q 3425 -75 3450 -675 
L 2950 -675 
Q 2975 -75 2975 275 
L 2975 1150 
Q 2700 750 2275 375 
Q 1850 0 1575 -175 
Q 1300 -350 825 -650 
Q 725 -475 350 -225 
Q 675 -100 975 50 
Q 1275 200 1650 462 
Q 2025 725 2387 1112 
Q 2750 1500 2950 1950 
L 1500 1950 
L 1500 825 
L 1000 825 
Q 1025 1325 1025 1675 
Q 1025 2025 1000 2325 
L 2975 2325 
L 2975 2825 
L 1425 2825 
Q 1000 2825 550 2800 
L 550 3250 
Q 1000 3225 1400 3225 
L 2975 3225 
Q 2975 3475 2950 3650 
L 3450 3650 
Q 3425 3450 3425 3225 
L 5175 3225 
Q 5500 3225 5925 3250 
L 5925 2800 
Q 5525 2825 5200 2825 
L 3425 2825 
L 3425 2325 
L 5425 2325 
Q 5400 2025 5400 1725 
Q 5400 1450 5375 1225 
Q 5350 1000 5137 900 
Q 4925 800 4600 750 
z
M 4525 5050 
Q 4300 4850 4200 4675 
L 5175 4675 
Q 5600 4675 6075 4700 
L 6075 4250 
Q 5600 4275 4875 4275 
Q 4950 4025 5050 3675 
Q 4775 3625 4550 3550 
Q 4500 3975 4400 4275 
L 3950 4275 
Q 3750 4000 3525 3700 
Q 3300 3850 3075 3925 
Q 3375 4225 3612 4612 
Q 3850 5000 3950 5300 
Q 4175 5150 4525 5050 
z
M 1950 5075 
Q 1700 4850 1550 4675 
L 2275 4675 
Q 2625 4675 3125 4700 
L 3125 4250 
Q 2625 4275 2200 4275 
Q 2275 4000 2375 3650 
Q 2150 3600 1925 3500 
Q 1850 3850 1750 4275 
L 1300 4275 
Q 1025 3950 650 3600 
Q 475 3750 225 3900 
Q 625 4175 925 4562 
Q 1225 4950 1425 5300 
Q 1675 5175 1950 5075 
z
" transform="scale(0.015625)"/>
       <path id="SimHei-7565" d="M 2650 4525 
Q 2625 3950 2625 3500 
L 2625 1250 
Q 2625 825 2650 225 
L 2200 225 
L 2200 550 
L 875 550 
L 875 75 
L 400 75 
Q 450 475 450 975 
L 450 3500 
Q 450 4075 400 4525 
L 2650 4525 
z
M 4250 5025 
Q 4100 4875 3950 4525 
L 5625 4525 
Q 5475 4050 5212 3575 
Q 4950 3100 4625 2750 
Q 4900 2500 5312 2362 
Q 5725 2225 6100 2175 
Q 5900 1900 5825 1675 
Q 5475 1750 5050 1937 
Q 4625 2125 4300 2425 
Q 4100 2275 3775 2050 
Q 3450 1825 2950 1600 
Q 2850 1850 2675 2050 
Q 3050 2175 3337 2312 
Q 3625 2450 4025 2775 
Q 3875 2975 3750 3200 
Q 3625 3425 3525 3625 
Q 3375 3350 3100 2950 
Q 3000 3100 2675 3250 
Q 3025 3625 3287 4187 
Q 3550 4750 3650 5250 
Q 3925 5125 4250 5025 
z
M 5500 1725 
Q 5475 1425 5475 1050 
L 5475 75 
Q 5475 -250 5500 -625 
L 5025 -625 
L 5025 -150 
L 3725 -150 
L 3725 -650 
L 3250 -650 
Q 3275 -225 3275 125 
L 3275 1025 
Q 3275 1400 3250 1725 
L 5500 1725 
z
M 5025 275 
L 5025 1325 
L 3725 1325 
L 3725 275 
L 5025 275 
z
M 4350 3075 
Q 4725 3500 5000 4150 
L 3775 4150 
Q 3975 3525 4350 3075 
z
M 1325 950 
L 1325 2375 
L 875 2375 
L 875 950 
L 1325 950 
z
M 2200 950 
L 2200 2375 
L 1750 2375 
L 1750 950 
L 2200 950 
z
M 1325 2775 
L 1325 4150 
L 875 4150 
L 875 2775 
L 1325 2775 
z
M 2200 2775 
L 2200 4150 
L 1750 4150 
L 1750 2775 
L 2200 2775 
z
" transform="scale(0.015625)"/>
      </defs>
      <use xlink:href="#SimHei-4f20"/>
      <use xlink:href="#SimHei-64ad" transform="translate(100 0)"/>
      <use xlink:href="#SimHei-7b56" transform="translate(200 0)"/>
      <use xlink:href="#SimHei-7565" transform="translate(300 0)"/>
     </g>
    </g>
   </g>
   <g id="text_9">
    <g clip-path="url(#p2674d7b925)">
     <!-- 对外传播 -->
     <g transform="translate(558.282294 433.162418) scale(0.11 -0.11)">
      <defs>
       <path id="SimHei-5bf9" d="M 525 4250 
Q 900 4225 1400 4225 
L 2825 4225 
Q 2575 2625 2200 1750 
Q 2825 875 3125 400 
Q 2950 275 2725 75 
Q 2200 975 1950 1300 
Q 1650 775 1350 425 
Q 1050 75 600 -350 
Q 425 -125 200 -25 
Q 625 275 975 675 
Q 1325 1075 1650 1700 
Q 1050 2425 550 2900 
Q 700 3025 900 3225 
Q 1625 2425 1875 2150 
Q 2200 3050 2300 3825 
L 1400 3825 
Q 900 3825 525 3800 
L 525 4250 
z
M 2925 3700 
Q 3525 3675 3750 3675 
L 4825 3675 
L 4825 4425 
Q 4825 4750 4775 5125 
L 5350 5125 
Q 5325 4825 5325 4375 
L 5325 3675 
Q 5575 3675 6150 3700 
L 6150 3250 
Q 5575 3275 5325 3275 
L 5325 125 
Q 5350 -350 5012 -475 
Q 4675 -600 4250 -650 
Q 4175 -350 4025 -100 
Q 4575 -100 4712 -37 
Q 4850 25 4825 325 
L 4825 3275 
L 3775 3275 
Q 3550 3275 2925 3225 
L 2925 3700 
z
M 3450 2725 
Q 3875 1975 4175 1325 
Q 3850 1200 3700 1075 
Q 3475 1750 3050 2475 
Q 3225 2550 3450 2725 
z
" transform="scale(0.015625)"/>
       <path id="SimHei-5916" d="M 2150 4875 
Q 2000 4650 1912 4425 
Q 1825 4200 1725 3975 
L 3275 3975 
Q 3150 3075 2937 2450 
Q 2725 1825 2412 1350 
Q 2100 875 1675 437 
Q 1250 0 650 -375 
Q 475 -100 200 0 
Q 775 250 1275 712 
Q 1775 1175 2000 1600 
Q 1675 1950 1150 2325 
Q 1325 2475 1475 2675 
Q 1975 2275 2250 2050 
Q 2425 2400 2525 2775 
Q 2625 3150 2700 3550 
L 1575 3550 
Q 1425 3225 1187 2825 
Q 950 2425 575 2025 
Q 450 2200 200 2375 
Q 625 2775 862 3187 
Q 1100 3600 1250 4025 
Q 1400 4450 1550 5075 
Q 1825 4950 2150 4875 
z
M 4225 5125 
Q 4200 4725 4200 4325 
L 4200 475 
Q 4200 0 4225 -500 
L 3675 -500 
Q 3700 0 3700 475 
L 3700 4325 
Q 3700 4725 3675 5125 
L 4225 5125 
z
M 4675 3450 
Q 4900 3200 5337 2687 
Q 5775 2175 6075 1725 
Q 5825 1575 5650 1400 
Q 5425 1800 5025 2300 
Q 4625 2800 4300 3150 
Q 4450 3300 4675 3450 
z
" transform="scale(0.015625)"/>
      </defs>
      <use xlink:href="#SimHei-5bf9"/>
      <use xlink:href="#SimHei-5916" transform="translate(100 0)"/>
      <use xlink:href="#SimHei-4f20" transform="translate(200 0)"/>
      <use xlink:href="#SimHei-64ad" transform="translate(300 0)"/>
     </g>
    </g>
   </g>
   <g id="text_10">
    <g clip-path="url(#p2674d7b925)">
     <!-- 茶文化 -->
     <g transform="translate(559.689465 175.221248) scale(0.11 -0.11)">
      <defs>
       <path id="SimHei-8336" d="M 2425 5175 
Q 2400 4875 2400 4550 
L 3950 4550 
Q 3950 4900 3925 5175 
L 4450 5175 
Q 4400 4900 4400 4550 
L 5350 4550 
Q 5525 4550 5925 4575 
L 5925 4100 
Q 5525 4125 5300 4125 
L 4400 4125 
Q 4400 3875 4450 3575 
L 3950 3575 
L 3950 4125 
L 2400 4125 
L 2400 3550 
L 1900 3550 
Q 1925 3875 1925 4125 
L 1175 4125 
Q 1000 4125 550 4100 
L 550 4575 
Q 1050 4550 1175 4550 
L 1925 4550 
Q 1925 4850 1900 5175 
L 2425 5175 
z
M 3425 3525 
Q 4125 2950 4837 2625 
Q 5550 2300 6200 2175 
Q 5925 1975 5850 1625 
Q 5175 1875 4500 2225 
Q 3825 2575 3175 3225 
Q 2775 2800 2062 2350 
Q 1350 1900 550 1575 
Q 450 1825 225 2050 
Q 650 2125 1212 2387 
Q 1775 2650 2287 3062 
Q 2800 3475 3100 4000 
Q 3350 3825 3600 3700 
L 3425 3525 
z
M 1450 1825 
Q 1750 1800 2000 1800 
L 2975 1800 
Q 2975 2275 2950 2600 
L 3475 2600 
Q 3450 2050 3450 1800 
L 4350 1800 
Q 4725 1800 5000 1825 
L 5000 1350 
Q 4750 1375 4350 1375 
L 3450 1375 
L 3450 125 
Q 3450 -325 3237 -425 
Q 3025 -525 2450 -600 
Q 2400 -325 2225 0 
Q 2525 -25 2750 -12 
Q 2975 0 2975 300 
L 2975 1375 
L 1975 1375 
Q 1675 1375 1450 1350 
L 1450 1825 
z
M 2400 650 
Q 2125 500 1650 175 
Q 1175 -150 825 -400 
Q 700 -175 500 25 
Q 850 225 1237 487 
Q 1625 750 2050 1100 
L 2400 650 
z
M 4375 1050 
Q 5100 550 5800 0 
Q 5525 -175 5400 -425 
Q 4750 200 4050 625 
Q 4225 800 4375 1050 
z
" transform="scale(0.015625)"/>
      </defs>
      <use xlink:href="#SimHei-8336"/>
      <use xlink:href="#SimHei-6587" transform="translate(100 0)"/>
      <use xlink:href="#SimHei-5316" transform="translate(200 0)"/>
     </g>
    </g>
   </g>
   <g id="text_11">
    <g clip-path="url(#p2674d7b925)">
     <!-- 传承 -->
     <g transform="translate(317.08342 549.315128) scale(0.11 -0.11)">
      <use xlink:href="#SimHei-4f20"/>
      <use xlink:href="#SimHei-627f" transform="translate(100 0)"/>
     </g>
    </g>
   </g>
   <g id="text_12">
    <!-- 传统文化传播研究关键词共现知识图谱 -->
    <g transform="translate(214.5 19.328906) scale(0.15 -0.15)">
     <defs>
      <path id="SimHei-7814" d="M 5125 5025 
Q 5600 5025 5900 5050 
L 5900 4600 
Q 5550 4625 5275 4625 
L 5275 2775 
Q 5775 2775 6100 2800 
L 6100 2300 
Q 5750 2325 5275 2325 
L 5275 325 
Q 5275 -100 5300 -675 
L 4800 -675 
Q 4825 150 4825 450 
L 4825 2325 
L 3975 2325 
Q 3925 1325 3700 687 
Q 3475 50 2850 -625 
Q 2625 -375 2375 -275 
Q 2950 150 3212 812 
Q 3475 1475 3525 2325 
Q 3250 2325 2825 2300 
L 2825 2800 
Q 3250 2775 3525 2775 
L 3525 4625 
Q 3100 4625 2900 4600 
L 2900 5050 
Q 3250 5025 3625 5025 
L 5125 5025 
z
M 1950 4875 
Q 2325 4875 2575 4900 
L 2575 4450 
Q 2325 4475 1950 4475 
L 1750 4475 
Q 1600 3800 1375 3175 
L 2550 3175 
Q 2525 2750 2525 2375 
L 2525 1225 
Q 2525 825 2550 250 
L 2075 250 
L 2075 750 
L 1375 750 
L 1375 -250 
L 900 -250 
Q 925 500 925 950 
L 925 2425 
Q 775 2200 500 1875 
Q 375 2100 175 2300 
Q 500 2600 687 2875 
Q 875 3150 1037 3562 
Q 1200 3975 1275 4475 
Q 775 4475 500 4450 
L 500 4900 
Q 1050 4875 1350 4875 
L 1950 4875 
z
M 4825 2775 
L 4825 4625 
L 3975 4625 
L 3975 2775 
L 4825 2775 
z
M 2075 1200 
L 2075 2775 
L 1375 2775 
L 1375 1200 
L 2075 1200 
z
" transform="scale(0.015625)"/>
      <path id="SimHei-7a76" d="M 4625 350 
Q 4625 25 4787 0 
Q 4950 -25 5187 -12 
Q 5425 0 5500 125 
Q 5575 250 5600 700 
Q 5850 400 6175 400 
Q 6000 -250 5812 -337 
Q 5625 -425 4975 -437 
Q 4325 -450 4200 -262 
Q 4075 -75 4075 250 
L 4075 1600 
L 3000 1600 
Q 2875 1000 2662 675 
Q 2450 350 2162 100 
Q 1875 -150 1500 -325 
Q 1125 -500 625 -675 
Q 525 -400 225 -100 
Q 800 -25 1175 112 
Q 1550 250 1825 475 
Q 2100 700 2237 987 
Q 2375 1275 2450 1600 
L 1525 1600 
Q 1125 1600 825 1575 
L 825 2025 
Q 1275 2000 1525 2000 
L 2500 2000 
Q 2525 2425 2475 2825 
Q 2825 2775 3125 2750 
Q 3050 2575 3050 2400 
Q 3050 2225 3025 2000 
L 4650 2000 
Q 4625 1725 4625 1450 
L 4625 350 
z
M 5875 4425 
Q 5850 4175 5850 3925 
Q 5850 3675 5875 3400 
L 5300 3400 
L 5300 4025 
L 975 4025 
L 975 3275 
L 425 3275 
Q 450 3575 450 3850 
Q 450 4150 425 4425 
L 2925 4425 
Q 2825 4775 2650 5125 
Q 2950 5200 3200 5275 
Q 3325 4950 3475 4550 
Q 3250 4500 3025 4425 
L 5875 4425 
z
M 3975 3650 
Q 4175 3550 4637 3312 
Q 5100 3075 5850 2625 
Q 5700 2450 5450 2200 
Q 4950 2575 4512 2812 
Q 4075 3050 3650 3275 
Q 3825 3475 3975 3650 
z
M 2650 3275 
Q 2400 3125 1925 2800 
Q 1450 2475 875 2175 
Q 675 2400 500 2600 
Q 875 2725 1362 3012 
Q 1850 3300 2200 3625 
Q 2400 3450 2650 3275 
z
" transform="scale(0.015625)"/>
      <path id="SimHei-5173" d="M 4675 4850 
Q 4525 4675 4362 4375 
Q 4200 4075 4075 3825 
L 4625 3825 
Q 5150 3825 5550 3850 
L 5550 3375 
Q 5225 3400 4700 3400 
L 3400 3400 
L 3400 2150 
L 4975 2150 
Q 5475 2150 5875 2175 
L 5875 1700 
Q 5475 1725 5025 1725 
L 3500 1725 
Q 4250 450 6000 75 
Q 5775 -175 5600 -525 
Q 4025 0 3225 1300 
Q 2800 200 875 -600 
Q 775 -350 500 -150 
Q 2425 375 2875 1725 
L 1550 1725 
Q 975 1725 600 1700 
L 600 2150 
Q 875 2125 1450 2125 
L 2925 2125 
L 2925 3400 
L 1750 3400 
Q 1275 3400 900 3375 
L 900 3850 
Q 1275 3825 1775 3825 
L 3575 3825 
Q 3925 4625 4075 5150 
Q 4325 5000 4675 4850 
z
M 2125 5125 
Q 2450 4725 2800 4175 
Q 2500 4025 2325 3875 
Q 2025 4450 1725 4825 
Q 1950 4975 2125 5125 
z
" transform="scale(0.015625)"/>
      <path id="SimHei-952e" d="M 5675 3750 
Q 5825 3750 6075 3775 
L 6075 3325 
Q 5825 3350 5675 3350 
Q 5675 2650 5700 2450 
L 4700 2450 
L 4700 1975 
L 5200 1975 
Q 5400 1975 5650 2000 
L 5650 1575 
Q 5550 1600 5225 1600 
L 4700 1600 
L 4700 1075 
L 5375 1075 
Q 5575 1100 5825 1100 
L 5825 675 
Q 5550 700 5350 700 
L 4700 700 
L 4700 -50 
Q 5425 -100 6150 0 
Q 6025 -225 6000 -500 
Q 5125 -525 4562 -462 
Q 4000 -400 3637 -300 
Q 3275 -200 2875 175 
Q 2650 -250 2225 -625 
Q 2025 -425 1850 -275 
Q 2275 -25 2575 450 
Q 2250 950 2125 1700 
Q 2350 1750 2550 1800 
Q 2600 1325 2750 925 
Q 2900 1650 2925 2400 
Q 2500 2400 2250 2275 
Q 2150 2500 2075 2675 
Q 2300 2775 2462 3212 
Q 2625 3650 2750 4200 
Q 2475 4200 2125 4175 
L 2125 4625 
Q 2450 4600 2675 4600 
L 3300 4600 
Q 3225 4300 3075 3837 
Q 2925 3375 2750 2775 
L 3375 2775 
Q 3325 2275 3275 1725 
Q 3225 1175 3025 525 
Q 3375 225 3650 137 
Q 3925 50 4275 -25 
L 4275 700 
Q 3875 700 3425 675 
L 3425 1100 
Q 3925 1075 4275 1075 
L 4275 1600 
Q 3950 1600 3550 1575 
L 3550 2000 
Q 3950 1975 4275 1975 
L 4275 2450 
Q 3900 2450 3650 2400 
L 3650 2850 
Q 3950 2825 4275 2825 
L 4275 3375 
L 3725 3375 
Q 3525 3375 3350 3350 
L 3350 3775 
Q 3550 3750 3725 3750 
L 4275 3750 
L 4275 4250 
Q 4000 4250 3625 4225 
L 3625 4650 
Q 3950 4625 4300 4625 
Q 4300 5025 4275 5200 
L 4725 5200 
Q 4700 5000 4700 4625 
L 5725 4625 
Q 5675 4375 5675 3750 
z
M 2200 600 
Q 1925 400 1662 162 
Q 1400 -75 1125 -375 
Q 975 -200 775 0 
Q 975 200 1000 400 
L 1000 1625 
Q 825 1625 450 1600 
L 450 2025 
Q 800 2000 1000 2000 
L 1000 2800 
Q 875 2800 700 2775 
L 700 3200 
Q 1025 3175 1325 3175 
Q 1650 3175 2050 3225 
L 2050 2800 
Q 1625 2825 1400 2825 
L 1400 2025 
Q 1700 2025 1975 2050 
L 1975 1625 
Q 1650 1650 1400 1650 
L 1400 525 
Q 1750 800 1900 1000 
Q 1975 850 2200 600 
z
M 1025 3875 
Q 825 3575 500 3175 
Q 350 3350 175 3525 
Q 400 3700 675 4162 
Q 950 4625 1150 5200 
Q 1300 5125 1650 4975 
Q 1450 4650 1250 4275 
Q 1675 4275 2000 4300 
L 2000 3850 
Q 1625 3875 1025 3875 
z
M 5250 2825 
L 5250 3375 
L 4700 3375 
L 4700 2825 
L 5250 2825 
z
M 5250 3750 
L 5250 4250 
L 4700 4250 
L 4700 3750 
L 5250 3750 
z
" transform="scale(0.015625)"/>
      <path id="SimHei-8bcd" d="M 5975 4875 
Q 5950 4550 5950 3925 
L 5950 100 
Q 5950 -300 5637 -437 
Q 5325 -575 4875 -625 
Q 4825 -400 4625 -100 
Q 5150 -100 5312 -25 
Q 5475 50 5475 375 
L 5475 4475 
L 3400 4475 
Q 2825 4475 2450 4450 
L 2450 4900 
Q 2775 4875 3425 4875 
L 5975 4875 
z
M 4625 2750 
Q 4600 2550 4600 2075 
L 4600 1600 
Q 4600 1000 4625 475 
L 4175 475 
L 4175 825 
L 3175 825 
L 3175 375 
L 2725 375 
Q 2750 800 2750 1450 
L 2750 2050 
Q 2750 2425 2725 2750 
L 4625 2750 
z
M 1650 3350 
Q 1625 2850 1625 2300 
L 1625 600 
Q 1875 800 2250 1175 
Q 2325 975 2500 775 
Q 2100 450 1825 175 
Q 1550 -100 1250 -425 
Q 1075 -175 925 0 
Q 1050 150 1100 275 
Q 1150 400 1150 625 
L 1150 2950 
L 900 2950 
Q 825 2950 325 2925 
L 325 3375 
Q 675 3350 900 3350 
L 1650 3350 
z
M 4175 1225 
L 4175 2375 
L 3175 2375 
L 3175 1225 
L 4175 1225 
z
M 4450 3800 
Q 4700 3800 5025 3825 
L 5025 3375 
Q 4750 3400 4300 3400 
L 3200 3400 
Q 2925 3400 2450 3375 
L 2450 3825 
Q 2925 3800 3250 3800 
L 4450 3800 
z
M 1250 5250 
Q 1700 4550 1850 4275 
Q 1625 4150 1425 3975 
Q 1050 4725 850 4975 
Q 1075 5100 1250 5250 
z
" transform="scale(0.015625)"/>
      <path id="SimHei-5171" d="M 2025 3700 
Q 2025 4700 2000 5000 
L 2600 5000 
Q 2550 4700 2550 3700 
L 3925 3700 
Q 3925 4725 3900 5025 
L 4500 5025 
Q 4450 4725 4450 3700 
L 4950 3700 
Q 5400 3700 5725 3725 
L 5725 3275 
Q 5400 3300 4950 3300 
L 4450 3300 
L 4450 1850 
L 5300 1850 
Q 5750 1850 6050 1875 
L 6050 1425 
Q 5775 1450 5325 1450 
L 1075 1450 
Q 600 1450 325 1425 
L 325 1875 
Q 600 1850 1075 1850 
L 2025 1850 
L 2025 3300 
L 1600 3300 
Q 1000 3300 700 3275 
L 700 3725 
Q 1025 3700 1625 3700 
L 2025 3700 
z
M 3925 1850 
L 3925 3300 
L 2550 3300 
L 2550 1850 
L 3925 1850 
z
M 2875 725 
Q 2525 550 1962 137 
Q 1400 -275 850 -525 
Q 675 -275 450 -100 
Q 975 125 1437 412 
Q 1900 700 2325 1125 
Q 2600 900 2875 725 
z
M 4050 1125 
Q 4350 950 4925 600 
Q 5500 250 5925 -100 
Q 5700 -275 5525 -500 
Q 5100 -175 4587 162 
Q 4075 500 3675 700 
Q 3875 900 4050 1125 
z
" transform="scale(0.015625)"/>
      <path id="SimHei-73b0" d="M 4650 3850 
Q 4550 3575 4512 2975 
Q 4475 2375 4350 1700 
L 4850 1700 
Q 4825 1450 4825 1025 
L 4825 225 
Q 4825 -150 4962 -175 
Q 5100 -200 5275 -187 
Q 5450 -175 5525 -12 
Q 5600 150 5625 575 
Q 5875 425 6175 375 
Q 6050 -150 5925 -337 
Q 5800 -525 5400 -575 
L 4900 -575 
Q 4350 -575 4350 -100 
L 4350 1650 
Q 4125 850 3700 312 
Q 3275 -225 2425 -675 
Q 2300 -475 2000 -325 
Q 2800 0 3175 387 
Q 3550 775 3775 1375 
Q 4000 1975 4037 2625 
Q 4075 3275 4050 3925 
Q 4375 3875 4650 3850 
z
M 1850 4625 
Q 2125 4625 2525 4650 
L 2525 4175 
Q 2125 4200 1675 4200 
L 1675 2825 
Q 2025 2825 2425 2850 
L 2425 2375 
Q 2025 2400 1675 2400 
L 1675 875 
Q 2100 975 2550 1125 
Q 2525 850 2525 650 
Q 1700 450 1200 275 
Q 700 100 450 -25 
Q 375 325 250 575 
Q 650 625 1225 750 
L 1225 2400 
Q 825 2400 450 2375 
L 450 2850 
Q 825 2825 1225 2825 
L 1225 4200 
Q 775 4200 425 4175 
L 425 4650 
Q 725 4625 1000 4625 
L 1850 4625 
z
M 5750 4875 
Q 5725 4475 5725 4075 
L 5725 2400 
Q 5725 1925 5750 1575 
L 5275 1575 
L 5275 4475 
L 3375 4475 
L 3375 1550 
L 2900 1550 
Q 2925 1975 2925 2500 
L 2925 3875 
Q 2925 4425 2900 4875 
L 5750 4875 
z
" transform="scale(0.015625)"/>
      <path id="SimHei-77e5" d="M 5925 4350 
Q 5900 3850 5900 3450 
L 5900 850 
Q 5900 375 5925 -125 
L 5400 -125 
L 5400 550 
L 4075 550 
L 4075 -225 
L 3550 -225 
Q 3575 250 3575 775 
L 3575 3450 
Q 3575 3850 3550 4350 
L 5925 4350 
z
M 500 -275 
Q 825 0 1087 387 
Q 1350 775 1525 1187 
Q 1700 1600 1750 2000 
Q 825 2000 425 1975 
L 425 2450 
Q 800 2425 1825 2425 
Q 1900 2950 1900 3700 
L 1325 3700 
Q 1200 3350 950 2875 
Q 675 2950 450 3000 
Q 625 3250 800 3662 
Q 975 4075 1087 4462 
Q 1200 4850 1250 5150 
Q 1500 5075 1825 5025 
Q 1700 4850 1625 4625 
Q 1550 4400 1450 4125 
Q 2875 4125 3225 4150 
L 3225 3700 
L 2375 3700 
Q 2375 3150 2325 2425 
Q 2925 2425 3375 2450 
L 3375 1975 
Q 2925 2000 2250 2000 
Q 2225 1725 2150 1475 
Q 2375 1300 2650 1087 
Q 2925 875 3350 375 
Q 3175 300 2950 25 
Q 2725 400 2487 637 
Q 2250 875 2000 1075 
Q 1850 675 1537 225 
Q 1225 -225 900 -575 
Q 775 -425 500 -275 
z
M 5400 950 
L 5400 3950 
L 4075 3950 
L 4075 950 
L 5400 950 
z
" transform="scale(0.015625)"/>
      <path id="SimHei-8bc6" d="M 5575 4875 
Q 5550 4375 5550 3325 
Q 5550 2300 5575 1850 
L 2600 1850 
Q 2625 2275 2625 3325 
Q 2625 4375 2600 4875 
L 5575 4875 
z
M 5025 2275 
L 5025 4400 
L 3150 4400 
L 3150 2275 
L 5025 2275 
z
M 1650 3350 
Q 1625 2900 1625 2300 
L 1625 850 
Q 1875 1100 2175 1475 
Q 2275 1225 2450 950 
Q 2075 600 1812 300 
Q 1550 0 1275 -350 
Q 1100 -75 850 100 
Q 1125 325 1125 600 
L 1125 2925 
Q 575 2925 250 2900 
L 250 3375 
Q 550 3350 925 3350 
L 1650 3350 
z
M 4825 1425 
Q 5775 350 6125 -150 
Q 5850 -350 5650 -550 
Q 5150 200 4425 1050 
Q 4625 1175 4825 1425 
z
M 3750 1075 
Q 3500 775 3150 300 
Q 2800 -175 2375 -650 
Q 2250 -500 1975 -300 
Q 2950 725 3250 1400 
Q 3500 1225 3750 1075 
z
M 1275 5275 
Q 1850 4625 2050 4300 
Q 1825 4150 1625 3925 
Q 1150 4650 875 4950 
Q 1075 5075 1275 5275 
z
" transform="scale(0.015625)"/>
      <path id="SimHei-56fe" d="M 5800 4975 
Q 5775 4350 5775 3600 
L 5775 925 
Q 5775 150 5800 -600 
L 5300 -600 
L 5300 -275 
L 1125 -275 
L 1125 -650 
L 625 -650 
Q 650 125 650 950 
L 650 3600 
Q 650 4325 625 4975 
L 5800 4975 
z
M 5300 150 
L 5300 4575 
L 1125 4575 
L 1125 150 
L 5300 150 
z
M 3225 4250 
Q 3075 4100 2950 3925 
L 4625 3925 
Q 4525 3700 4300 3375 
Q 4075 3050 3600 2600 
Q 4350 2225 5075 2150 
Q 4900 1925 4775 1675 
Q 3850 1950 3225 2350 
Q 2500 1875 1675 1650 
Q 1600 1875 1400 2075 
Q 2200 2200 2875 2600 
Q 2525 2925 2375 3150 
Q 2150 2900 1900 2650 
Q 1725 2850 1525 2950 
Q 1950 3300 2250 3737 
Q 2550 4175 2675 4475 
Q 2925 4350 3225 4250 
z
M 2450 1275 
Q 3550 950 4100 725 
Q 3975 525 3850 300 
Q 2825 725 2275 850 
Q 2375 1050 2450 1275 
z
M 2925 2050 
Q 3775 1700 4075 1600 
Q 3950 1400 3850 1150 
Q 3000 1550 2700 1650 
Q 2825 1825 2925 2050 
z
M 2625 3450 
Q 3000 3025 3275 2850 
Q 3600 3100 3875 3525 
L 2675 3525 
L 2625 3450 
z
" transform="scale(0.015625)"/>
      <path id="SimHei-8c31" d="M 5600 1850 
Q 5575 1375 5575 575 
Q 5575 -225 5600 -700 
L 5100 -700 
L 5100 -300 
L 3100 -300 
L 3100 -675 
L 2600 -675 
Q 2625 -125 2625 625 
Q 2625 1375 2600 1850 
L 5600 1850 
z
M 4350 4350 
Q 4625 4900 4725 5275 
Q 4975 5150 5275 5050 
Q 5075 4875 4825 4350 
Q 5650 4350 6050 4375 
L 6050 3975 
Q 5725 4000 4800 4000 
L 4800 2700 
Q 5575 2700 6175 2725 
L 6175 2325 
Q 5750 2350 5375 2350 
L 2750 2350 
Q 2275 2350 1875 2325 
L 1875 2725 
Q 2275 2700 3300 2700 
L 3300 4000 
Q 2475 4000 2100 3975 
L 2100 4375 
Q 2575 4350 3275 4350 
Q 3175 4550 2825 4950 
Q 3025 5100 3175 5250 
Q 3550 4825 3725 4600 
Q 3575 4475 3450 4350 
L 4350 4350 
z
M 2250 575 
Q 2025 400 1700 87 
Q 1375 -225 1175 -475 
Q 1050 -225 800 -100 
Q 1000 50 1000 275 
L 1000 2725 
Q 550 2725 225 2700 
L 225 3150 
Q 525 3125 725 3125 
L 1475 3125 
Q 1450 2725 1450 2350 
L 1450 450 
Q 1675 650 1950 1025 
Q 2025 850 2250 575 
z
M 5100 950 
L 5100 1475 
L 3100 1475 
L 3100 950 
L 5100 950 
z
M 5100 50 
L 5100 575 
L 3100 575 
L 3100 50 
L 5100 50 
z
M 4350 2700 
L 4350 4000 
L 3750 4000 
L 3750 2700 
L 4350 2700 
z
M 925 4975 
Q 1175 4700 1725 4150 
Q 1475 4000 1275 3800 
Q 900 4300 550 4650 
Q 700 4775 925 4975 
z
M 5850 3675 
Q 5525 3075 5375 2825 
Q 5175 2975 5000 3000 
Q 5250 3450 5375 3850 
Q 5625 3725 5850 3675 
z
M 2250 3600 
Q 2450 3675 2625 3800 
Q 2900 3425 3100 3100 
Q 2850 3000 2650 2875 
Q 2525 3225 2250 3600 
z
" transform="scale(0.015625)"/>
     </defs>
     <use xlink:href="#SimHei-4f20"/>
     <use xlink:href="#SimHei-7edf" transform="translate(100 0)"/>
     <use xlink:href="#SimHei-6587" transform="translate(200 0)"/>
     <use xlink:href="#SimHei-5316" transform="translate(300 0)"/>
     <use xlink:href="#SimHei-4f20" transform="translate(400 0)"/>
     <use xlink:href="#SimHei-64ad" transform="translate(500 0)"/>
     <use xlink:href="#SimHei-7814" transform="translate(600 0)"/>
     <use xlink:href="#SimHei-7a76" transform="translate(700 0)"/>
     <use xlink:href="#SimHei-5173" transform="translate(800 0)"/>
     <use xlink:href="#SimHei-952e" transform="translate(900 0)"/>
     <use xlink:href="#SimHei-8bcd" transform="translate(1000 0)"/>
     <use xlink:href="#SimHei-5171" transform="translate(1100 0)"/>
     <use xlink:href="#SimHei-73b0" transform="translate(1200 0)"/>
     <use xlink:href="#SimHei-77e5" transform="translate(1300 0)"/>
     <use xlink:href="#SimHei-8bc6" transform="translate(1400 0)"/>
     <use xlink:href="#SimHei-56fe" transform="translate(1500 0)"/>
     <use xlink:href="#SimHei-8c31" transform="translate(1600 0)"/>
    </g>
   </g>
  </g>
 </g>
 <defs>
  <clipPath id="p2674d7b925">
   <rect x="7.2" y="39.328906" width="669.6" height="554.4"/>
  </clipPath>
 </defs>
</svg>
