<?xml version="1.0" encoding="utf-8" standalone="no"?>
<!DOCTYPE svg PUBLIC "-//W3C//DTD SVG 1.1//EN"
  "http://www.w3.org/Graphics/SVG/1.1/DTD/svg11.dtd">
<svg xmlns:xlink="http://www.w3.org/1999/xlink" width="609.509375pt" height="410.590781pt" viewBox="0 0 609.509375 410.590781" xmlns="http://www.w3.org/2000/svg" version="1.1">
 <metadata>
  <rdf:RDF xmlns:dc="http://purl.org/dc/elements/1.1/" xmlns:cc="http://creativecommons.org/ns#" xmlns:rdf="http://www.w3.org/1999/02/22-rdf-syntax-ns#">
   <cc:Work>
    <dc:type rdf:resource="http://purl.org/dc/dcmitype/StillImage"/>
    <dc:date>2026-04-21T11:23:43.682843</dc:date>
    <dc:format>image/svg+xml</dc:format>
    <dc:creator>
     <cc:Agent>
      <dc:title>Matplotlib v3.10.8, https://matplotlib.org/</dc:title>
     </cc:Agent>
    </dc:creator>
   </cc:Work>
  </rdf:RDF>
 </metadata>
 <defs>
  <style type="text/css">*{stroke-linejoin: round; stroke-linecap: butt}</style>
 </defs>
 <g id="figure_1">
  <g id="patch_1">
   <path d="M 0 410.590781 
L 609.509375 410.590781 
L 609.509375 0 
L 0 0 
z
" style="fill: #ffffff"/>
  </g>
  <g id="axes_1">
   <g id="patch_2">
    <path d="M 44.309375 371.968906 
L 602.309375 371.968906 
L 602.309375 39.328906 
L 44.309375 39.328906 
z
" style="fill: #ffffff"/>
   </g>
   <g id="patch_3">
    <path d="M 69.673011 371.968906 
L 176.46727 371.968906 
L 176.46727 80.512906 
L 69.673011 80.512906 
z
" clip-path="url(#p36d6d5b4e3)" style="fill: #808080; stroke: #000000; stroke-linejoin: miter"/>
   </g>
   <g id="patch_4">
    <path d="M 203.165834 371.968906 
L 309.960093 371.968906 
L 309.960093 102.688906 
L 203.165834 102.688906 
z
" clip-path="url(#p36d6d5b4e3)" style="fill: #808080; stroke: #000000; stroke-linejoin: miter"/>
   </g>
   <g id="patch_5">
    <path d="M 336.658657 371.968906 
L 443.452916 371.968906 
L 443.452916 172.384906 
L 336.658657 172.384906 
z
" clip-path="url(#p36d6d5b4e3)" style="fill: #808080; stroke: #000000; stroke-linejoin: miter"/>
   </g>
   <g id="patch_6">
    <path d="M 470.15148 371.968906 
L 576.945739 371.968906 
L 576.945739 242.080906 
L 470.15148 242.080906 
z
" clip-path="url(#p36d6d5b4e3)" style="fill: #808080; stroke: #000000; stroke-linejoin: miter"/>
   </g>
   <g id="matplotlib.axis_1">
    <g id="xtick_1">
     <g id="line2d_1">
      <defs>
       <path id="mfd1521e6e8" d="M 0 0 
L 0 3.5 
" style="stroke: #000000; stroke-width: 0.8"/>
      </defs>
      <g>
       <use xlink:href="#mfd1521e6e8" x="123.070141" y="371.968906" style="stroke: #000000; stroke-width: 0.8"/>
      </g>
     </g>
     <g id="text_1">
      <!-- 抖音 -->
      <g transform="translate(113.070141 386.937656) scale(0.1 -0.1)">
       <defs>
        <path id="SimHei-6296" d="M 2625 2575 
Q 2600 2350 2675 2125 
Q 2425 2025 1875 1850 
L 1875 150 
Q 1900 -150 1687 -312 
Q 1475 -475 875 -600 
Q 800 -350 650 -50 
Q 1050 -25 1212 25 
Q 1375 75 1375 300 
L 1375 1700 
Q 1150 1625 450 1325 
Q 400 1500 250 1900 
Q 1050 2050 1375 2175 
L 1375 3375 
Q 925 3375 425 3350 
L 425 3825 
Q 925 3800 1375 3800 
Q 1375 4525 1350 5125 
L 1925 5125 
Q 1875 4625 1875 3800 
Q 2200 3800 2775 3825 
L 2775 3350 
Q 2225 3375 1875 3375 
L 1875 2300 
Q 2100 2375 2625 2575 
z
M 2475 1100 
Q 2800 1125 4675 1400 
L 4675 4450 
Q 4675 4925 4650 5225 
L 5200 5225 
Q 5175 4950 5175 4475 
L 5175 1475 
Q 5775 1575 6125 1650 
L 6150 1200 
Q 5825 1150 5175 1025 
Q 5175 175 5200 -625 
L 4650 -625 
Q 4675 -25 4675 950 
Q 4275 900 2625 575 
L 2475 1100 
z
M 3575 4750 
Q 3675 4600 4250 3800 
Q 4125 3750 3775 3475 
Q 3650 3725 3150 4450 
Q 3375 4575 3575 4750 
z
M 3425 3025 
Q 3925 2400 4100 2175 
Q 3900 2025 3675 1825 
Q 3550 2050 3025 2675 
Q 3200 2825 3425 3025 
z
" transform="scale(0.015625)"/>
        <path id="SimHei-97f3" d="M 5100 2100 
Q 5075 1725 5075 1350 
L 5075 375 
Q 5075 -125 5100 -600 
L 4550 -600 
L 4550 -250 
L 1825 -250 
L 1825 -625 
L 1300 -625 
Q 1325 -100 1325 500 
L 1325 1350 
Q 1325 1675 1300 2100 
L 5100 2100 
z
M 4150 4050 
Q 4475 3900 4725 3825 
Q 4550 3550 4462 3387 
Q 4375 3225 4250 2975 
L 5050 2975 
Q 5550 2975 6000 3000 
L 6000 2575 
Q 5550 2600 5050 2600 
L 1375 2600 
Q 875 2600 425 2575 
L 425 3000 
Q 900 2975 1375 2975 
L 2100 2975 
Q 1900 3500 1650 3825 
Q 1875 3950 2075 4075 
Q 2400 3575 2625 3200 
Q 2450 3100 2250 2975 
L 3750 2975 
Q 4050 3650 4150 4050 
z
M 3250 5275 
Q 3425 4825 3475 4525 
L 4750 4525 
Q 5100 4525 5575 4550 
L 5575 4125 
Q 5075 4150 4750 4150 
L 1625 4150 
Q 1150 4150 700 4125 
L 700 4550 
Q 1150 4525 1625 4525 
L 2900 4525 
Q 2875 4825 2700 5150 
Q 2975 5200 3250 5275 
z
M 4550 125 
L 4550 725 
L 1825 725 
L 1825 125 
L 4550 125 
z
M 4550 1100 
L 4550 1700 
L 1825 1700 
L 1825 1100 
L 4550 1100 
z
" transform="scale(0.015625)"/>
       </defs>
       <use xlink:href="#SimHei-6296"/>
       <use xlink:href="#SimHei-97f3" transform="translate(100 0)"/>
      </g>
     </g>
    </g>
    <g id="xtick_2">
     <g id="line2d_2">
      <g>
       <use xlink:href="#mfd1521e6e8" x="256.562964" y="371.968906" style="stroke: #000000; stroke-width: 0.8"/>
      </g>
     </g>
     <g id="text_2">
      <!-- B站 -->
      <g transform="translate(249.062964 386.820469) scale(0.1 -0.1)">
       <defs>
        <path id="SimHei-42" d="M 2950 1400 
Q 2950 675 2550 400 
Q 2150 125 1525 125 
L 275 125 
L 275 4400 
L 1575 4400 
Q 2200 4400 2512 4075 
Q 2825 3750 2825 3300 
Q 2825 2850 2612 2637 
Q 2400 2425 2175 2350 
Q 2475 2275 2712 2037 
Q 2950 1800 2950 1400 
z
M 2250 3300 
Q 2250 3625 2062 3775 
Q 1875 3925 1600 3925 
L 850 3925 
L 850 2600 
L 1575 2600 
Q 1850 2600 2050 2762 
Q 2250 2925 2250 3300 
z
M 2350 1400 
Q 2350 1800 2087 1962 
Q 1825 2125 1500 2125 
L 850 2125 
L 850 600 
L 1425 600 
Q 1875 600 2112 775 
Q 2350 950 2350 1400 
z
" transform="scale(0.015625)"/>
        <path id="SimHei-7ad9" d="M 4450 3925 
L 5175 3925 
Q 5575 3925 6050 3950 
L 6050 3475 
Q 5575 3500 5175 3500 
L 4450 3500 
L 4450 2275 
L 5700 2275 
Q 5675 1900 5675 1575 
L 5675 350 
Q 5675 -100 5700 -575 
L 5175 -575 
L 5175 -50 
L 3500 -50 
L 3500 -600 
L 3025 -600 
Q 3025 -150 3050 200 
L 3050 1525 
Q 3025 1850 3025 2275 
L 3975 2275 
L 3975 4550 
Q 3975 4775 3950 5225 
L 4475 5225 
Q 4450 4750 4450 4600 
L 4450 3925 
z
M 5175 350 
L 5175 1875 
L 3500 1875 
L 3500 350 
L 5175 350 
z
M 2725 2875 
Q 2575 2500 2450 1912 
Q 2325 1325 2200 775 
Q 2675 875 2875 925 
Q 2875 725 2925 525 
Q 2150 350 1587 212 
Q 1025 75 550 -100 
Q 500 150 325 450 
Q 1400 600 1750 700 
Q 1850 1025 1987 1662 
Q 2125 2300 2175 3025 
Q 2450 2925 2725 2875 
z
M 1900 3875 
Q 2250 3875 2950 3900 
L 2950 3425 
Q 2250 3450 1900 3450 
L 1400 3450 
Q 1000 3450 375 3425 
L 375 3900 
Q 1000 3875 1400 3875 
L 1900 3875 
z
M 1075 2950 
Q 1475 1650 1550 1250 
Q 1300 1175 1075 1125 
Q 975 1725 600 2800 
Q 800 2875 1075 2950 
z
M 1525 4050 
Q 1425 4475 1125 5000 
Q 1325 5075 1550 5200 
Q 1775 4875 2000 4225 
Q 1800 4125 1525 4050 
z
" transform="scale(0.015625)"/>
       </defs>
       <use xlink:href="#SimHei-42"/>
       <use xlink:href="#SimHei-7ad9" transform="translate(50 0)"/>
      </g>
     </g>
    </g>
    <g id="xtick_3">
     <g id="line2d_3">
      <g>
       <use xlink:href="#mfd1521e6e8" x="390.055786" y="371.968906" style="stroke: #000000; stroke-width: 0.8"/>
      </g>
     </g>
     <g id="text_3">
      <!-- 微博 -->
      <g transform="translate(380.055786 386.937656) scale(0.1 -0.1)">
       <defs>
        <path id="SimHei-5fae" d="M 4050 2075 
Q 3850 2250 3675 2300 
Q 4050 3025 4262 3837 
Q 4475 4650 4500 5175 
Q 4775 5075 5025 5050 
Q 4875 4700 4725 3850 
L 5525 3850 
Q 5800 3850 6050 3875 
L 6050 3475 
Q 5675 3500 5600 3500 
Q 5600 2800 5525 2162 
Q 5450 1525 5100 775 
Q 5225 525 5487 312 
Q 5750 100 6125 -75 
Q 5825 -275 5800 -525 
Q 5175 -150 4800 400 
Q 4275 -175 3625 -600 
Q 3450 -400 3150 -225 
Q 3675 0 3975 225 
Q 4275 450 4550 800 
Q 4275 1475 4200 2450 
L 4050 2075 
z
M 1875 3550 
Q 1650 3375 1375 2875 
L 1375 475 
Q 1375 25 1400 -550 
L 950 -550 
Q 975 25 975 475 
L 975 2300 
Q 750 2000 550 1700 
Q 425 1950 275 2100 
Q 575 2400 925 2900 
Q 1275 3400 1475 3925 
Q 1650 3650 1875 3550 
z
M 3450 1975 
Q 3425 1500 3425 725 
Q 3650 900 3850 1125 
L 4050 725 
Q 3875 625 3637 425 
Q 3400 225 3175 0 
L 2925 375 
Q 3050 475 3050 700 
L 3050 1650 
L 2500 1650 
Q 2500 1100 2412 662 
Q 2325 225 2000 -275 
Q 1825 -75 1600 25 
Q 1975 450 2037 1037 
Q 2100 1625 2075 1975 
L 3450 1975 
z
M 2350 4600 
Q 2325 4175 2325 3575 
L 2700 3575 
Q 2700 4575 2675 5100 
L 3100 5100 
Q 3075 4600 3075 3575 
L 3500 3575 
Q 3500 4075 3475 4600 
L 3875 4600 
Q 3850 4325 3850 3925 
Q 3850 3550 3875 3250 
L 1900 3250 
Q 1925 3600 1925 3925 
Q 1925 4250 1900 4600 
L 2350 4600 
z
M 4525 2825 
Q 4625 1775 4850 1200 
Q 5050 1700 5112 2212 
Q 5175 2725 5200 3500 
L 4625 3500 
Q 4525 3175 4350 2775 
L 4525 2825 
z
M 1700 4850 
Q 1275 4300 675 3625 
Q 525 3800 300 3925 
Q 1025 4575 1300 5150 
Q 1450 5000 1700 4850 
z
M 3700 2475 
Q 3325 2500 2750 2500 
Q 2175 2500 1800 2475 
L 1800 2850 
Q 2175 2825 2750 2825 
Q 3325 2825 3700 2850 
L 3700 2475 
z
" transform="scale(0.015625)"/>
        <path id="SimHei-535a" d="M 3600 4575 
Q 3600 5000 3575 5200 
L 4100 5200 
Q 4075 4950 4075 4575 
L 5075 4575 
Q 5650 4575 5925 4600 
L 5925 4150 
Q 5650 4175 5100 4175 
L 4075 4175 
L 4075 3775 
L 5525 3775 
Q 5500 3400 5500 3050 
L 5500 2500 
Q 5500 2025 5525 1725 
L 5050 1725 
L 5050 1975 
L 4075 1975 
Q 4075 1750 4100 1525 
L 3575 1525 
Q 3600 1775 3600 1975 
L 2775 1975 
L 2775 1550 
L 2275 1550 
Q 2300 1825 2300 2250 
L 2300 3025 
Q 2300 3500 2275 3775 
L 3600 3775 
L 3600 4175 
L 3075 4175 
Q 2575 4175 2100 4150 
L 2100 4600 
Q 2550 4575 3050 4575 
L 3600 4575 
z
M 950 4375 
Q 950 4825 925 5175 
L 1425 5175 
Q 1400 4750 1400 4375 
L 1400 3375 
Q 1725 3375 2050 3400 
L 2050 2925 
Q 1700 2950 1400 2950 
L 1400 250 
Q 1400 -225 1425 -500 
L 925 -500 
Q 950 -250 950 250 
L 950 2950 
Q 600 2950 250 2925 
L 250 3400 
Q 625 3375 950 3375 
L 950 4375 
z
M 4800 1225 
Q 4800 1425 4775 1625 
L 5275 1625 
Q 5250 1425 5250 1225 
L 5425 1225 
Q 5875 1225 6200 1250 
L 6200 775 
Q 5850 800 5425 800 
L 5250 800 
L 5250 -25 
Q 5250 -425 4987 -500 
Q 4725 -575 4325 -650 
Q 4275 -375 4125 -125 
Q 4550 -125 4675 -100 
Q 4800 -75 4800 200 
L 4800 800 
L 2700 800 
Q 2175 800 1875 750 
L 1875 1250 
Q 2175 1225 2700 1225 
L 4800 1225 
z
M 3075 750 
Q 3375 400 3600 100 
Q 3375 -50 3175 -200 
Q 2975 125 2675 475 
Q 2875 600 3075 750 
z
M 5050 2350 
L 5050 2700 
L 4075 2700 
L 4075 2350 
L 5050 2350 
z
M 5050 3075 
L 5050 3400 
L 4075 3400 
L 4075 3075 
L 5050 3075 
z
M 3600 2350 
L 3600 2700 
L 2775 2700 
L 2775 2350 
L 3600 2350 
z
M 3600 3075 
L 3600 3400 
L 2775 3400 
L 2775 3075 
L 3600 3075 
z
M 5000 4625 
Q 4800 4825 4650 5000 
L 5025 5250 
Q 5150 5075 5375 4850 
Q 5150 4750 5000 4625 
z
" transform="scale(0.015625)"/>
       </defs>
       <use xlink:href="#SimHei-5fae"/>
       <use xlink:href="#SimHei-535a" transform="translate(100 0)"/>
      </g>
     </g>
    </g>
    <g id="xtick_4">
     <g id="line2d_4">
      <g>
       <use xlink:href="#mfd1521e6e8" x="523.548609" y="371.968906" style="stroke: #000000; stroke-width: 0.8"/>
      </g>
     </g>
     <g id="text_4">
      <!-- 视频号 -->
      <g transform="translate(508.548609 386.898594) scale(0.1 -0.1)">
       <defs>
        <path id="SimHei-89c6" d="M 4500 3875 
Q 4400 3700 4375 3187 
Q 4350 2675 4225 1750 
L 4675 1750 
Q 4650 1500 4650 1075 
L 4650 400 
Q 4650 25 4825 12 
Q 5000 0 5225 0 
Q 5475 0 5537 100 
Q 5600 200 5650 725 
Q 5925 550 6175 500 
Q 6000 -425 5600 -425 
L 4600 -425 
Q 4200 -400 4200 100 
L 4200 1600 
Q 3900 800 3525 325 
Q 3150 -150 2500 -650 
Q 2300 -425 2050 -325 
Q 2750 100 3150 625 
Q 3550 1150 3712 1725 
Q 3875 2300 3900 2875 
Q 3925 3450 3875 3975 
Q 4175 3925 4500 3875 
z
M 5525 4875 
Q 5500 4475 5500 3925 
L 5500 2550 
Q 5500 2100 5525 1625 
L 5050 1625 
L 5050 4475 
L 3275 4475 
L 3275 1600 
L 2800 1600 
Q 2825 2025 2825 2525 
L 2825 3900 
Q 2825 4425 2800 4875 
L 5525 4875 
z
M 2275 3900 
Q 2200 3650 2062 3287 
Q 1925 2925 1650 2475 
L 1650 475 
Q 1650 25 1675 -625 
L 1175 -625 
Q 1200 75 1200 500 
L 1200 1875 
Q 950 1525 500 1125 
Q 350 1375 200 1525 
Q 725 1925 1100 2475 
Q 1475 3025 1650 3500 
L 1025 3500 
Q 650 3500 350 3475 
L 350 3925 
Q 725 3900 1025 3900 
L 2275 3900 
z
M 1350 5225 
Q 1675 4750 1900 4400 
Q 1725 4275 1450 4100 
Q 1250 4550 950 4950 
Q 1175 5075 1350 5225 
z
M 2025 2500 
Q 2325 2075 2550 1675 
Q 2350 1575 2150 1375 
Q 1925 1825 1675 2225 
Q 1850 2350 2025 2500 
z
" transform="scale(0.015625)"/>
        <path id="SimHei-9891" d="M 4250 4450 
Q 3575 4450 3125 4425 
L 3125 4850 
Q 3550 4825 3925 4825 
L 5225 4825 
Q 5600 4825 6000 4850 
L 6000 4425 
Q 5600 4450 4700 4450 
Q 4625 4050 4550 3625 
L 5875 3625 
Q 5850 3275 5850 2900 
L 5850 1650 
Q 5850 1300 5875 750 
L 5400 750 
L 5400 3250 
L 3875 3250 
L 3875 800 
L 3400 800 
Q 3425 1275 3425 1650 
L 3425 2825 
Q 3425 3275 3400 3625 
L 4125 3625 
Q 4200 4100 4250 4450 
z
M 1675 2750 
Q 650 2750 350 2725 
L 350 3150 
Q 550 3125 725 3125 
Q 725 4275 700 4625 
L 1200 4625 
Q 1175 4275 1175 3125 
L 1675 3125 
L 1675 4275 
Q 1675 4750 1650 5125 
L 2150 5125 
Q 2125 4750 2125 4250 
Q 2625 4250 3025 4275 
L 3025 3850 
Q 2625 3875 2125 3875 
L 2125 3125 
Q 2850 3125 3150 3150 
L 3150 2725 
Q 2850 2750 2125 2750 
L 1675 2750 
z
M 2150 2600 
Q 2125 2250 2125 1925 
L 2125 1050 
Q 2600 1650 2650 2200 
Q 2875 2100 3175 2075 
Q 2850 1075 2187 450 
Q 1525 -175 700 -500 
Q 550 -250 200 -75 
Q 750 75 1087 237 
Q 1425 400 1675 625 
L 1675 1900 
Q 1675 2250 1650 2600 
L 2150 2600 
z
M 2775 -250 
Q 3400 -75 3737 225 
Q 4075 525 4212 887 
Q 4350 1250 4362 1725 
Q 4375 2200 4350 2750 
Q 4650 2700 4925 2650 
Q 4850 2325 4837 1975 
Q 4825 1625 4750 1112 
Q 4675 600 4300 162 
Q 3925 -275 3250 -650 
Q 3075 -450 2775 -250 
z
M 5850 -650 
Q 5550 -275 4800 250 
Q 4975 425 5075 600 
Q 5825 75 6200 -250 
Q 5975 -425 5850 -650 
z
M 400 1175 
Q 650 1550 900 2375 
Q 1125 2275 1375 2225 
Q 1000 1325 850 1025 
Q 650 1150 400 1175 
z
" transform="scale(0.015625)"/>
        <path id="SimHei-53f7" d="M 5025 4925 
Q 5000 4550 5000 4075 
Q 5000 3600 5025 3175 
L 1400 3175 
Q 1425 3525 1425 4000 
Q 1425 4500 1400 4925 
L 5025 4925 
z
M 5175 2625 
Q 5650 2625 6025 2650 
L 6025 2200 
Q 5650 2225 5175 2225 
L 2450 2225 
Q 2350 1875 2225 1450 
L 5175 1450 
Q 5100 1050 5062 775 
Q 5025 500 4950 112 
Q 4875 -275 4650 -412 
Q 4425 -550 3225 -625 
Q 3125 -350 2975 -50 
Q 3875 -75 4112 -50 
Q 4350 -25 4425 212 
Q 4500 450 4575 1025 
L 1600 1025 
Q 1825 1625 1950 2225 
L 1350 2225 
Q 825 2225 375 2200 
L 375 2650 
Q 825 2625 1350 2625 
L 5175 2625 
z
M 4525 3575 
L 4525 4525 
L 1900 4525 
L 1900 3575 
L 4525 3575 
z
" transform="scale(0.015625)"/>
       </defs>
       <use xlink:href="#SimHei-89c6"/>
       <use xlink:href="#SimHei-9891" transform="translate(100 0)"/>
       <use xlink:href="#SimHei-53f7" transform="translate(200 0)"/>
      </g>
     </g>
    </g>
    <g id="text_5">
     <!-- 新媒体平台 -->
     <g transform="translate(293.309375 401.890781) scale(0.12 -0.12)">
      <defs>
       <path id="SimHei-65b0" d="M 6125 4650 
Q 5750 4650 4275 4500 
L 4275 3225 
L 5575 3225 
Q 5850 3225 6150 3250 
L 6150 2775 
Q 5800 2800 5550 2800 
L 5550 225 
Q 5550 -200 5575 -675 
L 5050 -675 
Q 5075 -200 5075 200 
L 5075 2800 
L 4275 2800 
Q 4275 2175 4225 1600 
Q 4175 1025 4012 462 
Q 3850 -100 3525 -700 
Q 3275 -550 3025 -450 
Q 3425 125 3587 762 
Q 3750 1400 3775 1875 
Q 3800 2350 3800 3300 
Q 3800 4275 3775 4850 
Q 4900 4900 5800 5200 
Q 6000 4800 6125 4650 
z
M 2975 3825 
Q 2800 3725 2575 3050 
Q 3000 3050 3450 3075 
L 3450 2575 
Q 3025 2600 2175 2600 
L 2175 1975 
Q 2950 1975 3400 2000 
L 3400 1500 
Q 2950 1525 2175 1525 
L 2175 0 
Q 2175 -375 1937 -500 
Q 1700 -625 1325 -625 
Q 1225 -325 1075 -75 
Q 1425 -100 1562 -75 
Q 1700 -50 1700 150 
L 1700 1525 
Q 900 1525 450 1500 
L 450 2000 
Q 925 1975 1700 1975 
L 1700 2600 
Q 775 2600 325 2575 
L 325 3075 
Q 775 3050 1175 3050 
L 2125 3050 
Q 2325 3650 2425 3975 
Q 2625 3925 2975 3825 
z
M 2125 5275 
Q 2250 4750 2275 4550 
Q 2850 4550 3350 4575 
L 3350 4075 
Q 2825 4100 2500 4100 
L 1300 4100 
Q 875 4100 475 4075 
L 475 4575 
Q 900 4550 1300 4550 
L 1750 4550 
Q 1700 4825 1600 5125 
Q 1850 5200 2125 5275 
z
M 1525 1050 
Q 1375 875 1175 612 
Q 975 350 600 -125 
Q 425 50 225 175 
Q 750 750 1050 1375 
Q 1300 1175 1525 1050 
z
M 2725 1300 
Q 3025 900 3275 475 
Q 3025 350 2875 150 
Q 2675 600 2350 1025 
Q 2525 1175 2725 1300 
z
M 1275 3950 
Q 1450 3600 1575 3250 
Q 1350 3200 1150 3100 
Q 1025 3475 875 3775 
Q 1050 3875 1275 3950 
z
" transform="scale(0.015625)"/>
       <path id="SimHei-5a92" d="M 4900 4600 
Q 4900 4925 4875 5225 
L 5350 5225 
Q 5325 4925 5325 4600 
Q 5700 4600 6025 4625 
L 6025 4200 
Q 5725 4225 5325 4225 
L 5325 3225 
Q 5325 2725 5350 2325 
L 4350 2325 
L 4350 1850 
L 5150 1850 
Q 5700 1850 6075 1875 
L 6075 1425 
Q 5700 1450 5150 1450 
L 4675 1450 
Q 4950 850 5287 625 
Q 5625 400 6150 250 
Q 5975 25 5800 -300 
Q 5175 25 4862 387 
Q 4550 750 4350 1200 
L 4350 475 
Q 4350 -150 4375 -625 
L 3875 -625 
Q 3900 -150 3900 475 
L 3900 1325 
Q 3650 750 3250 312 
Q 2850 -125 2425 -500 
Q 2250 -225 2000 0 
Q 2425 175 2837 550 
Q 3250 925 3500 1450 
L 3125 1450 
Q 2675 1450 2275 1425 
L 2275 1875 
Q 2675 1850 3125 1850 
L 3900 1850 
L 3900 2325 
L 2850 2325 
Q 2875 2800 2875 3275 
L 2875 4225 
Q 2600 4225 2250 4200 
L 2250 4625 
Q 2575 4600 2875 4600 
Q 2875 4950 2850 5225 
L 3325 5225 
Q 3300 4925 3300 4600 
L 4900 4600 
z
M 2450 3775 
Q 2325 2825 2187 2162 
Q 2050 1500 1875 1050 
Q 2200 750 2425 600 
Q 2200 425 2025 200 
Q 1825 475 1650 650 
Q 1475 325 1187 25 
Q 900 -275 600 -575 
Q 475 -325 225 -100 
Q 475 0 800 275 
Q 1125 550 1375 975 
Q 900 1425 425 1650 
Q 575 2025 700 2450 
Q 825 2875 950 3400 
Q 700 3400 350 3375 
L 350 3800 
Q 700 3775 1025 3775 
Q 1125 4275 1275 5175 
Q 1525 5100 1775 5050 
Q 1600 4450 1450 3775 
L 2450 3775 
z
M 1375 3400 
Q 1100 2325 950 1800 
Q 1400 1500 1575 1350 
Q 1725 1950 1812 2412 
Q 1900 2875 1950 3400 
L 1375 3400 
z
M 4900 3650 
L 4900 4225 
L 3300 4225 
L 3300 3650 
L 4900 3650 
z
M 4900 2725 
L 4900 3275 
L 3300 3275 
L 3300 2725 
L 4900 2725 
z
" transform="scale(0.015625)"/>
       <path id="SimHei-4f53" d="M 3650 3850 
Q 3650 4750 3625 5125 
L 4125 5125 
Q 4100 4775 4100 3850 
L 5200 3850 
Q 5700 3850 5925 3875 
L 5925 3425 
Q 5700 3450 5200 3450 
L 4525 3450 
Q 4925 1850 6200 1200 
Q 5925 1050 5775 775 
Q 4425 1800 4100 3425 
L 4100 1025 
Q 4825 1025 5050 1050 
L 5050 600 
Q 4825 625 4100 625 
Q 4100 75 4125 -575 
L 3625 -575 
Q 3650 100 3650 625 
Q 3200 625 2700 600 
L 2700 1050 
Q 3200 1025 3650 1025 
L 3650 3450 
Q 3375 1800 2000 650 
Q 1850 875 1550 1025 
Q 2850 1875 3200 3450 
L 2675 3450 
Q 2275 3450 1975 3425 
L 1975 3875 
Q 2275 3850 2675 3850 
L 3650 3850 
z
M 2000 4900 
Q 1825 4675 1525 3775 
L 1525 575 
Q 1525 -200 1550 -550 
L 1050 -550 
Q 1075 -225 1075 550 
L 1075 2900 
Q 950 2625 575 2050 
Q 450 2275 225 2425 
Q 525 2725 925 3612 
Q 1325 4500 1425 5125 
Q 1700 5000 2000 4900 
z
" transform="scale(0.015625)"/>
       <path id="SimHei-5e73" d="M 4525 4825 
Q 4900 4825 5450 4850 
L 5450 4375 
Q 4925 4400 4525 4400 
L 3475 4400 
L 3475 2025 
L 5000 2025 
Q 5550 2025 6025 2050 
L 6025 1575 
Q 5550 1600 5000 1600 
L 3475 1600 
L 3475 450 
Q 3475 -100 3500 -600 
L 2925 -600 
Q 2950 -100 2950 450 
L 2950 1600 
L 1125 1600 
Q 775 1600 375 1575 
L 375 2050 
Q 775 2025 1175 2025 
L 2950 2025 
L 2950 4400 
L 1775 4400 
Q 1400 4400 875 4375 
L 875 4850 
Q 1400 4825 1750 4825 
L 4525 4825 
z
M 3925 2600 
Q 4500 3300 4900 4125 
Q 5150 3950 5400 3825 
Q 4775 2850 4350 2300 
Q 4150 2475 3925 2600 
z
M 1975 2350 
Q 1600 3100 1050 3725 
Q 1250 3875 1450 4050 
Q 2075 3300 2450 2725 
Q 2150 2500 1975 2350 
z
" transform="scale(0.015625)"/>
       <path id="SimHei-53f0" d="M 5300 2025 
Q 5275 1575 5275 725 
Q 5275 -100 5300 -550 
L 4750 -550 
L 4750 -200 
L 1675 -200 
L 1675 -575 
L 1125 -575 
Q 1150 -200 1150 575 
Q 1150 1375 1125 2025 
L 5300 2025 
z
M 3250 4900 
Q 3050 4750 2675 4300 
Q 2300 3850 1600 3125 
Q 2275 3150 2975 3187 
Q 3675 3225 4700 3300 
Q 4500 3600 3875 4150 
Q 4075 4275 4275 4525 
Q 5225 3550 5950 2725 
Q 5675 2575 5475 2350 
Q 5250 2700 5050 2875 
Q 3800 2800 2587 2712 
Q 1375 2625 900 2450 
Q 800 2925 650 3100 
Q 1000 3200 1587 3800 
Q 2175 4400 2650 5275 
Q 3000 5000 3250 4900 
z
M 4750 275 
L 4750 1550 
L 1675 1550 
L 1675 275 
L 4750 275 
z
" transform="scale(0.015625)"/>
      </defs>
      <use xlink:href="#SimHei-65b0"/>
      <use xlink:href="#SimHei-5a92" transform="translate(100 0)"/>
      <use xlink:href="#SimHei-4f53" transform="translate(200 0)"/>
      <use xlink:href="#SimHei-5e73" transform="translate(300 0)"/>
      <use xlink:href="#SimHei-53f0" transform="translate(400 0)"/>
     </g>
    </g>
   </g>
   <g id="matplotlib.axis_2">
    <g id="ytick_1">
     <g id="line2d_5">
      <path d="M 44.309375 371.968906 
L 602.309375 371.968906 
" clip-path="url(#p36d6d5b4e3)" style="fill: none; stroke: #bfbfbf; stroke-opacity: 0.5; stroke-width: 0.8; stroke-linecap: square"/>
     </g>
     <g id="line2d_6">
      <defs>
       <path id="m249f848f80" d="M 0 0 
L -3.5 0 
" style="stroke: #000000; stroke-width: 0.8"/>
      </defs>
      <g>
       <use xlink:href="#m249f848f80" x="44.309375" y="371.968906" style="stroke: #000000; stroke-width: 0.8"/>
      </g>
     </g>
     <g id="text_6">
      <!-- 0 -->
      <g transform="translate(32.309375 375.406406) scale(0.1 -0.1)">
       <defs>
        <path id="SimHei-30" d="M 225 2537 
Q 250 3200 412 3587 
Q 575 3975 875 4225 
Q 1175 4475 1612 4475 
Q 2050 4475 2375 4112 
Q 2700 3750 2800 3200 
Q 2900 2650 2862 1937 
Q 2825 1225 2612 775 
Q 2400 325 1975 150 
Q 1550 -25 1125 187 
Q 700 400 525 750 
Q 350 1100 275 1487 
Q 200 1875 225 2537 
z
M 750 2687 
Q 675 2000 800 1462 
Q 925 925 1212 700 
Q 1500 475 1800 612 
Q 2100 750 2237 1162 
Q 2375 1575 2375 2062 
Q 2375 2550 2337 2950 
Q 2300 3350 2112 3675 
Q 1925 4000 1612 4012 
Q 1300 4025 1062 3700 
Q 825 3375 750 2687 
z
" transform="scale(0.015625)"/>
       </defs>
       <use xlink:href="#SimHei-30"/>
      </g>
     </g>
    </g>
    <g id="ytick_2">
     <g id="line2d_7">
      <path d="M 44.309375 308.608906 
L 602.309375 308.608906 
" clip-path="url(#p36d6d5b4e3)" style="fill: none; stroke: #bfbfbf; stroke-opacity: 0.5; stroke-width: 0.8; stroke-linecap: square"/>
     </g>
     <g id="line2d_8">
      <g>
       <use xlink:href="#m249f848f80" x="44.309375" y="308.608906" style="stroke: #000000; stroke-width: 0.8"/>
      </g>
     </g>
     <g id="text_7">
      <!-- 20 -->
      <g transform="translate(27.309375 312.046406) scale(0.1 -0.1)">
       <defs>
        <path id="SimHei-32" d="M 300 250 
Q 325 625 650 925 
Q 975 1225 1475 1862 
Q 1975 2500 2125 2850 
Q 2275 3200 2237 3450 
Q 2200 3700 2000 3862 
Q 1800 4025 1537 4000 
Q 1275 3975 1037 3800 
Q 800 3625 675 3275 
L 200 3350 
Q 400 3925 712 4187 
Q 1025 4450 1450 4475 
Q 1700 4500 1900 4462 
Q 2100 4425 2312 4287 
Q 2525 4150 2662 3875 
Q 2800 3600 2762 3212 
Q 2725 2825 2375 2287 
Q 2025 1750 1025 600 
L 2825 600 
L 2825 150 
L 300 150 
L 300 250 
z
" transform="scale(0.015625)"/>
       </defs>
       <use xlink:href="#SimHei-32"/>
       <use xlink:href="#SimHei-30" transform="translate(50 0)"/>
      </g>
     </g>
    </g>
    <g id="ytick_3">
     <g id="line2d_9">
      <path d="M 44.309375 245.248906 
L 602.309375 245.248906 
" clip-path="url(#p36d6d5b4e3)" style="fill: none; stroke: #bfbfbf; stroke-opacity: 0.5; stroke-width: 0.8; stroke-linecap: square"/>
     </g>
     <g id="line2d_10">
      <g>
       <use xlink:href="#m249f848f80" x="44.309375" y="245.248906" style="stroke: #000000; stroke-width: 0.8"/>
      </g>
     </g>
     <g id="text_8">
      <!-- 40 -->
      <g transform="translate(27.309375 248.686406) scale(0.1 -0.1)">
       <defs>
        <path id="SimHei-34" d="M 2000 1100 
L 75 1100 
L 75 1525 
L 2100 4450 
L 2475 4450 
L 2475 1525 
L 3075 1525 
L 3075 1100 
L 2475 1100 
L 2475 150 
L 2000 150 
L 2000 1100 
z
M 2000 1525 
L 2000 3500 
L 600 1525 
L 2000 1525 
z
" transform="scale(0.015625)"/>
       </defs>
       <use xlink:href="#SimHei-34"/>
       <use xlink:href="#SimHei-30" transform="translate(50 0)"/>
      </g>
     </g>
    </g>
    <g id="ytick_4">
     <g id="line2d_11">
      <path d="M 44.309375 181.888906 
L 602.309375 181.888906 
" clip-path="url(#p36d6d5b4e3)" style="fill: none; stroke: #bfbfbf; stroke-opacity: 0.5; stroke-width: 0.8; stroke-linecap: square"/>
     </g>
     <g id="line2d_12">
      <g>
       <use xlink:href="#m249f848f80" x="44.309375" y="181.888906" style="stroke: #000000; stroke-width: 0.8"/>
      </g>
     </g>
     <g id="text_9">
      <!-- 60 -->
      <g transform="translate(27.309375 185.326406) scale(0.1 -0.1)">
       <defs>
        <path id="SimHei-36" d="M 250 1612 
Q 275 1975 387 2225 
Q 500 2475 725 2850 
L 1750 4450 
L 2325 4450 
L 1275 2800 
Q 1950 2975 2350 2750 
Q 2750 2525 2887 2237 
Q 3025 1950 3037 1612 
Q 3050 1275 2937 950 
Q 2825 625 2537 362 
Q 2250 100 1737 75 
Q 1225 50 862 262 
Q 500 475 362 862 
Q 225 1250 250 1612 
z
M 1025 787 
Q 1250 550 1625 525 
Q 2000 500 2250 775 
Q 2500 1050 2500 1575 
Q 2500 2100 2187 2300 
Q 1875 2500 1487 2450 
Q 1100 2400 925 2075 
Q 750 1750 775 1387 
Q 800 1025 1025 787 
z
" transform="scale(0.015625)"/>
       </defs>
       <use xlink:href="#SimHei-36"/>
       <use xlink:href="#SimHei-30" transform="translate(50 0)"/>
      </g>
     </g>
    </g>
    <g id="ytick_5">
     <g id="line2d_13">
      <path d="M 44.309375 118.528906 
L 602.309375 118.528906 
" clip-path="url(#p36d6d5b4e3)" style="fill: none; stroke: #bfbfbf; stroke-opacity: 0.5; stroke-width: 0.8; stroke-linecap: square"/>
     </g>
     <g id="line2d_14">
      <g>
       <use xlink:href="#m249f848f80" x="44.309375" y="118.528906" style="stroke: #000000; stroke-width: 0.8"/>
      </g>
     </g>
     <g id="text_10">
      <!-- 80 -->
      <g transform="translate(27.309375 121.966406) scale(0.1 -0.1)">
       <defs>
        <path id="SimHei-38" d="M 175 1375 
Q 175 1675 325 1962 
Q 475 2250 825 2425 
Q 525 2600 425 2812 
Q 325 3025 312 3300 
Q 300 3575 387 3775 
Q 475 3975 650 4150 
Q 825 4325 1037 4387 
Q 1250 4450 1500 4450 
Q 1750 4450 1950 4400 
Q 2150 4350 2375 4187 
Q 2600 4025 2700 3725 
Q 2800 3425 2687 3025 
Q 2575 2625 2100 2400 
Q 2525 2275 2700 2012 
Q 2875 1750 2875 1375 
Q 2875 1000 2762 775 
Q 2650 550 2512 400 
Q 2375 250 2137 162 
Q 1900 75 1537 75 
Q 1175 75 912 162 
Q 650 250 475 425 
Q 300 600 237 837 
Q 175 1075 175 1375 
z
M 687 1400 
Q 675 1100 787 875 
Q 900 650 1200 587 
Q 1500 525 1825 600 
Q 2150 675 2275 950 
Q 2400 1225 2362 1500 
Q 2325 1775 2050 1962 
Q 1775 2150 1450 2125 
Q 1125 2100 912 1900 
Q 700 1700 687 1400 
z
M 775 3350 
Q 775 3100 950 2875 
Q 1125 2650 1500 2650 
Q 1875 2650 2062 2875 
Q 2250 3100 2237 3412 
Q 2225 3725 2012 3875 
Q 1800 4025 1437 4000 
Q 1075 3975 925 3787 
Q 775 3600 775 3350 
z
" transform="scale(0.015625)"/>
       </defs>
       <use xlink:href="#SimHei-38"/>
       <use xlink:href="#SimHei-30" transform="translate(50 0)"/>
      </g>
     </g>
    </g>
    <g id="ytick_6">
     <g id="line2d_15">
      <path d="M 44.309375 55.168906 
L 602.309375 55.168906 
" clip-path="url(#p36d6d5b4e3)" style="fill: none; stroke: #bfbfbf; stroke-opacity: 0.5; stroke-width: 0.8; stroke-linecap: square"/>
     </g>
     <g id="line2d_16">
      <g>
       <use xlink:href="#m249f848f80" x="44.309375" y="55.168906" style="stroke: #000000; stroke-width: 0.8"/>
      </g>
     </g>
     <g id="text_11">
      <!-- 100 -->
      <g transform="translate(22.309375 58.606406) scale(0.1 -0.1)">
       <defs>
        <path id="SimHei-31" d="M 1400 3600 
Q 1075 3275 575 2975 
L 575 3450 
Q 1200 3875 1600 4450 
L 1900 4450 
L 1900 150 
L 1400 150 
L 1400 3600 
z
" transform="scale(0.015625)"/>
       </defs>
       <use xlink:href="#SimHei-31"/>
       <use xlink:href="#SimHei-30" transform="translate(50 0)"/>
       <use xlink:href="#SimHei-30" transform="translate(100 0)"/>
      </g>
     </g>
    </g>
    <g id="text_12">
     <!-- 综合传播热度指数 -->
     <g transform="translate(16.809375 253.648906) rotate(-90) scale(0.12 -0.12)">
      <defs>
       <path id="SimHei-7efc" d="M 1775 4775 
Q 1600 4525 1350 4062 
Q 1100 3600 825 3050 
L 1525 3050 
Q 1825 3600 1900 3925 
Q 2150 3725 2425 3575 
Q 2250 3425 1950 2887 
Q 1650 2350 1125 1525 
Q 1350 1550 2225 1700 
Q 2150 1450 2125 1225 
Q 1825 1225 1425 1150 
Q 1025 1075 575 950 
Q 500 1225 425 1475 
Q 675 1550 887 1900 
Q 1100 2250 1325 2700 
Q 725 2675 350 2525 
L 200 3025 
Q 500 3200 775 3812 
Q 1050 4425 1200 5025 
Q 1400 4925 1775 4775 
z
M 5250 2025 
Q 5725 2025 6125 2050 
L 6125 1575 
Q 5725 1600 5325 1600 
L 4525 1600 
L 4525 -50 
Q 4525 -475 4287 -562 
Q 4050 -650 3600 -675 
Q 3600 -450 3500 -150 
Q 3800 -175 3925 -150 
Q 4050 -125 4050 100 
L 4050 1600 
L 3350 1600 
Q 2950 1600 2550 1575 
L 2550 2050 
Q 2950 2025 3350 2025 
L 5250 2025 
z
M 4400 5200 
Q 4450 5000 4600 4375 
L 6025 4375 
Q 6000 4150 6000 3850 
Q 6000 3575 6025 3325 
L 5475 3325 
L 5475 3975 
L 3050 3975 
L 3050 3275 
L 2550 3275 
Q 2575 3600 2575 3875 
Q 2575 4150 2550 4375 
L 4025 4375 
Q 3975 4725 3850 5100 
L 4400 5200 
z
M 4750 3050 
Q 5100 3050 5500 3075 
L 5500 2600 
Q 5100 2650 4750 2650 
L 3875 2650 
Q 3475 2650 3075 2600 
L 3075 3075 
Q 3450 3050 3850 3050 
L 4750 3050 
z
M 2200 -275 
Q 2425 -75 2712 325 
Q 3000 725 3175 1100 
Q 3350 950 3625 800 
Q 3425 500 3237 212 
Q 3050 -75 2575 -600 
Q 2375 -425 2200 -275 
z
M 300 125 
Q 875 250 1300 325 
Q 1725 400 2175 525 
Q 2200 300 2225 100 
Q 1975 50 1437 -87 
Q 900 -225 525 -400 
Q 375 -125 300 125 
z
M 5225 1100 
Q 5450 850 6200 25 
Q 5975 -175 5800 -350 
Q 5600 -100 5362 200 
Q 5125 500 4875 775 
Q 5025 950 5225 1100 
z
" transform="scale(0.015625)"/>
       <path id="SimHei-5408" d="M 5050 1800 
Q 5025 1550 5025 650 
Q 5025 -250 5050 -525 
L 4525 -525 
L 4525 -50 
L 1750 -50 
L 1750 -600 
L 1250 -600 
Q 1275 -300 1275 550 
Q 1275 1425 1250 1800 
L 5050 1800 
z
M 3375 4800 
Q 4100 3925 4550 3600 
Q 5000 3275 5375 3100 
Q 5750 2925 6100 2825 
Q 5850 2550 5775 2300 
Q 5275 2525 4875 2775 
Q 4475 3025 4062 3412 
Q 3650 3800 3125 4475 
Q 2650 3800 2187 3362 
Q 1725 2925 1400 2675 
Q 1075 2425 675 2175 
Q 625 2275 275 2575 
Q 800 2825 1275 3175 
Q 1750 3525 2225 4062 
Q 2700 4600 3000 5225 
Q 3275 5050 3500 4950 
L 3375 4800 
z
M 4525 350 
L 4525 1400 
L 1750 1400 
L 1750 350 
L 4525 350 
z
M 3925 2825 
Q 4325 2825 4625 2850 
L 4625 2375 
Q 4300 2400 3950 2400 
L 2550 2400 
Q 2025 2400 1700 2375 
L 1700 2850 
Q 2175 2825 2550 2825 
L 3925 2825 
z
" transform="scale(0.015625)"/>
       <path id="SimHei-4f20" d="M 5500 1975 
Q 5025 925 4700 250 
Q 4975 100 5450 -200 
Q 5300 -375 5125 -675 
Q 4700 -375 4012 12 
Q 3325 400 3050 525 
Q 3175 750 3275 950 
Q 3600 800 4275 475 
Q 4525 975 4750 1550 
L 2800 1550 
Q 2950 2000 3125 2650 
L 2575 2650 
Q 2200 2650 1925 2625 
L 1925 3075 
Q 2250 3050 2600 3050 
L 3200 3050 
Q 3300 3525 3350 3825 
L 2975 3825 
Q 2525 3825 2250 3800 
L 2250 4250 
Q 2550 4225 2950 4225 
L 3425 4225 
Q 3525 4950 3525 5225 
Q 3850 5150 4100 5125 
Q 4025 5000 3875 4225 
L 4950 4225 
Q 5350 4225 5700 4250 
L 5700 3800 
Q 5375 3825 4925 3825 
L 3825 3825 
Q 3775 3550 3675 3050 
L 5250 3050 
Q 5750 3050 6025 3075 
L 6025 2625 
Q 5725 2650 5250 2650 
L 3600 2650 
Q 3500 2250 3425 1975 
L 5500 1975 
z
M 2225 4875 
Q 2025 4675 1650 3750 
L 1650 550 
Q 1650 -25 1675 -525 
L 1125 -525 
Q 1175 -125 1175 525 
L 1175 3000 
Q 800 2400 550 2050 
Q 450 2250 200 2450 
Q 500 2800 925 3525 
Q 1350 4250 1625 5175 
Q 1850 5050 2225 4875 
z
" transform="scale(0.015625)"/>
       <path id="SimHei-64ad" d="M 5775 4600 
Q 5325 4550 4300 4475 
L 4300 3475 
L 4725 3475 
Q 4850 3800 5050 4475 
Q 5250 4350 5575 4225 
Q 5400 4000 5312 3812 
Q 5225 3625 5150 3475 
L 5400 3475 
Q 5725 3475 6100 3500 
L 6100 3075 
Q 5725 3100 5425 3100 
L 4850 3100 
Q 5325 2425 6200 2100 
Q 5975 1875 5925 1625 
Q 5600 1750 5525 1825 
L 5525 300 
Q 5525 -50 5550 -600 
L 5075 -600 
L 5075 -225 
L 3050 -225 
L 3050 -600 
L 2575 -600 
Q 2600 -100 2600 250 
L 2600 1725 
Q 2400 1600 2225 1475 
Q 2050 1725 1850 1875 
Q 2825 2375 3300 3100 
Q 2725 3100 2225 3075 
L 2225 3500 
Q 2650 3475 2850 3475 
L 3000 3475 
Q 2800 3925 2625 4100 
Q 2700 4150 3025 4325 
Q 3075 4225 3425 3725 
Q 3300 3650 3050 3475 
L 3825 3475 
L 3825 4425 
Q 3000 4400 2525 4325 
Q 2425 4600 2300 4800 
Q 3050 4775 4025 4875 
Q 5000 4975 5425 5125 
Q 5550 4825 5775 4600 
z
M 1175 4550 
Q 1175 4900 1150 5200 
L 1650 5200 
Q 1625 5000 1600 4650 
L 1600 3825 
Q 1900 3825 2125 3850 
L 2125 3400 
Q 1850 3425 1600 3425 
L 1600 2425 
L 2100 2675 
Q 2100 2475 2150 2200 
Q 1900 2100 1600 1950 
L 1600 50 
Q 1600 -350 1362 -450 
Q 1125 -550 700 -600 
Q 650 -350 475 -75 
Q 925 -75 1050 -37 
Q 1175 0 1175 275 
L 1175 1800 
Q 1000 1750 425 1400 
L 225 1900 
Q 525 2000 1175 2275 
L 1175 3425 
Q 600 3425 300 3375 
L 300 3850 
Q 750 3825 1175 3825 
L 1175 4550 
z
M 5300 1950 
Q 4750 2350 4375 3100 
L 4325 3100 
Q 4325 2550 4350 2050 
L 3825 2050 
Q 3850 2550 3850 3075 
Q 3475 2525 2825 1950 
L 5300 1950 
z
M 3850 150 
L 3850 675 
L 3050 675 
L 3050 150 
L 3850 150 
z
M 5075 150 
L 5075 675 
L 4275 675 
L 4275 150 
L 5075 150 
z
M 3850 1075 
L 3850 1575 
L 3050 1575 
L 3050 1075 
L 3850 1075 
z
M 5075 1075 
L 5075 1575 
L 4275 1575 
L 4275 1075 
L 5075 1075 
z
" transform="scale(0.015625)"/>
       <path id="SimHei-70ed" d="M 2350 1175 
Q 3050 1700 3350 2400 
Q 3175 2575 2750 2825 
Q 2900 3025 3000 3200 
Q 3300 3025 3500 2875 
Q 3600 3200 3600 3775 
Q 3300 3775 2875 3725 
L 2850 4125 
Q 3250 4150 3600 4150 
Q 3600 4750 3575 5175 
Q 3750 5100 4125 5075 
Q 4050 4700 4050 4150 
L 5150 4200 
Q 5075 3800 5050 3087 
Q 5025 2375 5175 1975 
Q 5325 1575 5462 1600 
Q 5600 1625 5675 2250 
Q 5900 2100 6150 2050 
Q 5950 1425 5812 1262 
Q 5675 1100 5500 1100 
Q 5325 1100 5075 1287 
Q 4825 1475 4700 2100 
Q 4575 2725 4625 3800 
L 4050 3775 
Q 4025 3175 3875 2600 
Q 4400 2200 4650 2000 
Q 4500 1775 4375 1575 
Q 3950 2025 3725 2150 
Q 3425 1475 2775 850 
Q 2625 1075 2350 1175 
z
M 750 1525 
Q 1275 1500 1350 1550 
Q 1425 1600 1425 1800 
L 1425 2475 
Q 1025 2375 550 2225 
Q 500 2450 375 2725 
Q 750 2750 1425 2900 
L 1425 3725 
Q 925 3725 500 3700 
L 500 4125 
Q 900 4100 1425 4100 
Q 1425 4775 1400 5175 
L 1875 5175 
Q 1850 4850 1850 4100 
Q 2150 4100 2575 4125 
L 2575 3700 
Q 2150 3725 1850 3725 
L 1850 3000 
Q 2200 3075 2575 3175 
L 2575 2775 
Q 2200 2675 1850 2575 
L 1850 1825 
Q 1850 1300 1675 1200 
Q 1500 1100 975 1000 
Q 900 1275 750 1525 
z
M 5525 -550 
Q 5350 -125 4825 775 
Q 5025 850 5225 975 
Q 5775 75 5975 -325 
L 5525 -550 
z
M 1450 575 
Q 1275 350 775 -650 
Q 550 -500 300 -425 
Q 600 0 975 825 
Q 1200 675 1450 575 
z
M 3875 -525 
Q 3675 75 3425 600 
Q 3675 675 3850 775 
Q 4150 150 4350 -350 
Q 4075 -425 3875 -525 
z
M 2400 -575 
Q 2300 -150 2000 500 
Q 2225 575 2425 675 
Q 2775 -100 2850 -425 
Q 2600 -500 2400 -575 
z
" transform="scale(0.015625)"/>
       <path id="SimHei-5ea6" d="M 1750 1675 
Q 2450 1650 2875 1650 
L 5200 1650 
Q 4975 1250 4650 850 
Q 4325 450 4025 200 
Q 4350 50 4950 -50 
Q 5550 -150 6100 -150 
Q 5950 -300 5825 -650 
Q 5100 -550 4550 -412 
Q 4000 -275 3625 -100 
Q 3100 -325 2587 -462 
Q 2075 -600 1525 -675 
Q 1450 -475 1225 -250 
Q 1675 -250 2250 -125 
Q 2825 0 3250 200 
Q 2825 550 2400 1275 
L 1750 1250 
L 1750 1675 
z
M 2975 5075 
Q 3250 5150 3475 5250 
Q 3625 4975 3775 4525 
L 4700 4525 
Q 4975 4525 5700 4550 
L 5700 4100 
Q 5000 4125 4650 4125 
L 1375 4125 
Q 1375 3000 1350 2312 
Q 1325 1625 1212 950 
Q 1100 275 725 -525 
Q 500 -375 250 -300 
Q 650 400 762 1075 
Q 875 1750 887 2800 
Q 900 3850 875 4525 
L 3200 4525 
Q 3100 4850 2975 5075 
z
M 2475 3300 
Q 2475 3700 2450 3925 
L 2975 3925 
Q 2950 3725 2950 3300 
L 4300 3300 
Q 4300 3700 4275 3950 
L 4800 3950 
Q 4775 3650 4775 3300 
Q 5325 3300 5725 3325 
L 5725 2900 
Q 5350 2925 4775 2925 
Q 4775 2250 4800 1950 
L 2450 1950 
Q 2475 2350 2475 2925 
Q 2175 2925 1600 2900 
L 1600 3325 
Q 2175 3300 2475 3300 
z
M 4300 2350 
L 4300 2925 
L 2950 2925 
L 2950 2350 
L 4300 2350 
z
M 2875 1275 
Q 3200 775 3650 425 
Q 4025 700 4425 1275 
L 2900 1275 
L 2875 1275 
z
" transform="scale(0.015625)"/>
       <path id="SimHei-6307" d="M 5625 2225 
Q 5600 1925 5600 1350 
L 5600 300 
Q 5600 -225 5625 -525 
L 5125 -525 
L 5125 -125 
L 3300 -125 
L 3300 -625 
L 2800 -625 
Q 2825 -300 2825 300 
L 2825 1350 
Q 2825 1925 2800 2225 
L 5625 2225 
z
M 500 25 
Q 1075 -25 1175 37 
Q 1275 100 1275 275 
L 1275 1675 
Q 1050 1600 925 1537 
Q 800 1475 475 1275 
Q 400 1525 225 1800 
Q 625 1900 825 1975 
Q 1025 2050 1275 2125 
L 1275 3300 
L 1100 3300 
Q 775 3300 450 3275 
L 450 3725 
Q 750 3700 1100 3700 
L 1275 3700 
L 1275 4450 
Q 1275 4800 1250 5125 
L 1775 5125 
Q 1750 4850 1750 4450 
L 1750 3700 
Q 2075 3700 2425 3725 
L 2425 3275 
Q 2050 3300 1750 3300 
L 1750 2325 
Q 1850 2350 2025 2425 
L 2375 2575 
Q 2350 2300 2375 2100 
Q 2225 2050 2062 1987 
Q 1900 1925 1750 1850 
L 1750 100 
Q 1725 -200 1575 -337 
Q 1425 -475 675 -525 
Q 625 -250 500 25 
z
M 3325 5025 
Q 3300 4675 3300 4125 
Q 4125 4275 4512 4412 
Q 4900 4550 5225 4725 
Q 5325 4475 5575 4250 
Q 5450 4225 5237 4175 
Q 5025 4125 4725 4050 
Q 4425 3975 4037 3887 
Q 3650 3800 3300 3725 
L 3300 3175 
Q 3275 2925 3700 2925 
L 4925 2925 
Q 5300 2925 5387 3087 
Q 5475 3250 5550 3600 
Q 5750 3400 6050 3300 
Q 5825 2725 5700 2637 
Q 5575 2550 5275 2525 
L 3350 2525 
Q 3050 2525 2937 2687 
Q 2825 2850 2825 2975 
L 2825 4125 
Q 2825 4775 2800 5025 
L 3325 5025 
z
M 5125 275 
L 5125 875 
L 3300 875 
L 3300 275 
L 5125 275 
z
M 5125 1250 
L 5125 1825 
L 3300 1825 
L 3300 1250 
L 5125 1250 
z
" transform="scale(0.015625)"/>
       <path id="SimHei-6570" d="M 4525 4925 
Q 4475 4800 4400 4587 
Q 4325 4375 4175 3825 
L 5325 3825 
Q 5575 3825 5925 3850 
L 5925 3400 
Q 5650 3425 5500 3425 
Q 5500 3025 5362 2162 
Q 5225 1300 4875 675 
Q 5125 375 5437 137 
Q 5750 -100 6025 -200 
Q 5725 -425 5625 -625 
Q 5325 -450 5075 -225 
Q 4825 0 4575 325 
Q 4300 25 3987 -187 
Q 3675 -400 3200 -650 
Q 3075 -425 2850 -300 
Q 3225 -150 3650 125 
Q 4075 400 4300 675 
Q 4125 1025 3962 1425 
Q 3800 1825 3675 2475 
Q 3600 2275 3425 1950 
Q 3250 2050 3000 2150 
Q 3400 2850 3650 3675 
Q 3900 4500 3975 5100 
Q 4275 4975 4525 4925 
z
M 2100 2250 
Q 2000 2150 1875 1925 
L 3250 1925 
Q 3100 1300 2725 675 
Q 3125 525 3350 400 
Q 3225 225 3125 25 
Q 2900 175 2450 325 
Q 1950 -225 725 -650 
Q 600 -375 400 -275 
Q 1575 0 2000 475 
Q 1300 650 850 775 
Q 1000 1000 1250 1525 
Q 1000 1525 425 1500 
L 425 1950 
Q 900 1925 1400 1925 
Q 1500 2150 1550 2425 
Q 1825 2325 2100 2250 
z
M 1775 3950 
Q 1775 4550 1750 5100 
L 2250 5100 
Q 2225 4575 2225 3950 
Q 3075 3950 3425 3975 
L 3425 3525 
Q 3075 3550 2225 3550 
Q 2225 2825 2250 2425 
L 1750 2425 
Q 1775 2775 1775 3300 
Q 1650 3100 1300 2787 
Q 950 2475 650 2300 
Q 525 2525 275 2625 
Q 500 2700 875 2975 
Q 1250 3250 1450 3550 
Q 950 3550 500 3525 
L 500 3975 
Q 925 3950 1775 3950 
z
M 3975 3175 
Q 4200 1700 4600 1125 
Q 4850 1700 4937 2287 
Q 5025 2875 5050 3425 
L 4075 3425 
L 3975 3175 
z
M 1450 1000 
Q 1750 925 2275 800 
Q 2475 1050 2650 1525 
L 1725 1525 
Q 1600 1275 1450 1000 
z
M 3325 4825 
Q 3200 4625 3125 4450 
Q 3050 4275 2925 4025 
Q 2725 4125 2525 4175 
Q 2725 4500 2900 5000 
Q 3150 4875 3325 4825 
z
M 2575 3375 
Q 2900 3050 3200 2725 
Q 3050 2600 2875 2425 
Q 2525 2850 2300 3100 
Q 2450 3225 2575 3375 
z
M 925 5000 
Q 1275 4650 1500 4300 
L 1125 4075 
Q 950 4425 600 4725 
Q 825 4875 925 5000 
z
" transform="scale(0.015625)"/>
      </defs>
      <use xlink:href="#SimHei-7efc"/>
      <use xlink:href="#SimHei-5408" transform="translate(100 0)"/>
      <use xlink:href="#SimHei-4f20" transform="translate(200 0)"/>
      <use xlink:href="#SimHei-64ad" transform="translate(300 0)"/>
      <use xlink:href="#SimHei-70ed" transform="translate(400 0)"/>
      <use xlink:href="#SimHei-5ea6" transform="translate(500 0)"/>
      <use xlink:href="#SimHei-6307" transform="translate(600 0)"/>
      <use xlink:href="#SimHei-6570" transform="translate(700 0)"/>
     </g>
    </g>
   </g>
   <g id="patch_7">
    <path d="M 44.309375 371.968906 
L 44.309375 39.328906 
" style="fill: none; stroke: #000000; stroke-width: 0.8; stroke-linejoin: miter; stroke-linecap: square"/>
   </g>
   <g id="patch_8">
    <path d="M 602.309375 371.968906 
L 602.309375 39.328906 
" style="fill: none; stroke: #000000; stroke-width: 0.8; stroke-linejoin: miter; stroke-linecap: square"/>
   </g>
   <g id="patch_9">
    <path d="M 44.309375 371.968906 
L 602.309375 371.968906 
" style="fill: none; stroke: #000000; stroke-width: 0.8; stroke-linejoin: miter; stroke-linecap: square"/>
   </g>
   <g id="patch_10">
    <path d="M 44.309375 39.328906 
L 602.309375 39.328906 
" style="fill: none; stroke: #000000; stroke-width: 0.8; stroke-linejoin: miter; stroke-linecap: square"/>
   </g>
   <g id="text_13">
    <!-- 92 -->
    <g transform="translate(117.570141 75.336306) scale(0.11 -0.11)">
     <defs>
      <path id="SimHei-39" d="M 800 75 
Q 1350 1000 1700 1750 
Q 1075 1650 662 1912 
Q 250 2175 162 2625 
Q 75 3075 175 3437 
Q 275 3800 487 4037 
Q 700 4275 1000 4375 
Q 1300 4475 1537 4475 
Q 1775 4475 2025 4375 
Q 2275 4275 2475 4075 
Q 2675 3875 2750 3662 
Q 2825 3450 2825 3112 
Q 2825 2775 2575 2250 
Q 2325 1725 1350 75 
L 800 75 
z
M 662 2875 
Q 700 2550 937 2337 
Q 1175 2125 1450 2150 
Q 1725 2175 1887 2300 
Q 2050 2425 2200 2725 
Q 2300 3100 2250 3362 
Q 2200 3625 1987 3800 
Q 1775 3975 1525 3975 
Q 1375 4000 1137 3900 
Q 900 3800 762 3500 
Q 625 3200 662 2875 
z
" transform="scale(0.015625)"/>
     </defs>
     <use xlink:href="#SimHei-39"/>
     <use xlink:href="#SimHei-32" transform="translate(50 0)"/>
    </g>
   </g>
   <g id="text_14">
    <!-- 85 -->
    <g transform="translate(251.062964 97.512306) scale(0.11 -0.11)">
     <defs>
      <path id="SimHei-35" d="M 550 1325 
Q 725 650 1150 575 
Q 1575 500 1837 662 
Q 2100 825 2212 1087 
Q 2325 1350 2312 1675 
Q 2300 2000 2137 2225 
Q 1975 2450 1725 2525 
Q 1475 2600 1162 2525 
Q 850 2450 650 2175 
L 225 2225 
Q 275 2375 700 4375 
L 2675 4375 
L 2675 3925 
L 1075 3925 
Q 950 3250 825 2850 
Q 1200 3025 1525 3012 
Q 1850 3000 2150 2862 
Q 2450 2725 2587 2487 
Q 2725 2250 2787 2012 
Q 2850 1775 2837 1500 
Q 2825 1225 2725 937 
Q 2625 650 2425 462 
Q 2225 275 1937 162 
Q 1650 50 1275 75 
Q 900 100 562 350 
Q 225 600 100 1200 
L 550 1325 
z
" transform="scale(0.015625)"/>
     </defs>
     <use xlink:href="#SimHei-38"/>
     <use xlink:href="#SimHei-35" transform="translate(50 0)"/>
    </g>
   </g>
   <g id="text_15">
    <!-- 63 -->
    <g transform="translate(384.555786 167.208306) scale(0.11 -0.11)">
     <defs>
      <path id="SimHei-33" d="M 250 1225 
L 700 1300 
Q 800 975 1025 762 
Q 1250 550 1587 562 
Q 1925 575 2125 837 
Q 2325 1100 2300 1437 
Q 2275 1775 2037 1962 
Q 1800 2150 1275 2225 
L 1275 2550 
Q 1800 2600 2037 2825 
Q 2275 3050 2250 3412 
Q 2225 3775 1925 3937 
Q 1625 4100 1287 3975 
Q 950 3850 750 3275 
L 300 3350 
Q 450 3800 712 4100 
Q 975 4400 1425 4450 
Q 1875 4500 2212 4337 
Q 2550 4175 2687 3837 
Q 2825 3500 2725 3100 
Q 2625 2700 2150 2400 
Q 2500 2250 2687 1950 
Q 2875 1650 2812 1162 
Q 2750 675 2375 375 
Q 2000 75 1525 87 
Q 1050 100 700 387 
Q 350 675 250 1225 
z
" transform="scale(0.015625)"/>
     </defs>
     <use xlink:href="#SimHei-36"/>
     <use xlink:href="#SimHei-33" transform="translate(50 0)"/>
    </g>
   </g>
   <g id="text_16">
    <!-- 41 -->
    <g transform="translate(518.048609 236.904306) scale(0.11 -0.11)">
     <use xlink:href="#SimHei-34"/>
     <use xlink:href="#SimHei-31" transform="translate(50 0)"/>
    </g>
   </g>
   <g id="text_17">
    <!-- 主流新媒体平台传统文化传播热度对比图 -->
    <g transform="translate(188.309375 19.328906) scale(0.15 -0.15)">
     <defs>
      <path id="SimHei-4e3b" d="M 4750 3850 
Q 5150 3850 5750 3875 
L 5750 3400 
Q 5150 3425 4750 3425 
L 3425 3425 
L 3425 2175 
L 4425 2175 
Q 4825 2175 5375 2200 
L 5375 1725 
Q 4825 1750 4425 1750 
L 3425 1750 
L 3425 150 
L 5000 150 
Q 5450 150 6050 175 
L 6050 -300 
Q 5450 -275 5000 -275 
L 350 -275 
L 350 200 
Q 950 150 1425 150 
L 2900 150 
L 2900 1750 
L 1925 1750 
Q 1525 1750 975 1725 
L 975 2200 
Q 1575 2175 1925 2175 
L 2900 2175 
L 2900 3425 
L 1650 3425 
Q 1125 3425 625 3400 
L 625 3875 
Q 1175 3850 1675 3850 
L 4750 3850 
z
M 3175 3900 
Q 2875 4350 2400 4875 
Q 2650 5050 2800 5200 
Q 3325 4600 3625 4175 
Q 3475 4100 3175 3900 
z
" transform="scale(0.015625)"/>
      <path id="SimHei-6d41" d="M 3725 5250 
Q 3975 4875 4225 4450 
L 5025 4450 
Q 5425 4450 5925 4475 
L 5925 4025 
Q 5325 4050 5025 4050 
L 3425 4050 
Q 3625 3900 3775 3825 
Q 3650 3725 3450 3475 
Q 3250 3225 2850 2775 
Q 3750 2800 4775 2850 
Q 4525 3150 4275 3375 
Q 4525 3550 4625 3675 
Q 5325 2950 5800 2375 
Q 5575 2200 5400 2050 
Q 5200 2325 5050 2525 
Q 4500 2475 3562 2412 
Q 2625 2350 2300 2250 
Q 2225 2475 2075 2675 
Q 2325 2750 2675 3175 
Q 3025 3600 3250 4050 
L 2975 4050 
Q 2525 4050 2050 4000 
L 2050 4475 
Q 2525 4450 2975 4450 
L 3675 4450 
Q 3475 4800 3325 5000 
Q 3575 5125 3725 5250 
z
M 5025 2025 
Q 5000 1700 5000 1375 
L 5000 150 
Q 5000 -75 5225 -75 
L 5475 -75 
Q 5675 -75 5700 500 
Q 5900 350 6200 275 
Q 6050 -350 5887 -425 
Q 5725 -500 5500 -500 
L 5025 -500 
Q 4550 -500 4550 -25 
L 4550 1425 
Q 4550 1725 4525 2025 
L 5025 2025 
z
M 3125 1975 
Q 3075 1725 3037 1212 
Q 3000 700 2812 225 
Q 2625 -250 1950 -700 
Q 1775 -475 1575 -325 
Q 2075 -100 2312 287 
Q 2550 675 2575 1162 
Q 2600 1650 2575 2025 
Q 2825 1975 3125 1975 
z
M 4000 2025 
Q 3975 1875 3975 1400 
L 3975 300 
Q 3975 -25 4000 -500 
L 3475 -500 
Q 3500 -50 3500 300 
L 3500 1400 
Q 3500 1825 3475 2025 
L 4000 2025 
z
M 1900 1625 
Q 1650 1200 1350 562 
Q 1050 -75 850 -425 
Q 625 -250 325 -125 
Q 575 175 900 750 
Q 1225 1325 1450 1950 
Q 1650 1775 1900 1625 
z
M 625 3450 
Q 1200 3100 1725 2725 
Q 1525 2525 1375 2275 
Q 925 2700 325 3000 
Q 475 3200 625 3450 
z
M 925 4975 
Q 1500 4625 1900 4300 
Q 1725 4075 1550 3875 
Q 1150 4275 625 4575 
Q 800 4800 925 4975 
z
" transform="scale(0.015625)"/>
      <path id="SimHei-7edf" d="M 5150 4300 
Q 5525 4300 5950 4325 
L 5950 3875 
Q 5550 3900 5175 3900 
L 3775 3900 
Q 3975 3750 4250 3600 
Q 4050 3450 3837 3162 
Q 3625 2875 3225 2375 
Q 3800 2375 5025 2500 
Q 4925 2625 4625 2975 
Q 4850 3100 5025 3250 
Q 5450 2800 5950 2100 
Q 5700 1950 5525 1775 
Q 5375 1975 5275 2125 
Q 4925 2100 4825 2075 
L 4825 200 
Q 4825 -100 5075 -100 
L 5325 -100 
Q 5550 -100 5625 575 
Q 5850 400 6150 325 
Q 5925 -525 5525 -525 
L 4850 -525 
Q 4350 -525 4350 0 
L 4350 2025 
Q 4000 2000 3875 1975 
Q 3900 1050 3637 462 
Q 3375 -125 2625 -700 
Q 2500 -500 2175 -375 
Q 2575 -125 2850 175 
Q 3125 475 3275 850 
Q 3425 1225 3400 1925 
Q 3025 1900 2725 1825 
Q 2650 2200 2525 2475 
Q 2825 2500 3187 2975 
Q 3550 3450 3675 3900 
L 3275 3900 
Q 2950 3900 2475 3875 
L 2475 4325 
Q 2875 4300 3250 4300 
L 5150 4300 
z
M 1875 4825 
Q 1700 4600 1500 4250 
Q 1300 3900 900 3250 
Q 1375 3275 1650 3275 
Q 1850 3625 1975 3975 
Q 2250 3800 2550 3675 
Q 2375 3500 2075 3037 
Q 1775 2575 1225 1725 
Q 1950 1800 2500 1900 
Q 2375 1600 2375 1425 
Q 2150 1400 1587 1325 
Q 1025 1250 600 1125 
Q 525 1375 425 1625 
Q 700 1700 950 2075 
Q 1200 2450 1450 2900 
Q 1225 2875 925 2837 
Q 625 2800 425 2750 
Q 325 3000 200 3225 
Q 500 3300 862 4025 
Q 1225 4750 1275 5075 
Q 1575 4925 1875 4825 
z
M 2550 825 
Q 2525 575 2550 350 
Q 1975 200 1412 37 
Q 850 -125 550 -250 
Q 450 0 275 275 
Q 900 375 1450 500 
Q 2000 625 2550 825 
z
M 4100 5275 
Q 4375 4825 4500 4575 
Q 4325 4500 4025 4350 
Q 3825 4825 3650 5075 
Q 3950 5175 4100 5275 
z
" transform="scale(0.015625)"/>
      <path id="SimHei-6587" d="M 1250 3450 
Q 725 3450 350 3400 
L 350 3925 
Q 925 3900 1400 3900 
L 4950 3900 
Q 5400 3900 6025 3925 
L 6025 3400 
Q 5400 3425 4625 3425 
Q 4500 2650 4175 1987 
Q 3850 1325 3475 900 
Q 3950 475 4725 212 
Q 5500 -50 6075 -100 
Q 5850 -275 5675 -625 
Q 5250 -525 4575 -275 
Q 3900 -25 3125 575 
Q 2100 -275 675 -675 
Q 625 -450 325 -175 
Q 750 -125 1487 137 
Q 2225 400 2750 875 
Q 1875 1775 1500 3450 
L 1250 3450 
z
M 2025 3425 
Q 2225 2075 3100 1200 
Q 3900 2175 4100 3425 
L 2025 3425 
z
M 2850 5250 
Q 3125 4825 3500 4175 
Q 3300 4125 3050 3925 
Q 2700 4575 2425 5000 
Q 2600 5050 2850 5250 
z
" transform="scale(0.015625)"/>
      <path id="SimHei-5316" d="M 3925 5025 
Q 3900 4900 3900 4400 
L 3900 2625 
Q 4375 3025 4775 3450 
Q 5175 3875 5400 4300 
Q 5600 4100 5900 3925 
Q 5700 3700 5225 3212 
Q 4750 2725 4487 2512 
Q 4225 2300 3900 2025 
L 3900 450 
Q 3900 50 4225 50 
L 5200 50 
Q 5400 75 5462 262 
Q 5525 450 5575 850 
Q 5800 650 6150 600 
Q 6000 -100 5825 -250 
Q 5650 -400 5350 -400 
L 3950 -400 
Q 3425 -400 3400 200 
L 3400 1675 
Q 3225 1525 2962 1350 
Q 2700 1175 2375 975 
Q 2225 1225 2025 1400 
Q 2350 1550 2737 1787 
Q 3125 2025 3400 2250 
L 3400 4500 
Q 3400 4800 3375 5025 
L 3925 5025 
z
M 2400 4850 
Q 2175 4550 2075 4337 
Q 1975 4125 1825 3775 
L 1825 675 
Q 1825 -75 1850 -550 
L 1325 -550 
Q 1350 -125 1350 650 
L 1350 3050 
Q 1125 2725 962 2525 
Q 800 2325 675 2175 
Q 500 2375 275 2525 
Q 625 2850 875 3212 
Q 1125 3575 1312 3912 
Q 1500 4250 1625 4575 
Q 1750 4900 1825 5100 
Q 1975 4975 2400 4850 
z
" transform="scale(0.015625)"/>
      <path id="SimHei-5bf9" d="M 525 4250 
Q 900 4225 1400 4225 
L 2825 4225 
Q 2575 2625 2200 1750 
Q 2825 875 3125 400 
Q 2950 275 2725 75 
Q 2200 975 1950 1300 
Q 1650 775 1350 425 
Q 1050 75 600 -350 
Q 425 -125 200 -25 
Q 625 275 975 675 
Q 1325 1075 1650 1700 
Q 1050 2425 550 2900 
Q 700 3025 900 3225 
Q 1625 2425 1875 2150 
Q 2200 3050 2300 3825 
L 1400 3825 
Q 900 3825 525 3800 
L 525 4250 
z
M 2925 3700 
Q 3525 3675 3750 3675 
L 4825 3675 
L 4825 4425 
Q 4825 4750 4775 5125 
L 5350 5125 
Q 5325 4825 5325 4375 
L 5325 3675 
Q 5575 3675 6150 3700 
L 6150 3250 
Q 5575 3275 5325 3275 
L 5325 125 
Q 5350 -350 5012 -475 
Q 4675 -600 4250 -650 
Q 4175 -350 4025 -100 
Q 4575 -100 4712 -37 
Q 4850 25 4825 325 
L 4825 3275 
L 3775 3275 
Q 3550 3275 2925 3225 
L 2925 3700 
z
M 3450 2725 
Q 3875 1975 4175 1325 
Q 3850 1200 3700 1075 
Q 3475 1750 3050 2475 
Q 3225 2550 3450 2725 
z
" transform="scale(0.015625)"/>
      <path id="SimHei-6bd4" d="M 3775 5100 
Q 3750 4575 3750 4100 
L 3750 3050 
Q 4925 3600 5475 4175 
Q 5675 3900 5900 3675 
Q 5600 3500 5037 3187 
Q 4475 2875 3750 2550 
L 3750 450 
Q 3750 100 4050 100 
L 5000 100 
Q 5175 100 5262 250 
Q 5350 400 5450 900 
Q 5650 775 6025 675 
Q 5850 0 5650 -175 
Q 5450 -350 5225 -350 
L 3900 -350 
Q 3250 -350 3250 275 
L 3250 4000 
Q 3250 4550 3225 5100 
L 3775 5100 
z
M 1275 4975 
Q 1250 4575 1250 4000 
L 1250 3150 
L 1850 3150 
Q 2325 3150 2875 3175 
L 2875 2650 
Q 2325 2675 1850 2675 
L 1250 2675 
L 1250 475 
Q 1650 650 1962 812 
Q 2275 975 2850 1275 
Q 2900 950 2950 750 
Q 2375 475 1762 175 
Q 1150 -125 925 -325 
Q 750 -100 575 200 
Q 700 300 750 600 
L 750 3950 
Q 750 4550 725 4975 
L 1275 4975 
z
" transform="scale(0.015625)"/>
      <path id="SimHei-56fe" d="M 5800 4975 
Q 5775 4350 5775 3600 
L 5775 925 
Q 5775 150 5800 -600 
L 5300 -600 
L 5300 -275 
L 1125 -275 
L 1125 -650 
L 625 -650 
Q 650 125 650 950 
L 650 3600 
Q 650 4325 625 4975 
L 5800 4975 
z
M 5300 150 
L 5300 4575 
L 1125 4575 
L 1125 150 
L 5300 150 
z
M 3225 4250 
Q 3075 4100 2950 3925 
L 4625 3925 
Q 4525 3700 4300 3375 
Q 4075 3050 3600 2600 
Q 4350 2225 5075 2150 
Q 4900 1925 4775 1675 
Q 3850 1950 3225 2350 
Q 2500 1875 1675 1650 
Q 1600 1875 1400 2075 
Q 2200 2200 2875 2600 
Q 2525 2925 2375 3150 
Q 2150 2900 1900 2650 
Q 1725 2850 1525 2950 
Q 1950 3300 2250 3737 
Q 2550 4175 2675 4475 
Q 2925 4350 3225 4250 
z
M 2450 1275 
Q 3550 950 4100 725 
Q 3975 525 3850 300 
Q 2825 725 2275 850 
Q 2375 1050 2450 1275 
z
M 2925 2050 
Q 3775 1700 4075 1600 
Q 3950 1400 3850 1150 
Q 3000 1550 2700 1650 
Q 2825 1825 2925 2050 
z
M 2625 3450 
Q 3000 3025 3275 2850 
Q 3600 3100 3875 3525 
L 2675 3525 
L 2625 3450 
z
" transform="scale(0.015625)"/>
     </defs>
     <use xlink:href="#SimHei-4e3b"/>
     <use xlink:href="#SimHei-6d41" transform="translate(100 0)"/>
     <use xlink:href="#SimHei-65b0" transform="translate(200 0)"/>
     <use xlink:href="#SimHei-5a92" transform="translate(300 0)"/>
     <use xlink:href="#SimHei-4f53" transform="translate(400 0)"/>
     <use xlink:href="#SimHei-5e73" transform="translate(500 0)"/>
     <use xlink:href="#SimHei-53f0" transform="translate(600 0)"/>
     <use xlink:href="#SimHei-4f20" transform="translate(700 0)"/>
     <use xlink:href="#SimHei-7edf" transform="translate(800 0)"/>
     <use xlink:href="#SimHei-6587" transform="translate(900 0)"/>
     <use xlink:href="#SimHei-5316" transform="translate(1000 0)"/>
     <use xlink:href="#SimHei-4f20" transform="translate(1100 0)"/>
     <use xlink:href="#SimHei-64ad" transform="translate(1200 0)"/>
     <use xlink:href="#SimHei-70ed" transform="translate(1300 0)"/>
     <use xlink:href="#SimHei-5ea6" transform="translate(1400 0)"/>
     <use xlink:href="#SimHei-5bf9" transform="translate(1500 0)"/>
     <use xlink:href="#SimHei-6bd4" transform="translate(1600 0)"/>
     <use xlink:href="#SimHei-56fe" transform="translate(1700 0)"/>
    </g>
   </g>
  </g>
 </g>
 <defs>
  <clipPath id="p36d6d5b4e3">
   <rect x="44.309375" y="39.328906" width="558" height="332.64"/>
  </clipPath>
 </defs>
</svg>
