<?xml version="1.0" encoding="utf-8" standalone="no"?>
<!DOCTYPE svg PUBLIC "-//W3C//DTD SVG 1.1//EN"
  "http://www.w3.org/Graphics/SVG/1.1/DTD/svg11.dtd">
<svg xmlns:xlink="http://www.w3.org/1999/xlink" width="548.991347pt" height="545.5475pt" viewBox="0 0 548.991347 545.5475" xmlns="http://www.w3.org/2000/svg" version="1.1">
 <metadata>
  <rdf:RDF xmlns:dc="http://purl.org/dc/elements/1.1/" xmlns:cc="http://creativecommons.org/ns#" xmlns:rdf="http://www.w3.org/1999/02/22-rdf-syntax-ns#">
   <cc:Work>
    <dc:type rdf:resource="http://purl.org/dc/dcmitype/StillImage"/>
    <dc:date>2026-04-21T11:25:02.062914</dc:date>
    <dc:format>image/svg+xml</dc:format>
    <dc:creator>
     <cc:Agent>
      <dc:title>Matplotlib v3.10.8, https://matplotlib.org/</dc:title>
     </cc:Agent>
    </dc:creator>
   </cc:Work>
  </rdf:RDF>
 </metadata>
 <defs>
  <style type="text/css">*{stroke-linejoin: round; stroke-linecap: butt}</style>
 </defs>
 <g id="figure_1">
  <g id="patch_1">
   <path d="M 0 545.5475 
L 548.991347 545.5475 
L 548.991347 -0 
L 0 -0 
z
" style="fill: #ffffff"/>
  </g>
  <g id="axes_1">
   <g id="patch_2">
    <path d="M 174.757826 116.022686 
C 145.645829 132.830505 121.246616 156.723979 103.832807 185.477595 
C 86.418998 214.231211 76.548573 246.923632 75.140895 280.509784 
C 73.733218 314.095937 80.833392 347.499636 95.780087 377.60956 
C 110.726781 407.719484 133.041066 433.570835 160.644521 452.755738 
L 274.549826 288.8675 
z
" style="fill: #4d4d4d; stroke: #000000; stroke-linejoin: miter"/>
   </g>
   <g id="patch_3">
    <path d="M 160.644515 452.755736 
C 204.093691 482.953702 257.816662 494.667206 309.893063 485.297205 
C 361.969467 475.927191 408.240049 446.222035 438.438026 402.772859 
L 274.549826 288.8675 
z
" style="fill: #737373; stroke: #000000; stroke-linejoin: miter"/>
   </g>
   <g id="patch_4">
    <path d="M 438.438026 402.772859 
C 463.711992 366.408425 476.177986 322.646238 473.86031 278.422105 
C 471.542622 234.197968 454.570528 191.978561 425.633909 158.455174 
L 274.549826 288.8675 
z
" style="fill: #999999; stroke: #000000; stroke-linejoin: miter"/>
   </g>
   <g id="patch_5">
    <path d="M 425.633909 158.455174 
C 406.437749 136.216209 382.566075 118.487556 355.727982 106.538461 
C 328.889888 94.589366 299.741554 88.712034 270.370049 89.327278 
L 274.549826 288.8675 
z
" style="fill: #bfbfbf; stroke: #000000; stroke-linejoin: miter"/>
   </g>
   <g id="patch_6">
    <path d="M 270.370049 89.327278 
C 253.631432 89.677904 237.003256 92.133338 220.877708 96.635667 
C 204.75216 101.137997 189.257024 107.651558 174.757779 116.022713 
L 274.549826 288.8675 
z
" style="fill: #e6e6e6; stroke: #000000; stroke-linejoin: miter"/>
   </g>
   <g id="matplotlib.axis_1"/>
   <g id="matplotlib.axis_2"/>
   <g id="text_1">
    <!-- 非遗民俗 -->
    <g transform="translate(7.2 283.728756) scale(0.12 -0.12)">
     <defs>
      <path id="SimHei-975e" d="M 5950 675 
Q 5700 725 5275 725 
L 4025 725 
L 4025 150 
Q 4025 -325 4050 -600 
L 3525 -600 
Q 3550 -325 3550 100 
L 3550 4200 
Q 3550 4875 3525 5125 
L 4075 5125 
Q 4025 4875 4025 4600 
L 4025 4050 
L 5200 4050 
Q 5575 4050 5875 4075 
L 5875 3600 
Q 5575 3625 5150 3625 
L 4025 3625 
L 4025 2675 
L 5075 2675 
Q 5425 2675 5675 2700 
L 5675 2250 
Q 5450 2275 5075 2275 
L 4025 2275 
L 4025 1150 
L 5275 1150 
Q 5650 1150 5950 1175 
L 5950 675 
z
M 2150 4050 
L 2150 4600 
Q 2150 4775 2125 5075 
L 2675 5075 
Q 2650 4825 2650 4250 
L 2650 475 
Q 2650 -100 2675 -525 
L 2125 -525 
Q 2150 -100 2150 150 
L 2150 725 
L 1025 725 
Q 675 725 350 675 
L 350 1175 
Q 675 1150 1000 1150 
L 2150 1150 
L 2150 2275 
L 1400 2275 
Q 1050 2275 650 2250 
L 650 2700 
Q 1050 2675 1425 2675 
L 2150 2675 
L 2150 3625 
L 1100 3625 
Q 800 3625 425 3600 
L 425 4075 
Q 800 4050 1100 4050 
L 2150 4050 
z
" transform="scale(0.015625)"/>
      <path id="SimHei-9057" d="M 3750 4875 
Q 3750 5050 3725 5275 
L 4250 5275 
Q 4200 5025 4200 4875 
L 5575 4875 
Q 5525 4600 5525 4300 
Q 5525 4025 5575 3725 
L 4200 3725 
L 4200 3425 
L 5150 3425 
Q 5600 3450 6000 3450 
L 6000 3025 
Q 5600 3050 5150 3050 
L 2875 3050 
Q 2375 3050 1975 3025 
L 1975 3450 
Q 2400 3425 2850 3425 
L 3750 3425 
L 3750 3725 
L 2375 3725 
Q 2400 4050 2400 4325 
Q 2400 4600 2375 4875 
L 3750 4875 
z
M 1500 2950 
Q 1475 2400 1475 1925 
L 1475 525 
Q 2200 -75 3725 -87 
Q 5250 -100 6175 0 
Q 5975 -250 5900 -575 
Q 4850 -575 4137 -550 
Q 3425 -525 2937 -462 
Q 2450 -400 2137 -300 
Q 1825 -200 1550 -37 
Q 1275 125 1087 -62 
Q 900 -250 675 -625 
Q 475 -450 225 -250 
Q 600 75 1000 425 
L 1000 2550 
Q 675 2550 275 2525 
L 275 2975 
Q 700 2950 1000 2950 
L 1500 2950 
z
M 5575 2725 
Q 5525 2400 5525 2075 
Q 5525 1750 5575 1450 
L 5050 1450 
L 5050 2350 
L 2950 2350 
L 2950 1375 
L 2425 1375 
Q 2450 1750 2450 2050 
Q 2450 2375 2425 2725 
L 5575 2725 
z
M 4250 2150 
Q 4050 1475 3800 1037 
Q 3550 600 2400 250 
Q 2225 500 2000 725 
Q 3225 875 3437 1325 
Q 3650 1775 3700 2200 
L 4250 2150 
z
M 4450 1450 
Q 5350 1000 5875 750 
Q 5650 575 5500 350 
Q 4975 725 4150 1100 
L 4450 1450 
z
M 1100 4975 
Q 1475 4250 1675 3850 
Q 1425 3750 1200 3575 
Q 1075 3850 600 4725 
Q 775 4850 1100 4975 
z
M 5050 4100 
L 5050 4475 
L 4200 4475 
L 4200 4100 
L 5050 4100 
z
M 3750 4100 
L 3750 4475 
L 2900 4475 
L 2900 4100 
L 3750 4100 
z
" transform="scale(0.015625)"/>
      <path id="SimHei-6c11" d="M 3450 3175 
Q 3475 2700 3550 2300 
L 4825 2300 
Q 5175 2300 5650 2325 
L 5650 1850 
Q 5225 1875 4825 1875 
L 3625 1875 
Q 3875 900 4437 425 
Q 5000 -50 5200 -12 
Q 5400 25 5462 237 
Q 5525 450 5525 650 
Q 5775 475 6100 375 
Q 5900 -175 5725 -375 
Q 5550 -575 5150 -525 
Q 4750 -475 4412 -225 
Q 4075 25 3837 337 
Q 3600 650 3425 1025 
Q 3250 1400 3150 1875 
L 1400 1875 
L 1400 225 
Q 2025 525 2575 850 
Q 2600 550 2700 350 
Q 2175 125 1737 -112 
Q 1300 -350 950 -575 
Q 800 -350 625 -150 
Q 925 50 900 650 
L 900 3775 
Q 900 4350 875 4875 
L 5275 4875 
Q 5250 4425 5250 4050 
Q 5250 3700 5275 3175 
L 3450 3175 
z
M 4750 3575 
L 4750 4475 
L 1400 4475 
L 1400 3575 
L 4750 3575 
z
M 3075 2300 
Q 3000 2800 2975 3175 
L 1400 3175 
L 1400 2300 
L 3075 2300 
z
" transform="scale(0.015625)"/>
      <path id="SimHei-4fd7" d="M 4325 3900 
Q 4550 3225 5062 2775 
Q 5575 2325 6200 2200 
Q 6025 2025 5875 1725 
Q 5575 1800 5325 1950 
Q 5300 1750 5300 725 
Q 5300 -275 5325 -550 
L 4850 -550 
L 4850 -175 
L 3325 -175 
L 3325 -625 
L 2850 -625 
Q 2875 -300 2875 675 
Q 2875 1650 2850 1950 
Q 2575 1700 2150 1450 
Q 2000 1650 1725 1775 
Q 2600 2250 3087 2962 
Q 3575 3675 3750 4200 
Q 3950 4100 4400 4025 
L 4325 3900 
z
M 2050 5075 
Q 1850 4900 1525 3925 
L 1525 700 
Q 1525 -200 1550 -650 
L 1050 -650 
Q 1075 -200 1075 725 
L 1075 2975 
Q 850 2525 625 2125 
Q 425 2300 200 2400 
Q 475 2750 912 3675 
Q 1350 4600 1450 5275 
Q 1725 5150 2050 5075 
z
M 4850 250 
L 4850 1600 
L 3325 1600 
L 3325 250 
L 4850 250 
z
M 5200 2025 
Q 4450 2500 3975 3625 
Q 3575 2700 2925 2025 
L 5200 2025 
z
M 3775 4850 
Q 3500 4675 2500 3525 
Q 2250 3750 2050 3875 
Q 3000 4725 3225 5150 
Q 3450 5000 3775 4850 
z
M 4825 5175 
Q 5525 4600 6000 4150 
Q 5800 4050 5575 3775 
Q 5125 4350 4450 4875 
Q 4675 5000 4825 5175 
z
" transform="scale(0.015625)"/>
     </defs>
     <use xlink:href="#SimHei-975e"/>
     <use xlink:href="#SimHei-9057" transform="translate(100 0)"/>
     <use xlink:href="#SimHei-6c11" transform="translate(200 0)"/>
     <use xlink:href="#SimHei-4fd7" transform="translate(300 0)"/>
    </g>
   </g>
   <g id="text_2">
    <!-- 32.0% -->
    <g transform="translate(139.904466 287.227901) scale(0.12 -0.12)">
     <defs>
      <path id="SimHei-33" d="M 250 1225 
L 700 1300 
Q 800 975 1025 762 
Q 1250 550 1587 562 
Q 1925 575 2125 837 
Q 2325 1100 2300 1437 
Q 2275 1775 2037 1962 
Q 1800 2150 1275 2225 
L 1275 2550 
Q 1800 2600 2037 2825 
Q 2275 3050 2250 3412 
Q 2225 3775 1925 3937 
Q 1625 4100 1287 3975 
Q 950 3850 750 3275 
L 300 3350 
Q 450 3800 712 4100 
Q 975 4400 1425 4450 
Q 1875 4500 2212 4337 
Q 2550 4175 2687 3837 
Q 2825 3500 2725 3100 
Q 2625 2700 2150 2400 
Q 2500 2250 2687 1950 
Q 2875 1650 2812 1162 
Q 2750 675 2375 375 
Q 2000 75 1525 87 
Q 1050 100 700 387 
Q 350 675 250 1225 
z
" transform="scale(0.015625)"/>
      <path id="SimHei-32" d="M 300 250 
Q 325 625 650 925 
Q 975 1225 1475 1862 
Q 1975 2500 2125 2850 
Q 2275 3200 2237 3450 
Q 2200 3700 2000 3862 
Q 1800 4025 1537 4000 
Q 1275 3975 1037 3800 
Q 800 3625 675 3275 
L 200 3350 
Q 400 3925 712 4187 
Q 1025 4450 1450 4475 
Q 1700 4500 1900 4462 
Q 2100 4425 2312 4287 
Q 2525 4150 2662 3875 
Q 2800 3600 2762 3212 
Q 2725 2825 2375 2287 
Q 2025 1750 1025 600 
L 2825 600 
L 2825 150 
L 300 150 
L 300 250 
z
" transform="scale(0.015625)"/>
      <path id="SimHei-2e" d="M 1075 125 
L 500 125 
L 500 675 
L 1075 675 
L 1075 125 
z
" transform="scale(0.015625)"/>
      <path id="SimHei-30" d="M 225 2537 
Q 250 3200 412 3587 
Q 575 3975 875 4225 
Q 1175 4475 1612 4475 
Q 2050 4475 2375 4112 
Q 2700 3750 2800 3200 
Q 2900 2650 2862 1937 
Q 2825 1225 2612 775 
Q 2400 325 1975 150 
Q 1550 -25 1125 187 
Q 700 400 525 750 
Q 350 1100 275 1487 
Q 200 1875 225 2537 
z
M 750 2687 
Q 675 2000 800 1462 
Q 925 925 1212 700 
Q 1500 475 1800 612 
Q 2100 750 2237 1162 
Q 2375 1575 2375 2062 
Q 2375 2550 2337 2950 
Q 2300 3350 2112 3675 
Q 1925 4000 1612 4012 
Q 1300 4025 1062 3700 
Q 825 3375 750 2687 
z
" transform="scale(0.015625)"/>
      <path id="SimHei-25" d="M 1400 3325 
Q 1400 2600 1187 2400 
Q 975 2200 775 2200 
Q 575 2200 362 2400 
Q 150 2600 150 3325 
Q 150 4050 362 4250 
Q 575 4450 775 4450 
Q 975 4450 1187 4250 
Q 1400 4050 1400 3325 
z
M 2625 4375 
L 700 75 
L 500 150 
L 2425 4450 
L 2625 4375 
z
M 2975 1200 
Q 2975 475 2762 275 
Q 2550 75 2350 75 
Q 2150 75 1937 275 
Q 1725 475 1725 1200 
Q 1725 1925 1937 2125 
Q 2150 2325 2350 2325 
Q 2550 2325 2762 2125 
Q 2975 1925 2975 1200 
z
M 1000 3325 
Q 1000 3775 950 3925 
Q 900 4075 775 4075 
Q 650 4075 600 3925 
Q 550 3775 550 3325 
Q 550 2875 600 2725 
Q 650 2575 775 2575 
Q 900 2575 950 2725 
Q 1000 2875 1000 3325 
z
M 2575 1200 
Q 2575 1650 2525 1800 
Q 2475 1950 2350 1950 
Q 2225 1950 2175 1800 
Q 2125 1650 2125 1200 
Q 2125 750 2175 600 
Q 2225 450 2350 450 
Q 2475 450 2525 600 
Q 2575 750 2575 1200 
z
" transform="scale(0.015625)"/>
     </defs>
     <use xlink:href="#SimHei-33"/>
     <use xlink:href="#SimHei-32" transform="translate(50 0)"/>
     <use xlink:href="#SimHei-2e" transform="translate(100 0)"/>
     <use xlink:href="#SimHei-30" transform="translate(150 0)"/>
     <use xlink:href="#SimHei-25" transform="translate(200 0)"/>
    </g>
   </g>
   <g id="text_3">
    <!-- 传统饮食 -->
    <g transform="translate(313.427385 509.041737) scale(0.12 -0.12)">
     <defs>
      <path id="SimHei-4f20" d="M 5500 1975 
Q 5025 925 4700 250 
Q 4975 100 5450 -200 
Q 5300 -375 5125 -675 
Q 4700 -375 4012 12 
Q 3325 400 3050 525 
Q 3175 750 3275 950 
Q 3600 800 4275 475 
Q 4525 975 4750 1550 
L 2800 1550 
Q 2950 2000 3125 2650 
L 2575 2650 
Q 2200 2650 1925 2625 
L 1925 3075 
Q 2250 3050 2600 3050 
L 3200 3050 
Q 3300 3525 3350 3825 
L 2975 3825 
Q 2525 3825 2250 3800 
L 2250 4250 
Q 2550 4225 2950 4225 
L 3425 4225 
Q 3525 4950 3525 5225 
Q 3850 5150 4100 5125 
Q 4025 5000 3875 4225 
L 4950 4225 
Q 5350 4225 5700 4250 
L 5700 3800 
Q 5375 3825 4925 3825 
L 3825 3825 
Q 3775 3550 3675 3050 
L 5250 3050 
Q 5750 3050 6025 3075 
L 6025 2625 
Q 5725 2650 5250 2650 
L 3600 2650 
Q 3500 2250 3425 1975 
L 5500 1975 
z
M 2225 4875 
Q 2025 4675 1650 3750 
L 1650 550 
Q 1650 -25 1675 -525 
L 1125 -525 
Q 1175 -125 1175 525 
L 1175 3000 
Q 800 2400 550 2050 
Q 450 2250 200 2450 
Q 500 2800 925 3525 
Q 1350 4250 1625 5175 
Q 1850 5050 2225 4875 
z
" transform="scale(0.015625)"/>
      <path id="SimHei-7edf" d="M 5150 4300 
Q 5525 4300 5950 4325 
L 5950 3875 
Q 5550 3900 5175 3900 
L 3775 3900 
Q 3975 3750 4250 3600 
Q 4050 3450 3837 3162 
Q 3625 2875 3225 2375 
Q 3800 2375 5025 2500 
Q 4925 2625 4625 2975 
Q 4850 3100 5025 3250 
Q 5450 2800 5950 2100 
Q 5700 1950 5525 1775 
Q 5375 1975 5275 2125 
Q 4925 2100 4825 2075 
L 4825 200 
Q 4825 -100 5075 -100 
L 5325 -100 
Q 5550 -100 5625 575 
Q 5850 400 6150 325 
Q 5925 -525 5525 -525 
L 4850 -525 
Q 4350 -525 4350 0 
L 4350 2025 
Q 4000 2000 3875 1975 
Q 3900 1050 3637 462 
Q 3375 -125 2625 -700 
Q 2500 -500 2175 -375 
Q 2575 -125 2850 175 
Q 3125 475 3275 850 
Q 3425 1225 3400 1925 
Q 3025 1900 2725 1825 
Q 2650 2200 2525 2475 
Q 2825 2500 3187 2975 
Q 3550 3450 3675 3900 
L 3275 3900 
Q 2950 3900 2475 3875 
L 2475 4325 
Q 2875 4300 3250 4300 
L 5150 4300 
z
M 1875 4825 
Q 1700 4600 1500 4250 
Q 1300 3900 900 3250 
Q 1375 3275 1650 3275 
Q 1850 3625 1975 3975 
Q 2250 3800 2550 3675 
Q 2375 3500 2075 3037 
Q 1775 2575 1225 1725 
Q 1950 1800 2500 1900 
Q 2375 1600 2375 1425 
Q 2150 1400 1587 1325 
Q 1025 1250 600 1125 
Q 525 1375 425 1625 
Q 700 1700 950 2075 
Q 1200 2450 1450 2900 
Q 1225 2875 925 2837 
Q 625 2800 425 2750 
Q 325 3000 200 3225 
Q 500 3300 862 4025 
Q 1225 4750 1275 5075 
Q 1575 4925 1875 4825 
z
M 2550 825 
Q 2525 575 2550 350 
Q 1975 200 1412 37 
Q 850 -125 550 -250 
Q 450 0 275 275 
Q 900 375 1450 500 
Q 2000 625 2550 825 
z
M 4100 5275 
Q 4375 4825 4500 4575 
Q 4325 4500 4025 4350 
Q 3825 4825 3650 5075 
Q 3950 5175 4100 5275 
z
" transform="scale(0.015625)"/>
      <path id="SimHei-996e" d="M 4550 2825 
Q 4475 2650 4462 2437 
Q 4450 2225 4525 1775 
Q 4600 1325 4987 837 
Q 5375 350 5675 150 
Q 5975 -50 6200 -125 
Q 6000 -275 5725 -575 
Q 5000 -50 4637 475 
Q 4275 1000 4225 1200 
Q 3975 625 3575 150 
Q 3175 -325 2675 -675 
Q 2500 -425 2225 -300 
Q 2775 0 3125 362 
Q 3475 725 3625 1087 
Q 3775 1450 3850 1887 
Q 3925 2325 3900 2900 
Q 4200 2850 4550 2825 
z
M 4225 4975 
Q 4075 4750 4012 4525 
Q 3950 4300 3850 3975 
L 6025 3975 
Q 5950 3775 5837 3450 
Q 5725 3125 5650 2675 
Q 5375 2700 5100 2750 
Q 5175 3025 5225 3200 
L 5325 3550 
L 3725 3550 
Q 3450 2700 3225 2225 
Q 2950 2350 2700 2425 
Q 3050 2950 3262 3700 
Q 3475 4450 3575 5125 
Q 3875 5025 4225 4975 
z
M 1675 5025 
Q 1500 4800 1425 4575 
Q 1350 4350 1200 3975 
L 2875 3975 
Q 2550 3125 2425 2700 
Q 2125 2800 1925 2850 
Q 2000 3025 2075 3225 
Q 2150 3425 2200 3550 
L 1050 3550 
Q 950 3375 850 3150 
Q 750 2925 575 2625 
Q 375 2825 175 2900 
Q 625 3700 787 4175 
Q 950 4650 1075 5200 
Q 1275 5125 1675 5025 
z
M 1625 2800 
Q 1550 2500 1550 2000 
L 1550 425 
Q 1775 600 2000 787 
Q 2225 975 2425 1175 
Q 2475 975 2600 700 
Q 2375 525 1962 187 
Q 1550 -150 1250 -500 
Q 1075 -250 900 -50 
Q 1050 200 1050 525 
L 1050 2025 
Q 1050 2475 1025 2800 
L 1625 2800 
z
" transform="scale(0.015625)"/>
      <path id="SimHei-98df" d="M 3350 4950 
Q 4000 4200 4725 3737 
Q 5450 3275 6100 3175 
Q 5900 2925 5825 2650 
Q 5300 2825 4750 3150 
L 4750 2200 
Q 4750 1750 4775 1175 
L 2000 1175 
L 2000 25 
Q 2500 175 2975 350 
Q 2950 100 3000 -150 
Q 2625 -250 2312 -362 
Q 2000 -475 1575 -650 
Q 1450 -375 1325 -200 
Q 1500 0 1525 325 
L 1525 3075 
Q 1000 2675 600 2450 
Q 475 2700 250 2875 
Q 750 3100 1225 3412 
Q 1700 3725 2225 4300 
Q 2750 4875 2900 5275 
Q 3175 5150 3475 5075 
L 3350 4950 
z
M 5450 850 
Q 5275 775 4650 275 
Q 5150 50 5525 -175 
Q 5300 -375 5200 -625 
Q 4575 -250 4050 37 
Q 3525 325 2825 600 
Q 3000 825 3100 975 
Q 3775 675 4200 475 
Q 4800 950 5000 1225 
Q 5200 1050 5450 850 
z
M 4550 3250 
Q 4025 3525 3100 4625 
Q 2350 3675 1775 3250 
L 4550 3250 
z
M 4275 1575 
L 4275 2050 
L 2000 2050 
L 2000 1575 
L 4275 1575 
z
M 4275 2450 
L 4275 2850 
L 2000 2850 
L 2000 2450 
L 4275 2450 
z
M 3275 4100 
Q 3325 3825 3425 3500 
Q 3200 3450 2950 3375 
Q 2900 3700 2800 3975 
Q 3025 4025 3275 4100 
z
" transform="scale(0.015625)"/>
     </defs>
     <use xlink:href="#SimHei-4f20"/>
     <use xlink:href="#SimHei-7edf" transform="translate(100 0)"/>
     <use xlink:href="#SimHei-996e" transform="translate(200 0)"/>
     <use xlink:href="#SimHei-98df" transform="translate(300 0)"/>
    </g>
   </g>
   <g id="text_4">
    <!-- 25.0% -->
    <g transform="translate(280.755767 410.100323) scale(0.12 -0.12)">
     <defs>
      <path id="SimHei-35" d="M 550 1325 
Q 725 650 1150 575 
Q 1575 500 1837 662 
Q 2100 825 2212 1087 
Q 2325 1350 2312 1675 
Q 2300 2000 2137 2225 
Q 1975 2450 1725 2525 
Q 1475 2600 1162 2525 
Q 850 2450 650 2175 
L 225 2225 
Q 275 2375 700 4375 
L 2675 4375 
L 2675 3925 
L 1075 3925 
Q 950 3250 825 2850 
Q 1200 3025 1525 3012 
Q 1850 3000 2150 2862 
Q 2450 2725 2587 2487 
Q 2725 2250 2787 2012 
Q 2850 1775 2837 1500 
Q 2825 1225 2725 937 
Q 2625 650 2425 462 
Q 2225 275 1937 162 
Q 1650 50 1275 75 
Q 900 100 562 350 
Q 225 600 100 1200 
L 550 1325 
z
" transform="scale(0.015625)"/>
     </defs>
     <use xlink:href="#SimHei-32"/>
     <use xlink:href="#SimHei-35" transform="translate(50 0)"/>
     <use xlink:href="#SimHei-2e" transform="translate(100 0)"/>
     <use xlink:href="#SimHei-30" transform="translate(150 0)"/>
     <use xlink:href="#SimHei-25" transform="translate(200 0)"/>
    </g>
   </g>
   <g id="text_5">
    <!-- 古风音乐 -->
    <g transform="translate(493.791347 281.455586) scale(0.12 -0.12)">
     <defs>
      <path id="SimHei-53e4" d="M 2975 3900 
L 2975 4325 
Q 2975 4925 2900 5150 
L 3575 5150 
Q 3500 4775 3500 4350 
L 3500 3900 
L 5200 3900 
Q 5700 3900 6175 3950 
L 6175 3400 
Q 5725 3450 5150 3450 
L 3500 3450 
L 3500 2275 
L 5300 2275 
Q 5275 1875 5275 950 
Q 5275 25 5300 -500 
L 4725 -500 
L 4725 -25 
L 1675 -25 
L 1675 -575 
L 1100 -575 
Q 1125 -125 1125 775 
Q 1125 1700 1100 2275 
L 2975 2275 
L 2975 3450 
L 1425 3450 
Q 725 3450 250 3400 
L 250 3950 
Q 800 3900 1400 3900 
L 2975 3900 
z
M 4725 425 
L 4725 1825 
L 1675 1825 
L 1675 425 
L 4725 425 
z
" transform="scale(0.015625)"/>
      <path id="SimHei-98ce" d="M 5100 4950 
Q 5050 3950 5062 3137 
Q 5075 2325 5087 1825 
Q 5100 1325 5262 712 
Q 5425 100 5525 150 
Q 5625 200 5700 775 
Q 5925 550 6200 450 
Q 5950 -475 5687 -562 
Q 5425 -650 5175 -337 
Q 4925 -25 4787 575 
Q 4650 1175 4625 1862 
Q 4600 2550 4600 4500 
L 1500 4500 
Q 1500 2475 1437 1825 
Q 1375 1175 1187 525 
Q 1000 -125 625 -675 
Q 400 -425 275 -275 
Q 600 150 775 737 
Q 950 1325 1000 2062 
Q 1050 2800 1050 3675 
Q 1050 4550 1025 4950 
L 5100 4950 
z
M 4225 3625 
Q 4075 3425 3875 2950 
Q 3675 2475 3475 2100 
Q 4025 1200 4350 525 
Q 4100 400 3925 275 
Q 3750 700 3225 1625 
Q 2950 1250 2650 925 
Q 2350 600 1950 250 
Q 1750 525 1600 625 
Q 2000 875 2375 1287 
Q 2750 1700 2950 2025 
Q 2450 2825 1850 3450 
Q 2075 3600 2200 3750 
Q 2700 3175 3200 2475 
Q 3475 3000 3725 3925 
L 4225 3625 
z
" transform="scale(0.015625)"/>
      <path id="SimHei-97f3" d="M 5100 2100 
Q 5075 1725 5075 1350 
L 5075 375 
Q 5075 -125 5100 -600 
L 4550 -600 
L 4550 -250 
L 1825 -250 
L 1825 -625 
L 1300 -625 
Q 1325 -100 1325 500 
L 1325 1350 
Q 1325 1675 1300 2100 
L 5100 2100 
z
M 4150 4050 
Q 4475 3900 4725 3825 
Q 4550 3550 4462 3387 
Q 4375 3225 4250 2975 
L 5050 2975 
Q 5550 2975 6000 3000 
L 6000 2575 
Q 5550 2600 5050 2600 
L 1375 2600 
Q 875 2600 425 2575 
L 425 3000 
Q 900 2975 1375 2975 
L 2100 2975 
Q 1900 3500 1650 3825 
Q 1875 3950 2075 4075 
Q 2400 3575 2625 3200 
Q 2450 3100 2250 2975 
L 3750 2975 
Q 4050 3650 4150 4050 
z
M 3250 5275 
Q 3425 4825 3475 4525 
L 4750 4525 
Q 5100 4525 5575 4550 
L 5575 4125 
Q 5075 4150 4750 4150 
L 1625 4150 
Q 1150 4150 700 4125 
L 700 4550 
Q 1150 4525 1625 4525 
L 2900 4525 
Q 2875 4825 2700 5150 
Q 2975 5200 3250 5275 
z
M 4550 125 
L 4550 725 
L 1825 725 
L 1825 125 
L 4550 125 
z
M 4550 1100 
L 4550 1700 
L 1825 1700 
L 1825 1100 
L 4550 1100 
z
" transform="scale(0.015625)"/>
      <path id="SimHei-4e50" d="M 3100 2700 
L 3100 3200 
Q 3100 3400 3075 4050 
L 3650 4050 
Q 3625 3525 3625 3200 
L 3625 2700 
L 4925 2700 
Q 5425 2700 5875 2725 
L 5875 2225 
Q 5200 2250 4875 2250 
L 3625 2250 
L 3625 25 
Q 3625 -400 3300 -500 
Q 2975 -600 2375 -650 
Q 2300 -300 2175 -75 
Q 2650 -100 2875 -62 
Q 3100 -25 3100 175 
L 3100 2250 
L 1850 2250 
Q 1125 2225 925 2100 
Q 875 2275 675 2525 
Q 875 2675 962 2912 
Q 1050 3150 1175 4625 
Q 2375 4625 3487 4787 
Q 4600 4950 5100 5100 
Q 5275 4700 5425 4550 
Q 4600 4450 3562 4350 
Q 2525 4250 1675 4200 
Q 1550 3150 1475 2700 
L 3100 2700 
z
M 2425 1500 
Q 2225 1325 1725 787 
Q 1225 250 900 -75 
Q 775 75 500 300 
Q 875 600 1237 987 
Q 1600 1375 1950 1900 
Q 2225 1625 2425 1500 
z
M 4525 1750 
Q 4900 1425 5250 1087 
Q 5600 750 5975 375 
Q 5625 125 5500 -25 
Q 5150 425 4175 1375 
Q 4325 1500 4525 1750 
z
" transform="scale(0.015625)"/>
     </defs>
     <use xlink:href="#SimHei-53e4"/>
     <use xlink:href="#SimHei-98ce" transform="translate(100 0)"/>
     <use xlink:href="#SimHei-97f3" transform="translate(200 0)"/>
     <use xlink:href="#SimHei-4e50" transform="translate(300 0)"/>
    </g>
   </g>
   <g id="text_6">
    <!-- 21.0% -->
    <g transform="translate(379.13611 285.975206) scale(0.12 -0.12)">
     <defs>
      <path id="SimHei-31" d="M 1400 3600 
Q 1075 3275 575 2975 
L 575 3450 
Q 1200 3875 1600 4450 
L 1900 4450 
L 1900 150 
L 1400 150 
L 1400 3600 
z
" transform="scale(0.015625)"/>
     </defs>
     <use xlink:href="#SimHei-32"/>
     <use xlink:href="#SimHei-31" transform="translate(50 0)"/>
     <use xlink:href="#SimHei-2e" transform="translate(100 0)"/>
     <use xlink:href="#SimHei-30" transform="translate(150 0)"/>
     <use xlink:href="#SimHei-25" transform="translate(200 0)"/>
    </g>
   </g>
   <g id="text_7">
    <!-- 传统艺术 -->
    <g transform="translate(363.845604 92.407029) scale(0.12 -0.12)">
     <defs>
      <path id="SimHei-827a" d="M 5275 2950 
L 5275 2550 
Q 4825 2450 4537 2312 
Q 4250 2175 3850 1937 
Q 3450 1700 2900 1375 
Q 2350 1050 1887 650 
Q 1425 250 1650 162 
Q 1875 75 2425 75 
L 4825 75 
Q 5100 75 5187 237 
Q 5275 400 5300 925 
Q 5600 725 5950 675 
Q 5750 -125 5512 -237 
Q 5275 -350 4975 -350 
L 2000 -350 
Q 1500 -350 1237 -225 
Q 975 -100 975 200 
Q 975 500 1225 750 
Q 1475 1000 1875 1275 
Q 2275 1550 2812 1862 
Q 3350 2175 3925 2550 
L 2000 2550 
Q 1450 2550 925 2525 
L 925 2975 
Q 1450 2950 2000 2950 
L 5275 2950 
z
M 2100 4350 
Q 2100 4775 2075 5075 
L 2625 5075 
Q 2575 4775 2575 4350 
L 3850 4350 
Q 3850 4775 3825 5075 
L 4350 5075 
Q 4325 4775 4325 4350 
L 5200 4350 
Q 5625 4350 6050 4375 
L 6050 3900 
Q 5650 3925 5200 3925 
L 4325 3925 
Q 4325 3575 4350 3225 
L 3850 3225 
L 3850 3925 
L 2575 3925 
L 2575 3200 
L 2075 3200 
Q 2100 3575 2100 3925 
L 1225 3925 
Q 925 3925 475 3900 
L 475 4375 
Q 925 4350 1225 4350 
L 2100 4350 
z
" transform="scale(0.015625)"/>
      <path id="SimHei-672f" d="M 2925 3650 
L 2925 4125 
Q 2925 4725 2900 5125 
L 3475 5125 
Q 3450 4675 3450 4125 
L 3450 3650 
L 5025 3650 
Q 5450 3650 5950 3675 
L 5950 3175 
Q 5475 3200 5050 3200 
L 3900 3200 
Q 4050 2725 4287 2325 
Q 4525 1925 4825 1600 
Q 5125 1275 5475 1037 
Q 5825 800 6125 700 
Q 5825 450 5650 225 
Q 5200 500 4875 787 
Q 4550 1075 4250 1475 
Q 3950 1875 3762 2287 
Q 3575 2700 3450 3100 
L 3450 350 
Q 3450 -25 3475 -525 
L 2900 -525 
Q 2925 -25 2925 350 
L 2925 2975 
Q 2775 2600 2575 2200 
Q 2375 1800 2137 1475 
Q 1900 1150 1562 812 
Q 1225 475 700 75 
Q 550 300 225 500 
Q 575 675 937 975 
Q 1300 1275 1587 1637 
Q 1875 2000 2100 2412 
Q 2325 2825 2450 3200 
L 1400 3200 
Q 1000 3200 450 3175 
L 450 3675 
Q 1000 3650 1375 3650 
L 2925 3650 
z
M 4675 5075 
Q 4875 4875 5050 4675 
Q 5225 4475 5450 4150 
Q 5125 3925 5000 3800 
Q 4750 4200 4587 4425 
Q 4425 4650 4275 4800 
L 4675 5075 
z
" transform="scale(0.015625)"/>
     </defs>
     <use xlink:href="#SimHei-4f20"/>
     <use xlink:href="#SimHei-7edf" transform="translate(100 0)"/>
     <use xlink:href="#SimHei-827a" transform="translate(200 0)"/>
     <use xlink:href="#SimHei-672f" transform="translate(300 0)"/>
    </g>
   </g>
   <g id="text_8">
    <!-- 14.0% -->
    <g transform="translate(308.256614 182.845027) scale(0.12 -0.12)">
     <defs>
      <path id="SimHei-34" d="M 2000 1100 
L 75 1100 
L 75 1525 
L 2100 4450 
L 2475 4450 
L 2475 1525 
L 3075 1525 
L 3075 1100 
L 2475 1100 
L 2475 150 
L 2000 150 
L 2000 1100 
z
M 2000 1525 
L 2000 3500 
L 600 1525 
L 2000 1525 
z
" transform="scale(0.015625)"/>
     </defs>
     <use xlink:href="#SimHei-31"/>
     <use xlink:href="#SimHei-34" transform="translate(50 0)"/>
     <use xlink:href="#SimHei-2e" transform="translate(100 0)"/>
     <use xlink:href="#SimHei-30" transform="translate(150 0)"/>
     <use xlink:href="#SimHei-25" transform="translate(200 0)"/>
    </g>
   </g>
   <g id="text_9">
    <!-- 古典文学哲学 -->
    <g transform="translate(143.510496 81.537486) scale(0.12 -0.12)">
     <defs>
      <path id="SimHei-5178" d="M 5350 4250 
Q 5325 3900 5325 3450 
L 5325 1525 
Q 5875 1525 6100 1550 
L 6100 1075 
Q 5775 1100 5200 1100 
L 1000 1100 
Q 625 1100 375 1075 
L 375 1550 
Q 625 1525 1075 1525 
L 1075 3375 
Q 1075 3900 1050 4250 
L 2350 4250 
Q 2350 4925 2325 5150 
L 2875 5150 
Q 2850 4925 2825 4250 
L 3600 4250 
Q 3600 4900 3575 5175 
L 4125 5175 
Q 4100 4950 4075 4250 
L 5350 4250 
z
M 5500 -525 
Q 5150 -200 3725 500 
L 4075 900 
Q 4375 750 4950 450 
Q 5525 150 5900 -75 
Q 5700 -275 5500 -525 
z
M 2800 425 
Q 1475 -350 950 -625 
Q 775 -400 550 -225 
Q 1150 0 1575 250 
Q 2000 500 2325 825 
Q 2550 625 2800 425 
z
M 2350 1525 
L 2350 2550 
L 1575 2550 
L 1575 1525 
L 2350 1525 
z
M 3600 1525 
L 3600 2550 
L 2825 2550 
L 2825 1525 
L 3600 1525 
z
M 4825 1525 
L 4825 2550 
L 4075 2550 
L 4075 1525 
L 4825 1525 
z
M 3600 2975 
L 3600 3825 
L 2825 3825 
L 2825 2975 
L 3600 2975 
z
M 2350 2975 
L 2350 3825 
L 1575 3825 
L 1575 2975 
L 2350 2975 
z
M 4825 2975 
L 4825 3825 
L 4075 3825 
L 4075 2975 
L 4825 2975 
z
" transform="scale(0.015625)"/>
      <path id="SimHei-6587" d="M 1250 3450 
Q 725 3450 350 3400 
L 350 3925 
Q 925 3900 1400 3900 
L 4950 3900 
Q 5400 3900 6025 3925 
L 6025 3400 
Q 5400 3425 4625 3425 
Q 4500 2650 4175 1987 
Q 3850 1325 3475 900 
Q 3950 475 4725 212 
Q 5500 -50 6075 -100 
Q 5850 -275 5675 -625 
Q 5250 -525 4575 -275 
Q 3900 -25 3125 575 
Q 2100 -275 675 -675 
Q 625 -450 325 -175 
Q 750 -125 1487 137 
Q 2225 400 2750 875 
Q 1875 1775 1500 3450 
L 1250 3450 
z
M 2025 3425 
Q 2225 2075 3100 1200 
Q 3900 2175 4100 3425 
L 2025 3425 
z
M 2850 5250 
Q 3125 4825 3500 4175 
Q 3300 4125 3050 3925 
Q 2700 4575 2425 5000 
Q 2600 5050 2850 5250 
z
" transform="scale(0.015625)"/>
      <path id="SimHei-5b66" d="M 4875 2675 
L 4875 2150 
Q 4525 2075 4237 1912 
Q 3950 1750 3575 1575 
L 3575 1350 
L 5150 1350 
Q 5450 1350 5925 1375 
L 5925 875 
Q 5425 900 5150 900 
L 3575 900 
L 3575 -125 
Q 3575 -475 3300 -562 
Q 3025 -650 2400 -700 
Q 2325 -425 2150 -150 
L 2825 -150 
Q 3075 -150 3075 125 
L 3075 900 
L 1350 900 
Q 950 900 450 875 
L 450 1375 
Q 975 1350 1325 1350 
L 3075 1350 
Q 3075 1550 3025 1800 
L 3925 2250 
L 2550 2250 
Q 2075 2250 1475 2225 
L 1475 2700 
Q 2025 2675 2525 2675 
L 4875 2675 
z
M 5350 4975 
Q 4850 4400 4500 3800 
L 5875 3800 
Q 5850 3575 5850 3275 
Q 5850 2975 5875 2700 
L 5350 2700 
L 5350 3375 
L 1025 3375 
L 1025 2675 
L 500 2675 
Q 525 2975 525 3275 
Q 525 3575 500 3800 
L 3975 3800 
Q 4175 4150 4387 4537 
Q 4600 4925 4725 5300 
Q 5125 5075 5350 4975 
z
M 2950 5225 
Q 3425 4625 3575 4350 
Q 3350 4175 3100 4025 
Q 2900 4425 2500 4925 
Q 2750 5100 2950 5225 
z
M 1250 5050 
Q 1700 4675 2025 4275 
Q 1750 4075 1600 3900 
Q 1275 4375 850 4725 
Q 1125 4925 1250 5050 
z
" transform="scale(0.015625)"/>
      <path id="SimHei-54f2" d="M 5225 1450 
Q 5200 1050 5200 625 
L 5200 0 
Q 5200 -350 5225 -675 
L 4675 -675 
L 4675 -350 
L 1675 -350 
L 1675 -700 
L 1125 -700 
Q 1150 -350 1150 0 
L 1150 625 
Q 1150 1050 1125 1450 
L 5225 1450 
z
M 5800 4525 
Q 5525 4475 4987 4437 
Q 4450 4400 3750 4350 
L 3750 3650 
L 5350 3650 
Q 5650 3650 6025 3675 
L 6025 3250 
Q 5675 3275 5350 3275 
L 5000 3275 
L 5000 2475 
Q 5000 2150 5025 1700 
L 4525 1700 
Q 4550 2150 4550 2475 
L 4550 3275 
L 3725 3275 
Q 3700 2725 3462 2325 
Q 3225 1925 2900 1575 
Q 2725 1800 2400 1900 
Q 2825 2200 3025 2612 
Q 3225 3025 3250 3425 
Q 3275 3825 3250 4162 
Q 3225 4500 3225 4650 
Q 3550 4675 3825 4687 
Q 4100 4700 4625 4787 
Q 5150 4875 5475 5050 
Q 5525 4925 5800 4525 
z
M 1425 4375 
Q 1425 4850 1400 4975 
L 1900 4975 
Q 1875 4850 1875 4375 
Q 2450 4375 2825 4400 
L 2825 3950 
Q 2475 3975 1875 3975 
L 1875 3400 
Q 2075 3425 2675 3525 
L 2675 3125 
Q 2100 3050 1875 3000 
L 1875 2275 
Q 1850 1900 1662 1787 
Q 1475 1675 875 1650 
Q 850 2000 750 2175 
Q 1150 2150 1287 2175 
Q 1425 2200 1425 2400 
L 1425 2925 
Q 700 2825 425 2725 
Q 400 2875 325 3250 
Q 700 3275 1425 3350 
L 1425 3975 
Q 700 3975 400 3950 
L 400 4400 
Q 700 4375 1425 4375 
z
M 4675 50 
L 4675 1050 
L 1675 1050 
L 1675 50 
L 4675 50 
z
" transform="scale(0.015625)"/>
     </defs>
     <use xlink:href="#SimHei-53e4"/>
     <use xlink:href="#SimHei-5178" transform="translate(100 0)"/>
     <use xlink:href="#SimHei-6587" transform="translate(200 0)"/>
     <use xlink:href="#SimHei-5b66" transform="translate(300 0)"/>
     <use xlink:href="#SimHei-54f2" transform="translate(400 0)"/>
     <use xlink:href="#SimHei-5b66" transform="translate(500 0)"/>
    </g>
   </g>
   <g id="text_10">
    <!-- 8.0% -->
    <g transform="translate(230.346555 176.903402) scale(0.12 -0.12)">
     <defs>
      <path id="SimHei-38" d="M 175 1375 
Q 175 1675 325 1962 
Q 475 2250 825 2425 
Q 525 2600 425 2812 
Q 325 3025 312 3300 
Q 300 3575 387 3775 
Q 475 3975 650 4150 
Q 825 4325 1037 4387 
Q 1250 4450 1500 4450 
Q 1750 4450 1950 4400 
Q 2150 4350 2375 4187 
Q 2600 4025 2700 3725 
Q 2800 3425 2687 3025 
Q 2575 2625 2100 2400 
Q 2525 2275 2700 2012 
Q 2875 1750 2875 1375 
Q 2875 1000 2762 775 
Q 2650 550 2512 400 
Q 2375 250 2137 162 
Q 1900 75 1537 75 
Q 1175 75 912 162 
Q 650 250 475 425 
Q 300 600 237 837 
Q 175 1075 175 1375 
z
M 687 1400 
Q 675 1100 787 875 
Q 900 650 1200 587 
Q 1500 525 1825 600 
Q 2150 675 2275 950 
Q 2400 1225 2362 1500 
Q 2325 1775 2050 1962 
Q 1775 2150 1450 2125 
Q 1125 2100 912 1900 
Q 700 1700 687 1400 
z
M 775 3350 
Q 775 3100 950 2875 
Q 1125 2650 1500 2650 
Q 1875 2650 2062 2875 
Q 2250 3100 2237 3412 
Q 2225 3725 2012 3875 
Q 1800 4025 1437 4000 
Q 1075 3975 925 3787 
Q 775 3600 775 3350 
z
" transform="scale(0.015625)"/>
     </defs>
     <use xlink:href="#SimHei-38"/>
     <use xlink:href="#SimHei-2e" transform="translate(50 0)"/>
     <use xlink:href="#SimHei-30" transform="translate(100 0)"/>
     <use xlink:href="#SimHei-25" transform="translate(150 0)"/>
    </g>
   </g>
   <g id="text_11">
    <!-- 传统文化内容类型占比分布图 -->
    <g transform="translate(177.049826 19.3875) scale(0.15 -0.15)">
     <defs>
      <path id="SimHei-5316" d="M 3925 5025 
Q 3900 4900 3900 4400 
L 3900 2625 
Q 4375 3025 4775 3450 
Q 5175 3875 5400 4300 
Q 5600 4100 5900 3925 
Q 5700 3700 5225 3212 
Q 4750 2725 4487 2512 
Q 4225 2300 3900 2025 
L 3900 450 
Q 3900 50 4225 50 
L 5200 50 
Q 5400 75 5462 262 
Q 5525 450 5575 850 
Q 5800 650 6150 600 
Q 6000 -100 5825 -250 
Q 5650 -400 5350 -400 
L 3950 -400 
Q 3425 -400 3400 200 
L 3400 1675 
Q 3225 1525 2962 1350 
Q 2700 1175 2375 975 
Q 2225 1225 2025 1400 
Q 2350 1550 2737 1787 
Q 3125 2025 3400 2250 
L 3400 4500 
Q 3400 4800 3375 5025 
L 3925 5025 
z
M 2400 4850 
Q 2175 4550 2075 4337 
Q 1975 4125 1825 3775 
L 1825 675 
Q 1825 -75 1850 -550 
L 1325 -550 
Q 1350 -125 1350 650 
L 1350 3050 
Q 1125 2725 962 2525 
Q 800 2325 675 2175 
Q 500 2375 275 2525 
Q 625 2850 875 3212 
Q 1125 3575 1312 3912 
Q 1500 4250 1625 4575 
Q 1750 4900 1825 5100 
Q 1975 4975 2400 4850 
z
" transform="scale(0.015625)"/>
      <path id="SimHei-5185" d="M 1425 1300 
Q 2175 1825 2537 2375 
Q 2900 2925 2925 3750 
L 1225 3750 
L 1225 -500 
L 650 -500 
Q 700 0 700 350 
L 700 3125 
Q 700 3625 675 4175 
L 2950 4175 
Q 2950 4850 2925 5175 
Q 3325 5150 3550 5150 
Q 3425 4825 3425 4175 
L 5775 4175 
Q 5725 3650 5725 3125 
L 5725 75 
Q 5725 -300 5425 -387 
Q 5125 -475 4600 -550 
Q 4525 -300 4250 0 
Q 4850 0 5025 37 
Q 5200 75 5200 275 
L 5200 3750 
L 3400 3750 
Q 3400 3300 3325 2875 
Q 3550 2700 4125 2262 
Q 4700 1825 4950 1575 
Q 4675 1350 4525 1175 
Q 4100 1675 3175 2425 
Q 2725 1650 2000 975 
Q 1700 1225 1425 1300 
z
" transform="scale(0.015625)"/>
      <path id="SimHei-5bb9" d="M 3350 2725 
Q 4025 2150 4687 1850 
Q 5350 1550 6100 1425 
Q 5875 1250 5800 950 
Q 5325 1075 4850 1275 
Q 4850 -200 4875 -575 
L 4400 -575 
L 4400 -225 
L 2050 -225 
L 2050 -650 
L 1575 -650 
Q 1600 -325 1600 1275 
Q 1125 1050 550 825 
Q 450 1025 225 1250 
Q 1325 1500 2137 2137 
Q 2950 2775 3125 3275 
Q 3375 3125 3600 3025 
L 3350 2725 
z
M 5750 4350 
Q 5725 4125 5725 3875 
Q 5725 3625 5750 3400 
L 5250 3400 
L 5250 4000 
L 1200 4000 
L 1200 3375 
L 700 3375 
Q 725 3650 725 3875 
Q 725 4125 700 4350 
L 5750 4350 
z
M 4400 150 
L 4400 1025 
L 2050 1025 
L 2050 150 
L 4400 150 
z
M 4625 1400 
Q 3875 1700 3100 2425 
Q 2525 1850 1750 1400 
L 4625 1400 
z
M 4000 3725 
Q 5175 3075 5550 2850 
Q 5375 2650 5250 2450 
Q 4400 3025 3725 3375 
Q 3925 3575 4000 3725 
z
M 775 2775 
Q 1875 3225 2325 3700 
Q 2400 3575 2650 3325 
Q 1725 2700 1100 2425 
Q 975 2625 775 2775 
z
M 2650 5025 
Q 2850 5125 3125 5300 
Q 3400 4950 3575 4600 
Q 3225 4475 3075 4375 
Q 3050 4475 2650 5025 
z
" transform="scale(0.015625)"/>
      <path id="SimHei-7c7b" d="M 2125 3875 
Q 1750 4375 1325 4725 
Q 1525 4875 1675 5050 
L 2525 4225 
Q 2400 4125 2200 3875 
L 3025 3875 
L 3025 4550 
Q 3025 4900 3000 5125 
L 3525 5125 
Q 3500 4850 3500 4550 
L 3500 3875 
L 4325 3875 
Q 4125 4050 4000 4150 
Q 4450 4575 4800 5175 
Q 5000 5000 5275 4825 
Q 5100 4675 4912 4475 
Q 4725 4275 4400 3875 
L 5025 3875 
Q 5425 3875 5900 3900 
L 5900 3450 
Q 5425 3475 5025 3475 
L 3500 3475 
L 3500 3050 
Q 3500 2650 3525 2175 
L 3175 2175 
Q 3475 2075 3675 2000 
Q 3575 1875 3525 1575 
L 5025 1575 
Q 5525 1575 6025 1600 
L 6025 1150 
Q 5550 1175 5050 1175 
L 3675 1175 
Q 4050 600 4712 275 
Q 5375 -50 6050 -175 
Q 5850 -350 5725 -675 
Q 4975 -450 4350 -37 
Q 3725 375 3300 950 
Q 3050 350 2425 -50 
Q 1800 -450 775 -700 
Q 650 -425 475 -225 
Q 1375 -100 2012 225 
Q 2650 550 2900 1175 
L 1625 1175 
Q 1025 1175 525 1150 
L 525 1600 
Q 950 1575 1600 1575 
L 3025 1575 
Q 3075 1825 3100 2175 
L 3000 2175 
Q 3025 2675 3025 3050 
L 3025 3325 
Q 2725 2900 2237 2550 
Q 1750 2200 925 1825 
Q 850 2025 625 2275 
Q 1175 2400 1725 2737 
Q 2275 3075 2600 3475 
L 1550 3475 
Q 1050 3475 600 3425 
L 600 3900 
Q 1075 3875 1550 3875 
L 2125 3875 
z
M 4100 3450 
Q 4850 3000 5800 2350 
Q 5575 2125 5425 1925 
Q 4700 2550 3825 3075 
Q 3975 3250 4100 3450 
z
" transform="scale(0.015625)"/>
      <path id="SimHei-578b" d="M 2625 1775 
Q 2650 2325 2650 2700 
L 2650 3000 
L 1825 3000 
Q 1725 2375 1425 2000 
Q 1125 1625 775 1425 
Q 650 1650 375 1900 
Q 850 2075 1062 2362 
Q 1275 2650 1350 3000 
Q 900 3000 375 2975 
L 375 3450 
Q 925 3425 1400 3425 
Q 1425 3950 1425 4475 
Q 1075 4475 700 4450 
L 700 4900 
Q 1050 4875 1525 4875 
L 3000 4875 
Q 3275 4875 3650 4900 
L 3650 4450 
Q 3325 4475 3125 4475 
L 3125 3425 
Q 3450 3425 3825 3450 
L 3825 2975 
Q 3450 3000 3125 3000 
L 3125 2675 
Q 3125 2225 3150 1775 
L 2625 1775 
z
M 3000 1175 
Q 3000 1375 2975 1725 
L 3500 1725 
Q 3475 1375 3475 1175 
L 4550 1175 
Q 5050 1175 5450 1200 
L 5450 725 
Q 4975 750 4550 750 
L 3475 750 
L 3475 -50 
L 5275 -50 
Q 5700 -50 6100 -25 
L 6100 -500 
Q 5725 -475 5300 -475 
L 1250 -475 
Q 775 -475 400 -500 
L 400 -25 
Q 775 -50 1250 -50 
L 3000 -50 
L 3000 750 
L 2025 750 
Q 1500 750 975 725 
L 1050 1200 
Q 1500 1175 2025 1175 
L 3000 1175 
z
M 5775 5200 
Q 5750 4775 5750 4325 
L 5750 2400 
Q 5775 1950 5612 1775 
Q 5450 1600 4900 1525 
Q 4825 1775 4675 2100 
Q 5175 2075 5237 2150 
Q 5300 2225 5300 2525 
L 5300 4325 
Q 5300 4775 5275 5200 
L 5775 5200 
z
M 4600 4750 
Q 4575 4450 4575 3975 
L 4575 3200 
Q 4575 2825 4600 2425 
L 4100 2425 
Q 4125 2825 4125 3200 
L 4125 3975 
Q 4125 4450 4100 4750 
L 4600 4750 
z
M 2650 3425 
L 2650 4475 
L 1875 4475 
Q 1850 3750 1850 3425 
L 2650 3425 
z
" transform="scale(0.015625)"/>
      <path id="SimHei-5360" d="M 2725 4400 
Q 2725 4800 2700 5075 
L 3375 5075 
Q 3350 4775 3350 4400 
L 3350 4000 
L 5250 4000 
Q 5900 4000 6150 4025 
L 6150 3525 
Q 5900 3550 5300 3550 
L 3350 3550 
L 3350 2325 
L 5450 2325 
Q 5400 2000 5400 1525 
L 5400 325 
Q 5400 -250 5450 -550 
L 4850 -550 
L 4850 -25 
L 1475 -25 
L 1475 -550 
L 875 -550 
Q 900 -150 900 175 
L 900 1550 
Q 900 2000 875 2325 
L 2725 2325 
L 2725 4400 
z
M 4850 425 
L 4850 1875 
L 1475 1875 
L 1475 425 
L 4850 425 
z
" transform="scale(0.015625)"/>
      <path id="SimHei-6bd4" d="M 3775 5100 
Q 3750 4575 3750 4100 
L 3750 3050 
Q 4925 3600 5475 4175 
Q 5675 3900 5900 3675 
Q 5600 3500 5037 3187 
Q 4475 2875 3750 2550 
L 3750 450 
Q 3750 100 4050 100 
L 5000 100 
Q 5175 100 5262 250 
Q 5350 400 5450 900 
Q 5650 775 6025 675 
Q 5850 0 5650 -175 
Q 5450 -350 5225 -350 
L 3900 -350 
Q 3250 -350 3250 275 
L 3250 4000 
Q 3250 4550 3225 5100 
L 3775 5100 
z
M 1275 4975 
Q 1250 4575 1250 4000 
L 1250 3150 
L 1850 3150 
Q 2325 3150 2875 3175 
L 2875 2650 
Q 2325 2675 1850 2675 
L 1250 2675 
L 1250 475 
Q 1650 650 1962 812 
Q 2275 975 2850 1275 
Q 2900 950 2950 750 
Q 2375 475 1762 175 
Q 1150 -125 925 -325 
Q 750 -100 575 200 
Q 700 300 750 600 
L 750 3950 
Q 750 4550 725 4975 
L 1275 4975 
z
" transform="scale(0.015625)"/>
      <path id="SimHei-5206" d="M 1000 -650 
Q 825 -375 575 -225 
Q 975 -75 1300 137 
Q 1625 350 1875 662 
Q 2125 975 2250 1350 
Q 2375 1725 2425 2275 
Q 1850 2275 1500 2250 
L 1500 2775 
Q 1900 2750 2525 2750 
L 5025 2750 
Q 4975 2375 4950 2100 
L 4750 250 
Q 4700 -200 4350 -350 
Q 4000 -500 3575 -525 
Q 3550 -275 3325 50 
Q 3850 25 4037 87 
Q 4225 150 4275 525 
L 4450 2275 
L 2950 2275 
Q 2875 1625 2737 1187 
Q 2600 750 2350 425 
Q 2100 100 1750 -175 
Q 1400 -450 1000 -650 
z
M 3950 5175 
Q 4125 4650 4662 3975 
Q 5200 3300 6175 2800 
Q 5975 2625 5775 2275 
Q 5325 2600 4987 2887 
Q 4650 3175 4425 3425 
Q 4200 3675 3925 4137 
Q 3650 4600 3475 5000 
Q 3750 5075 3950 5175 
z
M 2700 4825 
Q 2475 4425 2325 4125 
Q 2175 3825 2025 3587 
Q 1875 3350 1575 2950 
Q 1275 2550 850 2125 
Q 625 2350 400 2475 
Q 900 2925 1187 3300 
Q 1475 3675 1737 4112 
Q 2000 4550 2200 5075 
Q 2400 4925 2700 4825 
z
" transform="scale(0.015625)"/>
      <path id="SimHei-5e03" d="M 2375 4225 
Q 2650 4775 2775 5300 
Q 3125 5175 3400 5075 
Q 3275 4975 2950 4225 
L 4800 4225 
Q 5550 4225 6025 4250 
L 6025 3800 
L 2725 3800 
Q 2325 3100 1975 2675 
L 3275 2675 
Q 3275 3225 3250 3575 
L 3775 3575 
Q 3750 3225 3750 2675 
L 5500 2675 
Q 5475 2225 5475 1775 
L 5475 750 
Q 5475 275 5212 150 
Q 4950 25 4450 -25 
Q 4400 325 4225 550 
Q 4800 550 4912 625 
Q 5025 700 5000 1025 
L 5000 2250 
L 3750 2250 
L 3750 550 
Q 3750 25 3775 -600 
L 3250 -600 
Q 3275 25 3275 550 
L 3275 2250 
L 2100 2250 
L 2100 0 
L 1600 0 
Q 1625 525 1625 1025 
L 1625 2225 
Q 1300 1850 650 1275 
Q 475 1475 200 1650 
Q 750 2025 1262 2562 
Q 1775 3100 2150 3800 
L 1550 3800 
Q 925 3800 400 3775 
L 400 4250 
Q 925 4225 1550 4225 
L 2375 4225 
z
" transform="scale(0.015625)"/>
      <path id="SimHei-56fe" d="M 5800 4975 
Q 5775 4350 5775 3600 
L 5775 925 
Q 5775 150 5800 -600 
L 5300 -600 
L 5300 -275 
L 1125 -275 
L 1125 -650 
L 625 -650 
Q 650 125 650 950 
L 650 3600 
Q 650 4325 625 4975 
L 5800 4975 
z
M 5300 150 
L 5300 4575 
L 1125 4575 
L 1125 150 
L 5300 150 
z
M 3225 4250 
Q 3075 4100 2950 3925 
L 4625 3925 
Q 4525 3700 4300 3375 
Q 4075 3050 3600 2600 
Q 4350 2225 5075 2150 
Q 4900 1925 4775 1675 
Q 3850 1950 3225 2350 
Q 2500 1875 1675 1650 
Q 1600 1875 1400 2075 
Q 2200 2200 2875 2600 
Q 2525 2925 2375 3150 
Q 2150 2900 1900 2650 
Q 1725 2850 1525 2950 
Q 1950 3300 2250 3737 
Q 2550 4175 2675 4475 
Q 2925 4350 3225 4250 
z
M 2450 1275 
Q 3550 950 4100 725 
Q 3975 525 3850 300 
Q 2825 725 2275 850 
Q 2375 1050 2450 1275 
z
M 2925 2050 
Q 3775 1700 4075 1600 
Q 3950 1400 3850 1150 
Q 3000 1550 2700 1650 
Q 2825 1825 2925 2050 
z
M 2625 3450 
Q 3000 3025 3275 2850 
Q 3600 3100 3875 3525 
L 2675 3525 
L 2625 3450 
z
" transform="scale(0.015625)"/>
     </defs>
     <use xlink:href="#SimHei-4f20"/>
     <use xlink:href="#SimHei-7edf" transform="translate(100 0)"/>
     <use xlink:href="#SimHei-6587" transform="translate(200 0)"/>
     <use xlink:href="#SimHei-5316" transform="translate(300 0)"/>
     <use xlink:href="#SimHei-5185" transform="translate(400 0)"/>
     <use xlink:href="#SimHei-5bb9" transform="translate(500 0)"/>
     <use xlink:href="#SimHei-7c7b" transform="translate(600 0)"/>
     <use xlink:href="#SimHei-578b" transform="translate(700 0)"/>
     <use xlink:href="#SimHei-5360" transform="translate(800 0)"/>
     <use xlink:href="#SimHei-6bd4" transform="translate(900 0)"/>
     <use xlink:href="#SimHei-5206" transform="translate(1000 0)"/>
     <use xlink:href="#SimHei-5e03" transform="translate(1100 0)"/>
     <use xlink:href="#SimHei-56fe" transform="translate(1200 0)"/>
    </g>
   </g>
  </g>
 </g>
</svg>
