<?xml version="1.0" encoding="utf-8" standalone="no"?>
<!DOCTYPE svg PUBLIC "-//W3C//DTD SVG 1.1//EN"
  "http://www.w3.org/Graphics/SVG/1.1/DTD/svg11.dtd">
<svg xmlns:xlink="http://www.w3.org/1999/xlink" width="522.71947pt" height="545.5475pt" viewBox="0 0 522.71947 545.5475" xmlns="http://www.w3.org/2000/svg" version="1.1">
 <metadata>
  <rdf:RDF xmlns:dc="http://purl.org/dc/elements/1.1/" xmlns:cc="http://creativecommons.org/ns#" xmlns:rdf="http://www.w3.org/1999/02/22-rdf-syntax-ns#">
   <cc:Work>
    <dc:type rdf:resource="http://purl.org/dc/dcmitype/StillImage"/>
    <dc:date>2026-04-20T16:54:05.727218</dc:date>
    <dc:format>image/svg+xml</dc:format>
    <dc:creator>
     <cc:Agent>
      <dc:title>Matplotlib v3.10.8, https://matplotlib.org/</dc:title>
     </cc:Agent>
    </dc:creator>
   </cc:Work>
  </rdf:RDF>
 </metadata>
 <defs>
  <style type="text/css">*{stroke-linejoin: round; stroke-linecap: butt}</style>
 </defs>
 <g id="figure_1">
  <g id="patch_1">
   <path d="M 0 545.5475 
L 522.71947 545.5475 
L 522.71947 -0 
L 0 -0 
z
" style="fill: #ffffff"/>
  </g>
  <g id="axes_1">
   <g id="patch_2">
    <path d="M 266.03947 89.2835 
C 218.529783 89.2835 172.546679 106.247563 136.42003 137.102636 
C 100.293381 167.957709 76.344832 210.72092 68.91268 257.645684 
C 61.480527 304.570447 71.042392 352.641187 95.866135 393.149854 
C 120.689878 433.65852 159.180225 464.001863 204.364622 478.683164 
L 235.202046 383.775332 
C 212.609847 376.434682 193.364674 361.26301 180.952802 341.008677 
C 168.540931 320.754343 163.759998 296.718974 167.476075 273.256592 
C 171.192151 249.79421 183.166425 228.412604 201.22975 212.985068 
C 219.293074 197.557531 242.284626 189.0755 266.03947 189.0755 
z
" style="fill: #222222; stroke: #ffffff; stroke-linejoin: miter"/>
   </g>
   <g id="patch_3">
    <path d="M 204.364596 478.683157 
C 236.33497 489.070955 270.417583 491.215257 303.437799 484.916314 
C 336.458013 478.617371 367.357767 464.077048 393.259064 442.649638 
C 419.160361 421.222227 439.233182 393.594373 451.607945 362.339352 
C 463.982707 331.084326 468.262841 297.203614 464.049694 263.853042 
L 365.044582 276.360271 
C 367.151155 293.035557 365.011088 309.975913 358.823707 325.603426 
C 352.636326 341.230937 342.599915 355.044863 329.649267 365.758569 
C 316.698618 376.472274 301.248741 383.742435 284.738634 386.891907 
C 268.228526 390.041379 251.18722 388.969228 235.202033 383.775328 
z
" style="fill: #555555; stroke: #ffffff; stroke-linejoin: miter"/>
   </g>
   <g id="patch_4">
    <path d="M 464.049694 263.853042 
C 460.102343 232.606492 448.814281 202.733486 431.111526 176.684666 
C 413.40877 150.635845 389.789033 129.143529 362.189849 113.970737 
L 314.114659 201.419118 
C 327.914251 209.005515 339.72412 219.751673 348.575498 232.776083 
C 357.426875 245.800493 363.070906 260.736996 365.044582 276.360271 
z
" style="fill: #888888; stroke: #ffffff; stroke-linejoin: miter"/>
   </g>
   <g id="patch_5">
    <path d="M 362.189849 113.970737 
C 347.518473 105.905075 331.890338 99.717456 315.67404 95.553809 
C 299.457743 91.390162 282.781787 89.2835 266.039497 89.2835 
L 266.039483 189.0755 
C 274.410628 189.0755 282.748606 190.128831 290.856755 192.210655 
C 298.964904 194.292478 306.778971 197.386288 314.114659 201.419118 
z
" style="fill: #bbbbbb; stroke: #ffffff; stroke-linejoin: miter"/>
   </g>
   <g id="matplotlib.axis_1"/>
   <g id="matplotlib.axis_2"/>
   <g id="text_1">
    <!-- 18-25岁 -->
    <g transform="translate(7.2 258.367257) scale(0.12 -0.12)">
     <defs>
      <path id="SimHei-31" d="M 1400 3600 
Q 1075 3275 575 2975 
L 575 3450 
Q 1200 3875 1600 4450 
L 1900 4450 
L 1900 150 
L 1400 150 
L 1400 3600 
z
" transform="scale(0.015625)"/>
      <path id="SimHei-38" d="M 175 1375 
Q 175 1675 325 1962 
Q 475 2250 825 2425 
Q 525 2600 425 2812 
Q 325 3025 312 3300 
Q 300 3575 387 3775 
Q 475 3975 650 4150 
Q 825 4325 1037 4387 
Q 1250 4450 1500 4450 
Q 1750 4450 1950 4400 
Q 2150 4350 2375 4187 
Q 2600 4025 2700 3725 
Q 2800 3425 2687 3025 
Q 2575 2625 2100 2400 
Q 2525 2275 2700 2012 
Q 2875 1750 2875 1375 
Q 2875 1000 2762 775 
Q 2650 550 2512 400 
Q 2375 250 2137 162 
Q 1900 75 1537 75 
Q 1175 75 912 162 
Q 650 250 475 425 
Q 300 600 237 837 
Q 175 1075 175 1375 
z
M 687 1400 
Q 675 1100 787 875 
Q 900 650 1200 587 
Q 1500 525 1825 600 
Q 2150 675 2275 950 
Q 2400 1225 2362 1500 
Q 2325 1775 2050 1962 
Q 1775 2150 1450 2125 
Q 1125 2100 912 1900 
Q 700 1700 687 1400 
z
M 775 3350 
Q 775 3100 950 2875 
Q 1125 2650 1500 2650 
Q 1875 2650 2062 2875 
Q 2250 3100 2237 3412 
Q 2225 3725 2012 3875 
Q 1800 4025 1437 4000 
Q 1075 3975 925 3787 
Q 775 3600 775 3350 
z
" transform="scale(0.015625)"/>
      <path id="SimHei-2d" d="M 2975 2125 
L 125 2125 
L 125 2525 
L 2975 2525 
L 2975 2125 
z
" transform="scale(0.015625)"/>
      <path id="SimHei-32" d="M 300 250 
Q 325 625 650 925 
Q 975 1225 1475 1862 
Q 1975 2500 2125 2850 
Q 2275 3200 2237 3450 
Q 2200 3700 2000 3862 
Q 1800 4025 1537 4000 
Q 1275 3975 1037 3800 
Q 800 3625 675 3275 
L 200 3350 
Q 400 3925 712 4187 
Q 1025 4450 1450 4475 
Q 1700 4500 1900 4462 
Q 2100 4425 2312 4287 
Q 2525 4150 2662 3875 
Q 2800 3600 2762 3212 
Q 2725 2825 2375 2287 
Q 2025 1750 1025 600 
L 2825 600 
L 2825 150 
L 300 150 
L 300 250 
z
" transform="scale(0.015625)"/>
      <path id="SimHei-35" d="M 550 1325 
Q 725 650 1150 575 
Q 1575 500 1837 662 
Q 2100 825 2212 1087 
Q 2325 1350 2312 1675 
Q 2300 2000 2137 2225 
Q 1975 2450 1725 2525 
Q 1475 2600 1162 2525 
Q 850 2450 650 2175 
L 225 2225 
Q 275 2375 700 4375 
L 2675 4375 
L 2675 3925 
L 1075 3925 
Q 950 3250 825 2850 
Q 1200 3025 1525 3012 
Q 1850 3000 2150 2862 
Q 2450 2725 2587 2487 
Q 2725 2250 2787 2012 
Q 2850 1775 2837 1500 
Q 2825 1225 2725 937 
Q 2625 650 2425 462 
Q 2225 275 1937 162 
Q 1650 50 1275 75 
Q 900 100 562 350 
Q 225 600 100 1200 
L 550 1325 
z
" transform="scale(0.015625)"/>
      <path id="SimHei-5c81" d="M 3125 3025 
Q 2875 2825 2600 2475 
L 5675 2475 
Q 5400 1800 5137 1312 
Q 4875 825 4337 425 
Q 3800 25 2962 -200 
Q 2125 -425 700 -600 
Q 575 -325 350 -100 
Q 1625 0 2275 125 
Q 2925 250 3250 375 
Q 2900 725 2150 1275 
Q 2325 1375 2525 1600 
Q 3300 1075 3775 625 
Q 4175 875 4475 1237 
Q 4775 1600 4950 2050 
L 2300 2050 
Q 2100 1825 1825 1550 
Q 1550 1275 1150 925 
Q 900 1150 675 1250 
Q 1100 1500 1662 2062 
Q 2225 2625 2525 3275 
Q 2825 3125 3125 3025 
z
M 1375 4700 
Q 1350 4475 1350 3800 
L 3025 3800 
Q 3025 4750 3000 5100 
L 3525 5100 
Q 3500 4750 3500 3800 
L 5175 3800 
Q 5175 4375 5150 4675 
L 5675 4675 
Q 5650 4350 5650 4075 
L 5650 3375 
L 850 3375 
L 850 4700 
L 1375 4700 
z
" transform="scale(0.015625)"/>
     </defs>
     <use xlink:href="#SimHei-31"/>
     <use xlink:href="#SimHei-38" transform="translate(50 0)"/>
     <use xlink:href="#SimHei-2d" transform="translate(100 0)"/>
     <use xlink:href="#SimHei-32" transform="translate(150 0)"/>
     <use xlink:href="#SimHei-35" transform="translate(200 0)"/>
     <use xlink:href="#SimHei-5c81" transform="translate(250 0)"/>
    </g>
   </g>
   <g id="text_2">
    <!-- 45.0% -->
    <g transform="translate(132.763395 273.509413) scale(0.12 -0.12)">
     <defs>
      <path id="SimHei-34" d="M 2000 1100 
L 75 1100 
L 75 1525 
L 2100 4450 
L 2475 4450 
L 2475 1525 
L 3075 1525 
L 3075 1100 
L 2475 1100 
L 2475 150 
L 2000 150 
L 2000 1100 
z
M 2000 1525 
L 2000 3500 
L 600 1525 
L 2000 1525 
z
" transform="scale(0.015625)"/>
      <path id="SimHei-2e" d="M 1075 125 
L 500 125 
L 500 675 
L 1075 675 
L 1075 125 
z
" transform="scale(0.015625)"/>
      <path id="SimHei-30" d="M 225 2537 
Q 250 3200 412 3587 
Q 575 3975 875 4225 
Q 1175 4475 1612 4475 
Q 2050 4475 2375 4112 
Q 2700 3750 2800 3200 
Q 2900 2650 2862 1937 
Q 2825 1225 2612 775 
Q 2400 325 1975 150 
Q 1550 -25 1125 187 
Q 700 400 525 750 
Q 350 1100 275 1487 
Q 200 1875 225 2537 
z
M 750 2687 
Q 675 2000 800 1462 
Q 925 925 1212 700 
Q 1500 475 1800 612 
Q 2100 750 2237 1162 
Q 2375 1575 2375 2062 
Q 2375 2550 2337 2950 
Q 2300 3350 2112 3675 
Q 1925 4000 1612 4012 
Q 1300 4025 1062 3700 
Q 825 3375 750 2687 
z
" transform="scale(0.015625)"/>
      <path id="SimHei-25" d="M 1400 3325 
Q 1400 2600 1187 2400 
Q 975 2200 775 2200 
Q 575 2200 362 2400 
Q 150 2600 150 3325 
Q 150 4050 362 4250 
Q 575 4450 775 4450 
Q 975 4450 1187 4250 
Q 1400 4050 1400 3325 
z
M 2625 4375 
L 700 75 
L 500 150 
L 2425 4450 
L 2625 4375 
z
M 2975 1200 
Q 2975 475 2762 275 
Q 2550 75 2350 75 
Q 2150 75 1937 275 
Q 1725 475 1725 1200 
Q 1725 1925 1937 2125 
Q 2150 2325 2350 2325 
Q 2550 2325 2762 2125 
Q 2975 1925 2975 1200 
z
M 1000 3325 
Q 1000 3775 950 3925 
Q 900 4075 775 4075 
Q 650 4075 600 3925 
Q 550 3775 550 3325 
Q 550 2875 600 2725 
Q 650 2575 775 2575 
Q 900 2575 950 2725 
Q 1000 2875 1000 3325 
z
M 2575 1200 
Q 2575 1650 2525 1800 
Q 2475 1950 2350 1950 
Q 2225 1950 2175 1800 
Q 2125 1650 2125 1200 
Q 2125 750 2175 600 
Q 2225 450 2350 450 
Q 2475 450 2525 600 
Q 2575 750 2575 1200 
z
" transform="scale(0.015625)"/>
     </defs>
     <use xlink:href="#SimHei-34"/>
     <use xlink:href="#SimHei-35" transform="translate(50 0)"/>
     <use xlink:href="#SimHei-2e" transform="translate(100 0)"/>
     <use xlink:href="#SimHei-30" transform="translate(150 0)"/>
     <use xlink:href="#SimHei-25" transform="translate(200 0)"/>
    </g>
   </g>
   <g id="text_3">
    <!-- 26-35岁 -->
    <g transform="translate(405.981112 461.871535) scale(0.12 -0.12)">
     <defs>
      <path id="SimHei-36" d="M 250 1612 
Q 275 1975 387 2225 
Q 500 2475 725 2850 
L 1750 4450 
L 2325 4450 
L 1275 2800 
Q 1950 2975 2350 2750 
Q 2750 2525 2887 2237 
Q 3025 1950 3037 1612 
Q 3050 1275 2937 950 
Q 2825 625 2537 362 
Q 2250 100 1737 75 
Q 1225 50 862 262 
Q 500 475 362 862 
Q 225 1250 250 1612 
z
M 1025 787 
Q 1250 550 1625 525 
Q 2000 500 2250 775 
Q 2500 1050 2500 1575 
Q 2500 2100 2187 2300 
Q 1875 2500 1487 2450 
Q 1100 2400 925 2075 
Q 750 1750 775 1387 
Q 800 1025 1025 787 
z
" transform="scale(0.015625)"/>
      <path id="SimHei-33" d="M 250 1225 
L 700 1300 
Q 800 975 1025 762 
Q 1250 550 1587 562 
Q 1925 575 2125 837 
Q 2325 1100 2300 1437 
Q 2275 1775 2037 1962 
Q 1800 2150 1275 2225 
L 1275 2550 
Q 1800 2600 2037 2825 
Q 2275 3050 2250 3412 
Q 2225 3775 1925 3937 
Q 1625 4100 1287 3975 
Q 950 3850 750 3275 
L 300 3350 
Q 450 3800 712 4100 
Q 975 4400 1425 4450 
Q 1875 4500 2212 4337 
Q 2550 4175 2687 3837 
Q 2825 3500 2725 3100 
Q 2625 2700 2150 2400 
Q 2500 2250 2687 1950 
Q 2875 1650 2812 1162 
Q 2750 675 2375 375 
Q 2000 75 1525 87 
Q 1050 100 700 387 
Q 350 675 250 1225 
z
" transform="scale(0.015625)"/>
     </defs>
     <use xlink:href="#SimHei-32"/>
     <use xlink:href="#SimHei-36" transform="translate(50 0)"/>
     <use xlink:href="#SimHei-2d" transform="translate(100 0)"/>
     <use xlink:href="#SimHei-33" transform="translate(150 0)"/>
     <use xlink:href="#SimHei-35" transform="translate(200 0)"/>
     <use xlink:href="#SimHei-5c81" transform="translate(250 0)"/>
    </g>
   </g>
   <g id="text_4">
    <!-- 32.0% -->
    <g transform="translate(327.371274 384.511747) scale(0.12 -0.12)">
     <use xlink:href="#SimHei-33"/>
     <use xlink:href="#SimHei-32" transform="translate(50 0)"/>
     <use xlink:href="#SimHei-2e" transform="translate(100 0)"/>
     <use xlink:href="#SimHei-30" transform="translate(150 0)"/>
     <use xlink:href="#SimHei-25" transform="translate(200 0)"/>
    </g>
   </g>
   <g id="text_5">
    <!-- 36-45岁 -->
    <g transform="translate(447.618672 169.31004) scale(0.12 -0.12)">
     <use xlink:href="#SimHei-33"/>
     <use xlink:href="#SimHei-36" transform="translate(50 0)"/>
     <use xlink:href="#SimHei-2d" transform="translate(100 0)"/>
     <use xlink:href="#SimHei-34" transform="translate(150 0)"/>
     <use xlink:href="#SimHei-35" transform="translate(200 0)"/>
     <use xlink:href="#SimHei-5c81" transform="translate(250 0)"/>
    </g>
   </g>
   <g id="text_6">
    <!-- 15.0% -->
    <g transform="translate(350.082671 224.932749) scale(0.12 -0.12)">
     <use xlink:href="#SimHei-31"/>
     <use xlink:href="#SimHei-35" transform="translate(50 0)"/>
     <use xlink:href="#SimHei-2e" transform="translate(100 0)"/>
     <use xlink:href="#SimHei-30" transform="translate(150 0)"/>
     <use xlink:href="#SimHei-25" transform="translate(200 0)"/>
    </g>
   </g>
   <g id="text_7">
    <!-- 45岁以上 -->
    <g transform="translate(320.637394 80.159915) scale(0.12 -0.12)">
     <defs>
      <path id="SimHei-4ee5" d="M 5400 4775 
Q 5275 4450 5162 3275 
Q 5050 2100 4675 1350 
Q 5700 350 6075 -150 
Q 5850 -300 5625 -500 
Q 5175 150 4375 900 
Q 3400 -175 2200 -700 
Q 1950 -325 1800 -200 
Q 2875 125 3625 850 
Q 4375 1575 4550 2812 
Q 4725 4050 4700 4925 
Q 5125 4825 5400 4775 
z
M 2650 2150 
Q 2825 1875 3025 1675 
Q 2200 1050 1025 -175 
Q 800 75 650 200 
Q 850 450 850 750 
L 850 3525 
Q 850 3900 825 4350 
L 1400 4350 
Q 1375 4175 1375 3775 
L 1375 875 
Q 2100 1525 2650 2150 
z
M 2450 5025 
Q 2725 4725 3025 4362 
Q 3325 4000 3700 3475 
Q 3475 3325 3250 3125 
Q 2925 3700 2050 4700 
Q 2250 4825 2450 5025 
z
" transform="scale(0.015625)"/>
      <path id="SimHei-4e0a" d="M 3250 5075 
Q 3225 4650 3225 4275 
L 3225 3225 
L 4650 3225 
Q 5150 3225 5600 3250 
L 5600 2700 
Q 5100 2725 4600 2725 
L 3225 2725 
L 3225 200 
L 5200 200 
Q 5575 200 6075 225 
L 6075 -300 
Q 5600 -275 5200 -275 
L 1250 -275 
Q 850 -275 350 -300 
L 350 225 
Q 825 200 1250 200 
L 2700 200 
L 2700 4250 
Q 2700 4625 2675 5075 
L 3250 5075 
z
" transform="scale(0.015625)"/>
     </defs>
     <use xlink:href="#SimHei-34"/>
     <use xlink:href="#SimHei-35" transform="translate(50 0)"/>
     <use xlink:href="#SimHei-5c81" transform="translate(100 0)"/>
     <use xlink:href="#SimHei-4ee5" transform="translate(200 0)"/>
     <use xlink:href="#SimHei-4e0a" transform="translate(300 0)"/>
    </g>
   </g>
   <g id="text_8">
    <!-- 8.0% -->
    <g transform="translate(283.820156 176.254272) scale(0.12 -0.12)">
     <use xlink:href="#SimHei-38"/>
     <use xlink:href="#SimHei-2e" transform="translate(50 0)"/>
     <use xlink:href="#SimHei-30" transform="translate(100 0)"/>
     <use xlink:href="#SimHei-25" transform="translate(150 0)"/>
    </g>
   </g>
   <g id="text_9">
    <!-- 传统文化内容受众年龄分布 -->
    <g transform="translate(176.03947 19.3875) scale(0.15 -0.15)">
     <defs>
      <path id="SimHei-4f20" d="M 5500 1975 
Q 5025 925 4700 250 
Q 4975 100 5450 -200 
Q 5300 -375 5125 -675 
Q 4700 -375 4012 12 
Q 3325 400 3050 525 
Q 3175 750 3275 950 
Q 3600 800 4275 475 
Q 4525 975 4750 1550 
L 2800 1550 
Q 2950 2000 3125 2650 
L 2575 2650 
Q 2200 2650 1925 2625 
L 1925 3075 
Q 2250 3050 2600 3050 
L 3200 3050 
Q 3300 3525 3350 3825 
L 2975 3825 
Q 2525 3825 2250 3800 
L 2250 4250 
Q 2550 4225 2950 4225 
L 3425 4225 
Q 3525 4950 3525 5225 
Q 3850 5150 4100 5125 
Q 4025 5000 3875 4225 
L 4950 4225 
Q 5350 4225 5700 4250 
L 5700 3800 
Q 5375 3825 4925 3825 
L 3825 3825 
Q 3775 3550 3675 3050 
L 5250 3050 
Q 5750 3050 6025 3075 
L 6025 2625 
Q 5725 2650 5250 2650 
L 3600 2650 
Q 3500 2250 3425 1975 
L 5500 1975 
z
M 2225 4875 
Q 2025 4675 1650 3750 
L 1650 550 
Q 1650 -25 1675 -525 
L 1125 -525 
Q 1175 -125 1175 525 
L 1175 3000 
Q 800 2400 550 2050 
Q 450 2250 200 2450 
Q 500 2800 925 3525 
Q 1350 4250 1625 5175 
Q 1850 5050 2225 4875 
z
" transform="scale(0.015625)"/>
      <path id="SimHei-7edf" d="M 5150 4300 
Q 5525 4300 5950 4325 
L 5950 3875 
Q 5550 3900 5175 3900 
L 3775 3900 
Q 3975 3750 4250 3600 
Q 4050 3450 3837 3162 
Q 3625 2875 3225 2375 
Q 3800 2375 5025 2500 
Q 4925 2625 4625 2975 
Q 4850 3100 5025 3250 
Q 5450 2800 5950 2100 
Q 5700 1950 5525 1775 
Q 5375 1975 5275 2125 
Q 4925 2100 4825 2075 
L 4825 200 
Q 4825 -100 5075 -100 
L 5325 -100 
Q 5550 -100 5625 575 
Q 5850 400 6150 325 
Q 5925 -525 5525 -525 
L 4850 -525 
Q 4350 -525 4350 0 
L 4350 2025 
Q 4000 2000 3875 1975 
Q 3900 1050 3637 462 
Q 3375 -125 2625 -700 
Q 2500 -500 2175 -375 
Q 2575 -125 2850 175 
Q 3125 475 3275 850 
Q 3425 1225 3400 1925 
Q 3025 1900 2725 1825 
Q 2650 2200 2525 2475 
Q 2825 2500 3187 2975 
Q 3550 3450 3675 3900 
L 3275 3900 
Q 2950 3900 2475 3875 
L 2475 4325 
Q 2875 4300 3250 4300 
L 5150 4300 
z
M 1875 4825 
Q 1700 4600 1500 4250 
Q 1300 3900 900 3250 
Q 1375 3275 1650 3275 
Q 1850 3625 1975 3975 
Q 2250 3800 2550 3675 
Q 2375 3500 2075 3037 
Q 1775 2575 1225 1725 
Q 1950 1800 2500 1900 
Q 2375 1600 2375 1425 
Q 2150 1400 1587 1325 
Q 1025 1250 600 1125 
Q 525 1375 425 1625 
Q 700 1700 950 2075 
Q 1200 2450 1450 2900 
Q 1225 2875 925 2837 
Q 625 2800 425 2750 
Q 325 3000 200 3225 
Q 500 3300 862 4025 
Q 1225 4750 1275 5075 
Q 1575 4925 1875 4825 
z
M 2550 825 
Q 2525 575 2550 350 
Q 1975 200 1412 37 
Q 850 -125 550 -250 
Q 450 0 275 275 
Q 900 375 1450 500 
Q 2000 625 2550 825 
z
M 4100 5275 
Q 4375 4825 4500 4575 
Q 4325 4500 4025 4350 
Q 3825 4825 3650 5075 
Q 3950 5175 4100 5275 
z
" transform="scale(0.015625)"/>
      <path id="SimHei-6587" d="M 1250 3450 
Q 725 3450 350 3400 
L 350 3925 
Q 925 3900 1400 3900 
L 4950 3900 
Q 5400 3900 6025 3925 
L 6025 3400 
Q 5400 3425 4625 3425 
Q 4500 2650 4175 1987 
Q 3850 1325 3475 900 
Q 3950 475 4725 212 
Q 5500 -50 6075 -100 
Q 5850 -275 5675 -625 
Q 5250 -525 4575 -275 
Q 3900 -25 3125 575 
Q 2100 -275 675 -675 
Q 625 -450 325 -175 
Q 750 -125 1487 137 
Q 2225 400 2750 875 
Q 1875 1775 1500 3450 
L 1250 3450 
z
M 2025 3425 
Q 2225 2075 3100 1200 
Q 3900 2175 4100 3425 
L 2025 3425 
z
M 2850 5250 
Q 3125 4825 3500 4175 
Q 3300 4125 3050 3925 
Q 2700 4575 2425 5000 
Q 2600 5050 2850 5250 
z
" transform="scale(0.015625)"/>
      <path id="SimHei-5316" d="M 3925 5025 
Q 3900 4900 3900 4400 
L 3900 2625 
Q 4375 3025 4775 3450 
Q 5175 3875 5400 4300 
Q 5600 4100 5900 3925 
Q 5700 3700 5225 3212 
Q 4750 2725 4487 2512 
Q 4225 2300 3900 2025 
L 3900 450 
Q 3900 50 4225 50 
L 5200 50 
Q 5400 75 5462 262 
Q 5525 450 5575 850 
Q 5800 650 6150 600 
Q 6000 -100 5825 -250 
Q 5650 -400 5350 -400 
L 3950 -400 
Q 3425 -400 3400 200 
L 3400 1675 
Q 3225 1525 2962 1350 
Q 2700 1175 2375 975 
Q 2225 1225 2025 1400 
Q 2350 1550 2737 1787 
Q 3125 2025 3400 2250 
L 3400 4500 
Q 3400 4800 3375 5025 
L 3925 5025 
z
M 2400 4850 
Q 2175 4550 2075 4337 
Q 1975 4125 1825 3775 
L 1825 675 
Q 1825 -75 1850 -550 
L 1325 -550 
Q 1350 -125 1350 650 
L 1350 3050 
Q 1125 2725 962 2525 
Q 800 2325 675 2175 
Q 500 2375 275 2525 
Q 625 2850 875 3212 
Q 1125 3575 1312 3912 
Q 1500 4250 1625 4575 
Q 1750 4900 1825 5100 
Q 1975 4975 2400 4850 
z
" transform="scale(0.015625)"/>
      <path id="SimHei-5185" d="M 1425 1300 
Q 2175 1825 2537 2375 
Q 2900 2925 2925 3750 
L 1225 3750 
L 1225 -500 
L 650 -500 
Q 700 0 700 350 
L 700 3125 
Q 700 3625 675 4175 
L 2950 4175 
Q 2950 4850 2925 5175 
Q 3325 5150 3550 5150 
Q 3425 4825 3425 4175 
L 5775 4175 
Q 5725 3650 5725 3125 
L 5725 75 
Q 5725 -300 5425 -387 
Q 5125 -475 4600 -550 
Q 4525 -300 4250 0 
Q 4850 0 5025 37 
Q 5200 75 5200 275 
L 5200 3750 
L 3400 3750 
Q 3400 3300 3325 2875 
Q 3550 2700 4125 2262 
Q 4700 1825 4950 1575 
Q 4675 1350 4525 1175 
Q 4100 1675 3175 2425 
Q 2725 1650 2000 975 
Q 1700 1225 1425 1300 
z
" transform="scale(0.015625)"/>
      <path id="SimHei-5bb9" d="M 3350 2725 
Q 4025 2150 4687 1850 
Q 5350 1550 6100 1425 
Q 5875 1250 5800 950 
Q 5325 1075 4850 1275 
Q 4850 -200 4875 -575 
L 4400 -575 
L 4400 -225 
L 2050 -225 
L 2050 -650 
L 1575 -650 
Q 1600 -325 1600 1275 
Q 1125 1050 550 825 
Q 450 1025 225 1250 
Q 1325 1500 2137 2137 
Q 2950 2775 3125 3275 
Q 3375 3125 3600 3025 
L 3350 2725 
z
M 5750 4350 
Q 5725 4125 5725 3875 
Q 5725 3625 5750 3400 
L 5250 3400 
L 5250 4000 
L 1200 4000 
L 1200 3375 
L 700 3375 
Q 725 3650 725 3875 
Q 725 4125 700 4350 
L 5750 4350 
z
M 4400 150 
L 4400 1025 
L 2050 1025 
L 2050 150 
L 4400 150 
z
M 4625 1400 
Q 3875 1700 3100 2425 
Q 2525 1850 1750 1400 
L 4625 1400 
z
M 4000 3725 
Q 5175 3075 5550 2850 
Q 5375 2650 5250 2450 
Q 4400 3025 3725 3375 
Q 3925 3575 4000 3725 
z
M 775 2775 
Q 1875 3225 2325 3700 
Q 2400 3575 2650 3325 
Q 1725 2700 1100 2425 
Q 975 2625 775 2775 
z
M 2650 5025 
Q 2850 5125 3125 5300 
Q 3400 4950 3575 4600 
Q 3225 4475 3075 4375 
Q 3050 4475 2650 5025 
z
" transform="scale(0.015625)"/>
      <path id="SimHei-53d7" d="M 4775 2075 
Q 4375 1000 3650 350 
Q 4425 -25 5925 -25 
Q 5675 -275 5575 -525 
Q 4825 -475 4250 -325 
Q 3675 -175 3200 75 
Q 2550 -250 2075 -375 
Q 1600 -500 875 -600 
Q 850 -375 575 -125 
Q 1400 -75 1950 62 
Q 2500 200 2800 375 
Q 2300 800 1900 1625 
Q 1750 1625 1500 1600 
L 1500 2100 
Q 2000 2075 2675 2075 
L 4775 2075 
z
M 5325 4150 
Q 5050 3875 4875 3625 
Q 4700 3375 4500 3100 
L 5850 3100 
Q 5825 2775 5825 2525 
Q 5825 2275 5850 1975 
L 5350 1975 
L 5350 2650 
L 1075 2650 
L 1075 1900 
L 575 1900 
Q 600 2225 600 2475 
Q 600 2725 575 3100 
L 3925 3100 
Q 4125 3350 4312 3675 
Q 4500 4000 4675 4425 
Q 4875 4300 5325 4150 
z
M 5625 4625 
Q 4525 4575 3387 4475 
Q 2250 4375 875 4250 
Q 825 4525 650 4750 
Q 2075 4750 3400 4875 
Q 4725 5000 5275 5175 
Q 5450 4800 5625 4625 
z
M 3225 600 
Q 3675 900 4025 1625 
L 2425 1625 
Q 2725 925 3225 600 
z
M 3175 4350 
Q 3475 3775 3600 3500 
Q 3325 3425 3100 3300 
Q 3000 3625 2700 4125 
Q 2950 4225 3175 4350 
z
M 1750 4200 
Q 2025 3650 2125 3375 
Q 1825 3300 1625 3200 
Q 1575 3450 1275 4025 
Q 1525 4100 1750 4200 
z
" transform="scale(0.015625)"/>
      <path id="SimHei-4f17" d="M 525 2775 
Q 1225 3000 1900 3650 
Q 2575 4300 2775 5125 
Q 2975 5075 3375 5000 
L 3250 4750 
Q 4075 3350 5675 2950 
Q 5475 2775 5325 2475 
Q 3750 3050 3025 4300 
Q 2350 3050 900 2350 
Q 775 2600 525 2775 
z
M 4500 2675 
Q 4450 2475 4425 2275 
Q 4400 2075 4450 1675 
Q 4500 1275 5062 687 
Q 5625 100 6050 -50 
Q 5775 -250 5625 -475 
Q 4775 75 4200 1050 
Q 3850 150 3075 -625 
Q 2900 -425 2600 -325 
Q 3225 100 3537 687 
Q 3850 1275 3875 1750 
Q 3900 2225 3900 2750 
Q 4175 2700 4500 2675 
z
M 2425 2575 
Q 2325 2350 2150 1475 
Q 2800 1100 3250 750 
Q 3050 575 2900 400 
Q 2675 675 2025 1050 
Q 1575 150 900 -450 
Q 750 -250 425 -150 
Q 1275 525 1562 1375 
Q 1850 2225 1850 2700 
Q 2200 2650 2425 2575 
z
" transform="scale(0.015625)"/>
      <path id="SimHei-5e74" d="M 350 2925 
Q 900 3450 1375 4200 
Q 1850 4950 1900 5275 
Q 2275 5125 2600 5050 
Q 2375 4825 2100 4325 
L 4625 4325 
Q 5175 4325 5750 4350 
L 5750 3925 
Q 5225 3950 4625 3950 
L 3800 3950 
L 3800 2925 
Q 4750 2925 5475 2950 
L 5475 2525 
Q 4725 2550 3800 2550 
L 3800 1375 
L 5075 1375 
Q 5625 1375 6100 1400 
L 6100 975 
Q 5650 1000 5075 1000 
L 3800 1000 
L 3800 425 
Q 3800 -150 3825 -625 
L 3275 -625 
Q 3300 -150 3300 375 
L 3300 1000 
L 1600 1000 
Q 900 1000 275 975 
L 275 1400 
Q 875 1375 1450 1375 
Q 1450 2350 1425 2925 
L 3300 2925 
L 3300 3950 
L 1875 3950 
Q 1350 3150 925 2650 
Q 650 2875 350 2925 
z
M 3300 1375 
L 3300 2550 
L 1925 2550 
L 1925 1375 
L 3300 1375 
z
" transform="scale(0.015625)"/>
      <path id="SimHei-9f84" d="M 2125 2575 
Q 2075 2500 2012 2350 
Q 1950 2200 1900 1975 
Q 2300 1350 2475 1000 
Q 2300 900 2125 700 
Q 2075 900 1750 1550 
Q 1650 1175 1350 525 
Q 1200 650 950 750 
L 950 175 
Q 1875 275 2525 350 
Q 2525 2050 2500 2450 
L 2975 2450 
Q 2925 2100 2925 1000 
Q 2925 -75 2950 -550 
L 2525 -550 
L 2525 -25 
Q 2175 -25 525 -250 
Q 550 250 550 1200 
Q 550 2150 525 2500 
L 1000 2500 
Q 950 2150 950 775 
Q 1250 1175 1425 1762 
Q 1600 2350 1625 2750 
Q 1800 2675 2125 2575 
z
M 1150 4575 
Q 1125 4250 1125 3275 
L 1725 3275 
Q 1725 4725 1700 5100 
L 2175 5100 
Q 2125 4825 2125 4350 
Q 2500 4350 2950 4375 
L 2950 3975 
Q 2550 4000 2125 4000 
L 2125 3275 
Q 2600 3275 2950 3300 
L 2950 2900 
Q 2575 2925 1575 2925 
Q 575 2925 275 2900 
L 275 3325 
Q 500 3300 725 3300 
Q 725 4225 700 4575 
L 1150 4575 
z
M 5750 2075 
Q 5100 950 4700 275 
Q 4900 75 5250 -325 
Q 5000 -500 4875 -625 
Q 4525 -225 4175 162 
Q 3825 550 3450 875 
Q 3625 1025 3750 1150 
Q 3900 1025 4375 600 
Q 4750 1150 5025 1725 
L 3775 1725 
Q 3600 1725 3300 1700 
L 3300 2100 
Q 3600 2075 4025 2075 
L 5750 2075 
z
M 4700 5000 
Q 4650 4900 4550 4725 
Q 4825 4200 5225 3750 
Q 5625 3300 6200 3025 
Q 5975 2950 5800 2625 
Q 5275 3050 4975 3412 
Q 4675 3775 4375 4350 
Q 4225 3925 3975 3437 
Q 3725 2950 3275 2425 
Q 3075 2625 2900 2700 
Q 3300 3100 3662 3775 
Q 4025 4450 4125 5200 
Q 4400 5075 4700 5000 
z
M 4425 3250 
Q 4550 3025 4875 2500 
Q 4675 2400 4475 2250 
Q 4275 2650 4050 3000 
Q 4250 3150 4425 3250 
z
" transform="scale(0.015625)"/>
      <path id="SimHei-5206" d="M 1000 -650 
Q 825 -375 575 -225 
Q 975 -75 1300 137 
Q 1625 350 1875 662 
Q 2125 975 2250 1350 
Q 2375 1725 2425 2275 
Q 1850 2275 1500 2250 
L 1500 2775 
Q 1900 2750 2525 2750 
L 5025 2750 
Q 4975 2375 4950 2100 
L 4750 250 
Q 4700 -200 4350 -350 
Q 4000 -500 3575 -525 
Q 3550 -275 3325 50 
Q 3850 25 4037 87 
Q 4225 150 4275 525 
L 4450 2275 
L 2950 2275 
Q 2875 1625 2737 1187 
Q 2600 750 2350 425 
Q 2100 100 1750 -175 
Q 1400 -450 1000 -650 
z
M 3950 5175 
Q 4125 4650 4662 3975 
Q 5200 3300 6175 2800 
Q 5975 2625 5775 2275 
Q 5325 2600 4987 2887 
Q 4650 3175 4425 3425 
Q 4200 3675 3925 4137 
Q 3650 4600 3475 5000 
Q 3750 5075 3950 5175 
z
M 2700 4825 
Q 2475 4425 2325 4125 
Q 2175 3825 2025 3587 
Q 1875 3350 1575 2950 
Q 1275 2550 850 2125 
Q 625 2350 400 2475 
Q 900 2925 1187 3300 
Q 1475 3675 1737 4112 
Q 2000 4550 2200 5075 
Q 2400 4925 2700 4825 
z
" transform="scale(0.015625)"/>
      <path id="SimHei-5e03" d="M 2375 4225 
Q 2650 4775 2775 5300 
Q 3125 5175 3400 5075 
Q 3275 4975 2950 4225 
L 4800 4225 
Q 5550 4225 6025 4250 
L 6025 3800 
L 2725 3800 
Q 2325 3100 1975 2675 
L 3275 2675 
Q 3275 3225 3250 3575 
L 3775 3575 
Q 3750 3225 3750 2675 
L 5500 2675 
Q 5475 2225 5475 1775 
L 5475 750 
Q 5475 275 5212 150 
Q 4950 25 4450 -25 
Q 4400 325 4225 550 
Q 4800 550 4912 625 
Q 5025 700 5000 1025 
L 5000 2250 
L 3750 2250 
L 3750 550 
Q 3750 25 3775 -600 
L 3250 -600 
Q 3275 25 3275 550 
L 3275 2250 
L 2100 2250 
L 2100 0 
L 1600 0 
Q 1625 525 1625 1025 
L 1625 2225 
Q 1300 1850 650 1275 
Q 475 1475 200 1650 
Q 750 2025 1262 2562 
Q 1775 3100 2150 3800 
L 1550 3800 
Q 925 3800 400 3775 
L 400 4250 
Q 925 4225 1550 4225 
L 2375 4225 
z
" transform="scale(0.015625)"/>
     </defs>
     <use xlink:href="#SimHei-4f20"/>
     <use xlink:href="#SimHei-7edf" transform="translate(100 0)"/>
     <use xlink:href="#SimHei-6587" transform="translate(200 0)"/>
     <use xlink:href="#SimHei-5316" transform="translate(300 0)"/>
     <use xlink:href="#SimHei-5185" transform="translate(400 0)"/>
     <use xlink:href="#SimHei-5bb9" transform="translate(500 0)"/>
     <use xlink:href="#SimHei-53d7" transform="translate(600 0)"/>
     <use xlink:href="#SimHei-4f17" transform="translate(700 0)"/>
     <use xlink:href="#SimHei-5e74" transform="translate(800 0)"/>
     <use xlink:href="#SimHei-9f84" transform="translate(900 0)"/>
     <use xlink:href="#SimHei-5206" transform="translate(1000 0)"/>
     <use xlink:href="#SimHei-5e03" transform="translate(1100 0)"/>
    </g>
   </g>
  </g>
 </g>
</svg>
